<?xml version="1.0" encoding="iso-8859-1"?>
<!-- Generator: Adobe Illustrator 18.0.0, SVG Export Plug-In . SVG Version: 6.00 Build 0)  -->
<!DOCTYPE svg PUBLIC "-//W3C//DTD SVG 1.1//EN" "http://www.w3.org/Graphics/SVG/1.1/DTD/svg11.dtd">
<svg version="1.1" id="Capa_1" xmlns="http://www.w3.org/2000/svg" xmlns:xlink="http://www.w3.org/1999/xlink" x="0px" y="0px"
	 viewBox="0 0 50 50" style="enable-background:new 0 0 50 50;" xml:space="preserve">
<g>
	<path d="M34.991,19.374c-0.044-2.811-1.536-5.406-4.028-7.077C30.638,9.043,28.089,6.5,25,6.5s-5.638,2.543-5.963,5.797
		c-2.492,1.671-3.984,4.266-4.028,7.077C13.214,20.498,12,22.596,12,25c0,3.584,2.691,6.5,6,6.5c2.188,0,4.101-1.279,5.149-3.18
		c0.619,0.107,1.238,0.18,1.851,0.18s1.232-0.073,1.851-0.18c1.048,1.901,2.961,3.18,5.149,3.18c3.309,0,6-2.916,6-6.5
		C38,22.596,36.786,20.498,34.991,19.374z M25,8.5c2.206,0,4,2.019,4,4.5s-1.794,4.5-4,4.5c-2.206,0-4-2.018-3.998-4.522
		C21.013,10.507,22.801,8.5,25,8.5z M18,29.5c-2.206,0-4-2.019-4-4.5c0-1.892,1.045-3.507,2.518-4.172
		c0.223-0.101,0.451-0.184,0.685-0.238C17.461,20.532,17.727,20.5,18,20.5c2.206,0,4,2.019,4,4.5c0,0.313-0.03,0.622-0.086,0.923
		c-0.01,0.055-0.032,0.104-0.044,0.158c-0.054,0.244-0.118,0.487-0.21,0.72C21.041,28.387,19.636,29.5,18,29.5z M26.146,26.424
		c-0.768,0.101-1.523,0.101-2.291,0c0.003-0.017,0.004-0.034,0.008-0.051c0.031-0.156,0.053-0.316,0.074-0.477
		c0.009-0.068,0.022-0.135,0.029-0.204C23.987,25.465,24,25.234,24,25c0-3.584-2.691-6.5-6-6.5c-0.28,0-0.554,0.028-0.825,0.069
		c-0.035,0.005-0.071,0.003-0.106,0.009c0.224-1.467,0.974-2.83,2.134-3.897c0.007,0.028,0.019,0.053,0.027,0.08
		c0.078,0.299,0.173,0.589,0.288,0.868c0.02,0.049,0.043,0.096,0.065,0.145c0.12,0.275,0.255,0.541,0.408,0.794
		c0.009,0.015,0.017,0.031,0.026,0.046c0.16,0.259,0.341,0.5,0.533,0.73c0.037,0.044,0.073,0.089,0.111,0.132
		c0.192,0.219,0.398,0.423,0.616,0.612c0.04,0.034,0.081,0.066,0.122,0.099c0.226,0.185,0.462,0.357,0.712,0.507
		c0.008,0.005,0.016,0.011,0.024,0.016c0.254,0.15,0.523,0.275,0.797,0.385c0.052,0.021,0.103,0.043,0.156,0.062
		c0.27,0.099,0.547,0.177,0.833,0.234c0.054,0.011,0.108,0.018,0.162,0.027c0.3,0.05,0.605,0.084,0.918,0.084
		s0.618-0.034,0.918-0.084c0.054-0.009,0.109-0.016,0.162-0.027c0.285-0.057,0.563-0.135,0.833-0.234
		c0.053-0.019,0.104-0.041,0.156-0.062c0.275-0.11,0.543-0.234,0.797-0.385c0.008-0.005,0.016-0.011,0.024-0.016
		c0.25-0.149,0.485-0.322,0.712-0.507c0.041-0.033,0.082-0.065,0.122-0.099c0.219-0.188,0.424-0.393,0.616-0.612
		c0.038-0.043,0.074-0.088,0.111-0.132c0.192-0.231,0.373-0.472,0.533-0.73c0.009-0.015,0.017-0.031,0.026-0.046
		c0.154-0.252,0.288-0.519,0.408-0.794c0.021-0.049,0.044-0.096,0.065-0.145c0.115-0.28,0.21-0.57,0.288-0.868
		c0.007-0.028,0.02-0.052,0.027-0.08c1.16,1.068,1.91,2.431,2.134,3.897c-0.035-0.006-0.071-0.004-0.106-0.009
		C32.554,18.528,32.28,18.5,32,18.5c-3.309,0-6,2.916-6,6.5c0,0.234,0.013,0.465,0.035,0.693c0.007,0.068,0.02,0.135,0.029,0.204
		c0.021,0.16,0.042,0.32,0.074,0.477C26.141,26.39,26.142,26.408,26.146,26.424z M32,29.5c-1.636,0-3.041-1.113-3.66-2.699
		c-0.091-0.234-0.155-0.476-0.21-0.72c-0.012-0.054-0.033-0.103-0.044-0.158C28.03,25.622,28,25.313,28,25c0-2.481,1.794-4.5,4-4.5
		c0.273,0,0.539,0.032,0.797,0.091c0.234,0.054,0.462,0.137,0.685,0.238C34.955,21.493,36,23.108,36,25
		C36,27.481,34.206,29.5,32,29.5z"/>
	<path d="M25,2.5C12.851,2.5,0,17.631,0,31.938C0,33.902,1.524,35.5,3.397,35.5h1.521c-0.548,6.312,4.124,11.44,4.349,11.681
		C9.461,47.389,9.728,47.5,10,47.5c0.123,0,0.247-0.022,0.366-0.069C10.748,47.28,11,46.911,11,46.5c0-0.626-0.005-1.233-0.01-1.819
		c-0.033-3.928-0.057-6.766,1.433-8.254c0.276-0.276,0.496-0.591,0.675-0.927h1.756c-0.173,2.055-0.022,6.297,3.444,9.712
		C18.489,45.4,18.742,45.5,19,45.5c0.127,0,0.255-0.024,0.377-0.074c0.37-0.151,0.615-0.508,0.623-0.907
		c0.055-2.855,0.741-7.685,2.34-9.019h5.321c1.596,1.332,2.284,6.163,2.34,9.02c0.008,0.399,0.253,0.756,0.623,0.907
		C30.745,45.476,30.873,45.5,31,45.5c0.258,0,0.511-0.1,0.702-0.288c3.466-3.415,3.617-7.658,3.444-9.712h1.756
		c0.179,0.335,0.4,0.651,0.675,0.926c1.489,1.489,1.466,4.327,1.433,8.255C39.005,45.267,39,45.874,39,46.5
		c0,0.411,0.252,0.78,0.634,0.931C39.753,47.478,39.877,47.5,40,47.5c0.272,0,0.539-0.111,0.732-0.319
		c0.225-0.241,4.897-5.369,4.349-11.681h1.654c1.831,0,3.265-1.516,3.265-3.451C50,19.42,37.64,2.5,25,2.5z M8.981,43.382
		c-1.237-2.072-2.566-5.246-1.948-8.638l0.011-0.057C7.109,34.345,7.187,34,7.294,33.65c0.333-1.078,1.138-1.88,2.099-2.094
		c0.151-0.034,0.29-0.047,0.424-0.051c0.034-0.001,0.067-0.001,0.1-0.001c0.135,0.004,0.263,0.02,0.383,0.056
		c0.017,0.005,0.034,0.014,0.051,0.02c0.11,0.039,0.215,0.093,0.314,0.161c0.018,0.012,0.036,0.022,0.054,0.036
		c0.105,0.08,0.204,0.18,0.299,0.296c0.019,0.023,0.037,0.049,0.056,0.073c0.095,0.127,0.187,0.266,0.274,0.432
		c0.093,0.178,0.149,0.369,0.188,0.563c0.008,0.041,0.017,0.082,0.023,0.124c0.026,0.189,0.03,0.38,0.007,0.568
		c-0.004,0.035-0.015,0.069-0.021,0.103c-0.071,0.404-0.245,0.787-0.534,1.076C9.146,36.875,8.973,39.755,8.981,43.382z
		 M18.18,41.847c-1.474-2.492-1.451-5.084-1.321-6.347h3C18.854,37.337,18.393,39.911,18.18,41.847z M31.82,41.847
		c-0.213-1.936-0.675-4.51-1.679-6.347h3C33.271,36.764,33.294,39.356,31.82,41.847z M41.019,43.382
		c0.009-3.627-0.165-6.508-2.027-8.371c-0.289-0.289-0.464-0.671-0.534-1.075c-0.006-0.035-0.017-0.069-0.021-0.104
		c-0.023-0.188-0.019-0.379,0.007-0.567c0.006-0.042,0.015-0.083,0.023-0.124c0.039-0.193,0.094-0.385,0.188-0.563
		c0.087-0.166,0.179-0.305,0.274-0.432c0.019-0.025,0.037-0.05,0.056-0.074c0.095-0.116,0.194-0.216,0.299-0.296
		c0.017-0.013,0.035-0.023,0.053-0.035c0.1-0.07,0.206-0.124,0.318-0.163c0.016-0.005,0.03-0.013,0.046-0.018
		c0.121-0.037,0.25-0.054,0.387-0.057c0.031-0.001,0.063,0,0.095,0.001c0.135,0.004,0.274,0.017,0.427,0.051
		c0.24,0.053,0.471,0.144,0.686,0.266c0.647,0.366,1.162,1.02,1.412,1.829c0.107,0.348,0.185,0.693,0.25,1.036l0.009,0.045
		C43.588,38.129,42.257,41.307,41.019,43.382z M46.735,33.5h-1.994c-0.039-0.152-0.081-0.298-0.125-0.439
		c-0.544-1.763-1.914-3.088-3.575-3.457c-0.223-0.05-0.44-0.082-0.653-0.097c-1.488-0.104-2.719,0.641-3.506,2.142
		c-0.137,0.262-0.233,0.536-0.309,0.814c-0.016,0.06-0.031,0.119-0.044,0.18c-0.065,0.283-0.109,0.57-0.113,0.857H34h-6h-6h-6
		h-2.415c-0.004-0.287-0.049-0.574-0.113-0.857c-0.014-0.06-0.028-0.119-0.044-0.179c-0.077-0.278-0.172-0.553-0.31-0.815
		c-0.676-1.287-1.678-2.018-2.886-2.135c-0.403-0.039-0.829-0.01-1.273,0.089c-0.415,0.092-0.812,0.244-1.183,0.448
		c-1.112,0.611-1.984,1.686-2.392,3.008c-0.044,0.142-0.086,0.288-0.125,0.44H3.397C2.627,33.5,2,32.799,2,31.938
		C2,18.86,14.037,4.5,25,4.5c11.41,0,23,16.028,23,27.549C48,32.752,47.557,33.5,46.735,33.5z"/>
</g>
<g>
</g>
<g>
</g>
<g>
</g>
<g>
</g>
<g>
</g>
<g>
</g>
<g>
</g>
<g>
</g>
<g>
</g>
<g>
</g>
<g>
</g>
<g>
</g>
<g>
</g>
<g>
</g>
<g>
</g>
</svg>
