<?xml version="1.0" encoding="iso-8859-1"?>
<!-- Generator: Adobe Illustrator 18.0.0, SVG Export Plug-In . SVG Version: 6.00 Build 0)  -->
<!DOCTYPE svg PUBLIC "-//W3C//DTD SVG 1.1//EN" "http://www.w3.org/Graphics/SVG/1.1/DTD/svg11.dtd">
<svg version="1.1" id="Capa_1" xmlns="http://www.w3.org/2000/svg" xmlns:xlink="http://www.w3.org/1999/xlink" x="0px" y="0px"
	 viewBox="0 0 57.105 57.105" style="enable-background:new 0 0 57.105 57.105;" xml:space="preserve">
<path d="M38.158,49.521l18.947,7.414l-7.414-18.946l-8.33-1.041L22,17.753v-7.583c0-0.552-0.447-1-1-1h-1v-1c0-0.552-0.447-1-1-1h-1
	v-2c0-0.552-0.447-1-1-1h-1v-1c0-0.552-0.447-1-1-1h-1v-1c0-0.552-0.447-1-1-1H9c-0.553,0-1,0.448-1,1v7H1c-0.553,0-1,0.448-1,1v4
	c0,0.552,0.447,1,1,1h1v1c0,0.552,0.447,1,1,1h1v1c0,0.552,0.447,1,1,1h1v1c0,0.552,0.447,1,1,1h1v1.036
	c0,0.266,0.105,0.521,0.294,0.708C8.481,22.101,8.735,22.206,9,22.206c0.001,0,0.002,0,0.004,0l9.097-0.032L37.118,41.19
	L38.158,49.521z M52.886,51.642l-5.179-5.179c-0.391-0.391-1.023-0.391-1.414,0s-0.391,1.023,0,1.414l4.401,4.401l-10.698-4.186
	l-0.966-7.724l0.753-0.753l0.755-0.755l7.724,0.965L52.886,51.642z M38.367,38.203l-0.704,0.704L19.988,21.232
	C19.989,21.21,20,21.192,20,21.171v-1.065l0.103-0.308l0.722-0.393l18.25,18.091L38.367,38.203z M12,2.171v1c0,0.552,0.447,1,1,1h1
	v1c0,0.552,0.447,1,1,1h1v2c0,0.552,0.447,1,1,1h1v1c0,0.552,0.447,1,1,1h1v6.382l-0.581,0.29L10,8.747V2.171H12z M9,18.171H8v-1
	c0-0.552-0.447-1-1-1H6v-1c0-0.552-0.447-1-1-1H4v-1c0-0.552-0.447-1-1-1H2v-2h6.596L18,19.252v0.528l-0.131,0.394L10,20.203v-1.032
	C10,18.618,9.553,18.171,9,18.171z"/>
<g>
</g>
<g>
</g>
<g>
</g>
<g>
</g>
<g>
</g>
<g>
</g>
<g>
</g>
<g>
</g>
<g>
</g>
<g>
</g>
<g>
</g>
<g>
</g>
<g>
</g>
<g>
</g>
<g>
</g>
</svg>
