<?xml version="1.0" encoding="iso-8859-1"?>
<!-- Generator: Adobe Illustrator 18.0.0, SVG Export Plug-In . SVG Version: 6.00 Build 0)  -->
<!DOCTYPE svg PUBLIC "-//W3C//DTD SVG 1.1//EN" "http://www.w3.org/Graphics/SVG/1.1/DTD/svg11.dtd">
<svg version="1.1" id="Capa_1" xmlns="http://www.w3.org/2000/svg" xmlns:xlink="http://www.w3.org/1999/xlink" x="0px" y="0px"
	 viewBox="0 0 60.17 60.17" style="enable-background:new 0 0 60.17 60.17;" xml:space="preserve">
<path d="M60.119,18.981c-0.185-1.023-0.861-1.891-1.807-2.321c-0.08-0.036-0.164-0.062-0.25-0.076L47.86,14.882l4.969-4.969
	C53.584,9.158,54,8.153,54,7.085s-0.416-2.073-1.171-2.828S51.069,3.085,50,3.085s-2.073,0.417-2.828,1.172l-6.776,6.776
	l-2.88-6.006c-0.018-0.036-0.037-0.071-0.058-0.104c-0.466-0.732-1.228-1.207-2.09-1.301c-0.862-0.096-1.709,0.203-2.323,0.816
	l-8.691,8.691c-0.614,0.614-0.911,1.46-0.816,2.323c0.094,0.863,0.569,1.625,1.301,2.09c0.055,0.035,0.114,0.065,0.175,0.088
	l6.329,2.456l-30.17,30.17C0.416,51.012,0,52.017,0,53.085s0.416,2.073,1.171,2.828S2.931,57.085,4,57.085s2.073-0.417,2.828-1.172
	l29.175-29.175l0.01,11.565c0,0.064,0.006,0.128,0.019,0.192c0.22,1.118,0.965,1.973,1.993,2.286
	c0.277,0.084,0.561,0.125,0.844,0.125c0.792,0,1.575-0.321,2.169-0.917l18.203-18.203C59.977,21.052,60.305,20.003,60.119,18.981z
	 M25.845,15.808c-0.243-0.187-0.305-0.436-0.32-0.575c-0.017-0.15-0.007-0.44,0.243-0.69l8.691-8.691
	c0.25-0.25,0.538-0.257,0.69-0.243c0.24,0.027,0.454,0.152,0.594,0.347l3.153,6.577l-6.008,6.009L25.845,15.808z M5.414,54.499
	c-0.755,0.756-2.072,0.756-2.828,0C2.208,54.121,2,53.619,2,53.085s0.208-1.036,0.586-1.414l46-46
	C48.964,5.293,49.466,5.085,50,5.085s1.036,0.208,1.414,0.586S52,6.551,52,7.085s-0.208,1.036-0.586,1.414L5.414,54.499z
	 M57.828,20.374L39.625,38.576c-0.284,0.284-0.674,0.396-1.017,0.292c-0.212-0.064-0.481-0.235-0.594-0.675l-0.011-12.954
	c0-0.144-0.031-0.283-0.089-0.411l8.208-8.208l11.462,1.912c0.3,0.171,0.505,0.46,0.567,0.806
	C58.221,19.72,58.103,20.098,57.828,20.374z"/>
<g>
</g>
<g>
</g>
<g>
</g>
<g>
</g>
<g>
</g>
<g>
</g>
<g>
</g>
<g>
</g>
<g>
</g>
<g>
</g>
<g>
</g>
<g>
</g>
<g>
</g>
<g>
</g>
<g>
</g>
</svg>
