<?xml version="1.0" encoding="iso-8859-1"?>
<!-- Generator: Adobe Illustrator 18.0.0, SVG Export Plug-In . SVG Version: 6.00 Build 0)  -->
<!DOCTYPE svg PUBLIC "-//W3C//DTD SVG 1.1//EN" "http://www.w3.org/Graphics/SVG/1.1/DTD/svg11.dtd">
<svg version="1.1" id="Capa_1" xmlns="http://www.w3.org/2000/svg" xmlns:xlink="http://www.w3.org/1999/xlink" x="0px" y="0px"
	 viewBox="0 0 58.256 58.256" style="enable-background:new 0 0 58.256 58.256;" xml:space="preserve">
<path d="M56.102,36.716c-2.867-2.867-7.533-2.867-10.4,0c-0.346,0.346-0.653,0.721-0.92,1.121L20.419,13.475
	c0.401-0.268,0.776-0.575,1.121-0.92c2.867-2.867,2.867-7.533,0-10.4C20.151,0.765,18.305,0,16.34,0s-3.812,0.765-5.2,2.154
	C9.227,4.067,8.59,6.78,9.229,9.226c-0.604-0.158-1.233-0.24-1.876-0.24c-1.964,0-3.811,0.765-5.199,2.154S0,14.376,0,16.34
	s0.766,3.811,2.154,5.2c2.867,2.867,7.531,2.866,10.4,0c0.108-0.109,0.215-0.223,0.317-0.341l24.185,24.184
	c-0.118,0.104-0.231,0.209-0.341,0.319c-2.867,2.867-2.867,7.533,0,10.4c1.389,1.389,3.235,2.154,5.2,2.154
	c1.964,0,3.811-0.765,5.199-2.154c1.913-1.913,2.55-4.627,1.91-7.072c0.605,0.158,1.234,0.24,1.876,0.24
	c1.965,0,3.812-0.765,5.2-2.154s2.154-3.236,2.154-5.2C58.256,39.952,57.49,38.105,56.102,36.716z M54.688,45.702
	c-1.012,1.011-2.355,1.568-3.786,1.568s-2.774-0.557-3.784-1.567c-0.094-0.093-0.178-0.192-0.281-0.312
	c-0.182-0.211-0.462-0.319-0.74-0.328c-0.324-0.016-0.566,0.116-0.762,0.314c-0.194,0.197-0.293,0.471-0.282,0.748
	c0.012,0.276,0.142,0.541,0.352,0.721c0.101,0.086,0.201,0.172,0.298,0.269c1.011,1.011,1.568,2.356,1.568,3.786
	s-0.558,2.775-1.568,3.786c-2.088,2.088-5.483,2.087-7.571,0c-2.088-2.088-2.088-5.484,0-7.572c0.283-0.283,0.613-0.542,0.979-0.767
	c0.261-0.161,0.434-0.431,0.469-0.735c0.036-0.304-0.069-0.607-0.286-0.823L13.466,18.964c-0.188-0.188-0.443-0.293-0.707-0.293
	c-0.038,0-0.077,0.002-0.115,0.007c-0.304,0.035-0.574,0.208-0.735,0.467c-0.228,0.368-0.486,0.698-0.769,0.981
	c-2.086,2.085-5.481,2.088-7.571,0c-2.088-2.088-2.088-5.484,0-7.572c1.012-1.011,2.355-1.568,3.785-1.568
	c1.431,0,2.774,0.557,3.787,1.57c0.099,0.098,0.186,0.201,0.273,0.304c0.182,0.212,0.46,0.321,0.739,0.332
	c0.255,0.009,0.565-0.112,0.764-0.31c0.197-0.197,0.303-0.467,0.292-0.746s-0.137-0.54-0.349-0.721
	c-0.104-0.089-0.209-0.179-0.307-0.276c-2.088-2.087-2.088-5.484,0-7.572c2.088-2.088,5.484-2.088,7.572,0
	c2.088,2.087,2.088,5.484,0,7.572c-0.502,0.502-1.09,0.895-1.747,1.165c-0.31,0.127-0.534,0.401-0.6,0.729
	c-0.065,0.328,0.037,0.667,0.273,0.903l26.267,26.267c0.236,0.236,0.577,0.339,0.903,0.273c0.328-0.066,0.602-0.292,0.729-0.601
	c0.269-0.654,0.66-1.242,1.164-1.746c2.088-2.088,5.484-2.088,7.572,0C56.775,40.217,56.775,43.614,54.688,45.702z"/>
<g>
</g>
<g>
</g>
<g>
</g>
<g>
</g>
<g>
</g>
<g>
</g>
<g>
</g>
<g>
</g>
<g>
</g>
<g>
</g>
<g>
</g>
<g>
</g>
<g>
</g>
<g>
</g>
<g>
</g>
</svg>
