<?xml version="1.0" encoding="iso-8859-1"?>
<!-- Generator: Adobe Illustrator 18.0.0, SVG Export Plug-In . SVG Version: 6.00 Build 0)  -->
<!DOCTYPE svg PUBLIC "-//W3C//DTD SVG 1.1//EN" "http://www.w3.org/Graphics/SVG/1.1/DTD/svg11.dtd">
<svg version="1.1" id="Capa_1" xmlns="http://www.w3.org/2000/svg" xmlns:xlink="http://www.w3.org/1999/xlink" x="0px" y="0px"
	 viewBox="0 0 57.995 57.995" style="enable-background:new 0 0 57.995 57.995;" xml:space="preserve">
<path d="M56.504,47.204l-2.442,0.034c-0.025-0.009-0.065-0.043-0.066-0.006v-7c0.553,0,1-0.448,1-1v-5h1c0.553,0,1-0.448,1-1v-11
	c0-1.047-0.953-2-2-2h-4.858c0-0.438-0.084-0.869-0.204-1.293c-0.214-0.796-0.614-1.531-1.212-2.129l-0.056-0.056
	c-0.001-0.001-0.001-0.002-0.002-0.003l-8.069-8.069l-0.059-0.059c-0.672-0.672-1.498-1.092-2.364-1.276
	c-0.39-0.104-0.784-0.179-1.175-0.197V2.91c0-1.054-0.857-1.912-1.912-1.912H24.995c-1.141,0-2,0.759-1.999,1.75
	c-0.009,0.064-0.075,0.183-0.135,0.25h-4.866c-0.553,0-1,0.448-1,1v1H12.08l-0.058-2.13c-0.022-1.031-0.88-1.87-1.911-1.87H1.907
	c-0.519,0-1.005,0.205-1.367,0.576C0.177,1.945-0.016,2.435,0.001,3.037l0.994,9.307c0.025,1.047,0.865,1.868,1.912,1.868h1.654
	l38.434,38.434v2.352c0,1.042,0.924,1.976,2,2l10.978,0c0.013,0,0.026,0,0.039,0c0.491,0,0.985-0.208,1.361-0.576
	c0.396-0.386,0.622-0.905,0.622-1.424v-5.807C57.996,47.895,57.506,47.227,56.504,47.204z M43.875,23.828
	c-0.097-0.139-0.225-0.257-0.383-0.333c-0.32-0.153-0.579-0.33-0.819-0.569l-2.99-2.746l-5.534-5.533
	c-0.974-0.975-0.974-2.561,0-3.536l1.074-1.074c0.537-0.537,1.243-0.806,1.949-0.806c0.234,0,0.466,0.041,0.694,0.1
	c0.367,0.12,0.719,0.292,1.012,0.508c0.012,0.01,0.024,0.02,0.036,0.03c0.094,0.072,0.184,0.146,0.264,0.226l8.071,8.071
	c0.187,0.187,0.344,0.393,0.474,0.61c0.007,0.012,0.013,0.025,0.02,0.037c0.103,0.178,0.176,0.367,0.239,0.557
	c0.021,0.069,0.047,0.136,0.063,0.206c0.02,0.08,0.022,0.161,0.034,0.242c0.015,0.117,0.034,0.233,0.034,0.353
	c0,0.736-0.287,1.428-0.808,1.949l-1.074,1.074C45.616,23.812,44.7,24.018,43.875,23.828z M43.995,34.232v6c0,0.552,0.447,1,1,1h1v6
	H45.41L11.152,12.998h6.843v1c0,0.552,0.447,1,1,1h4.778c0.029,0.047,0.055,0.11,0.057,0.146v0.285c0,1.113,1.124,1.803,2.165,1.803
	h7.525c0.162,0.167,0.341,0.324,0.508,0.472c0.1,0.087,0.192,0.168,0.29,0.264l3.968,3.644l2.997,2.996
	c0.235,0.235,0.496,0.434,0.77,0.609l-0.058,7.014C41.995,33.297,42.93,34.232,43.995,34.232z M2.008,2.998h8.018l0.058,2.132
	c0.024,1.03,0.882,1.868,1.912,1.868h6c0.553,0,1-0.448,1-1v-1h4c1.023,0,1.863-1.043,1.984-2c0.005,0,0.011,0,0.016,0h10v4.785
	c-0.425,0.219-0.831,0.484-1.187,0.84l-1.074,1.074c-1.5,1.5-1.706,3.801-0.641,5.535h-6.099c-0.054,0-0.114-0.013-0.165-0.029
	v-0.059c0-1.015-0.785-2.146-1.912-2.146h-3.923v-1c0-0.552-0.447-1-1-1H9.929c-0.269,0-0.525,0.108-0.714,0.299
	c-0.188,0.192-0.291,0.451-0.286,0.719l0.004,0.195H2.989L2.008,2.998z M7.389,14.211h2.148l33.584,33.561
	c-0.073,0.139-0.126,0.291-0.126,0.459v1.586L7.389,14.211z M55.995,49.232v5.766l-10.934,0.006
	c-0.017-0.006-0.04-0.025-0.054-0.025c-0.008,0-0.013,0.005-0.013,0.019v-5.766h2c0.553,0,1-0.448,1-1v-8c0-0.552-0.447-1-1-1h-1v-5
	c0-1.042-0.945-1.992-1.986-1.992c-0.005,0-0.009,0-0.014,0l0.052-6.354c0.139,0.013,0.276,0.041,0.417,0.041
	c1.202,0,2.332-0.468,3.182-1.318l1.074-1.074c0.383-0.383,0.676-0.829,0.906-1.303h5.369v10h-1c-0.553,0-1,0.448-1,1v5
	c-0.553,0-1,0.448-1,1v8c0,1.042,0.924,1.976,2.011,2l1.989-0.022C55.995,49.216,55.995,49.224,55.995,49.232z"/>
<g>
</g>
<g>
</g>
<g>
</g>
<g>
</g>
<g>
</g>
<g>
</g>
<g>
</g>
<g>
</g>
<g>
</g>
<g>
</g>
<g>
</g>
<g>
</g>
<g>
</g>
<g>
</g>
<g>
</g>
</svg>
