<?xml version="1.0" encoding="iso-8859-1"?>
<!-- Generator: Adobe Illustrator 18.0.0, SVG Export Plug-In . SVG Version: 6.00 Build 0)  -->
<!DOCTYPE svg PUBLIC "-//W3C//DTD SVG 1.1//EN" "http://www.w3.org/Graphics/SVG/1.1/DTD/svg11.dtd">
<svg version="1.1" id="Capa_1" xmlns="http://www.w3.org/2000/svg" xmlns:xlink="http://www.w3.org/1999/xlink" x="0px" y="0px"
	 viewBox="0 0 60 60" style="enable-background:new 0 0 60 60;" xml:space="preserve">
<g>
	<path d="M49,29h-2h-8H21H10H8H0v8v2v6v2v7h8h2h11h18h8h2h11v-7v-2v-6v-2v-8H49z M47,31v6h-2h-4v-6H47z M52,45h-3h-2v-6h2h3V45z
		 M41,39h4v6h-4V39z M19,31v6h-4h-2h-3v-6H19z M19,45h-4v-6h4V45z M8,39h2h3v6h-3H8V39z M2,31h6v6H6H2V31z M2,39h4v6H2V39z M2,52v-5
		h4h2v5H2z M10,52v-5h3h2h4v5H10z M21,52v-5v-2v-6v-2v-6h18v6v2v6v2v5H21z M41,52v-5h4h2v5H41z M58,52h-9v-5h3h2h4V52z M58,45h-4v-6
		h4V45z M54,37h-2h-3v-6h9v6H54z"/>
	<path d="M32.342,33h-3.958C26.455,33,25,34.376,25,36.2V38h2v-1.8c0-0.825,0.717-1.2,1.383-1.2h3.958C33.126,35,34,35.493,34,36.2
		v2.383C34,38.708,33.805,39,32,39c-1.738,0-3,1.521-3,3.617V45h2v-2.383C31,41.967,31.266,41,32,41c0.989,0,4,0,4-2.417V36.2
		C36,34.224,34.101,33,32.342,33z"/>
	<rect x="29" y="47" width="2" height="2"/>
	<path d="M48,22c4.411,0,8-3.589,8-8s-3.589-8-8-8s-8,3.589-8,8S43.589,22,48,22z M48,8c3.309,0,6,2.691,6,6s-2.691,6-6,6
		s-6-2.691-6-6S44.691,8,48,8z"/>
	<rect x="47" y="11" width="2" height="6"/>
</g>
<g>
</g>
<g>
</g>
<g>
</g>
<g>
</g>
<g>
</g>
<g>
</g>
<g>
</g>
<g>
</g>
<g>
</g>
<g>
</g>
<g>
</g>
<g>
</g>
<g>
</g>
<g>
</g>
<g>
</g>
</svg>
