<?xml version="1.0" encoding="iso-8859-1"?>
<!-- Generator: Adobe Illustrator 18.0.0, SVG Export Plug-In . SVG Version: 6.00 Build 0)  -->
<!DOCTYPE svg PUBLIC "-//W3C//DTD SVG 1.1//EN" "http://www.w3.org/Graphics/SVG/1.1/DTD/svg11.dtd">
<svg version="1.1" id="Capa_1" xmlns="http://www.w3.org/2000/svg" xmlns:xlink="http://www.w3.org/1999/xlink" x="0px" y="0px"
	 viewBox="0 0 56 56" style="enable-background:new 0 0 56 56;" xml:space="preserve">
<g>
	<path d="M52,21.5v-20H40v4h-6v-4H22v4h-6v-4H4v20H0v33h22h12h22v-33H52z M6,3.5h8v4h10v-4h8v4h10v-4h8v18h-6l0,9H34l0-9H22l0,9H12
		v-9H6V3.5z M24,52.5V39.41c0-1.053,0.857-1.91,1.91-1.91h4.18c1.053,0,1.91,0.857,1.91,1.91V52.5H24z M54,52.5H34V39.41
		c0-2.156-1.754-3.91-3.91-3.91h-4.18c-2.156,0-3.91,1.754-3.91,3.91V52.5H2v-29h2h6v9h14l0-9h8l0,9h14l0-9h6h2V52.5z"/>
	<path d="M23,10.5h-8v8h8V10.5z M21,16.5h-4v-4h4V16.5z"/>
	<path d="M41,10.5h-8v8h8V10.5z M39,16.5h-4v-4h4V16.5z"/>
	<path d="M7,44.5h8v-8H7V44.5z M9,38.5h4v4H9V38.5z"/>
	<path d="M41,44.5h8v-8h-8V44.5z M43,38.5h4v4h-4V38.5z"/>
</g>
<g>
</g>
<g>
</g>
<g>
</g>
<g>
</g>
<g>
</g>
<g>
</g>
<g>
</g>
<g>
</g>
<g>
</g>
<g>
</g>
<g>
</g>
<g>
</g>
<g>
</g>
<g>
</g>
<g>
</g>
</svg>
