<?xml version="1.0" encoding="iso-8859-1"?>
<!-- Generator: Adobe Illustrator 18.0.0, SVG Export Plug-In . SVG Version: 6.00 Build 0)  -->
<!DOCTYPE svg PUBLIC "-//W3C//DTD SVG 1.1//EN" "http://www.w3.org/Graphics/SVG/1.1/DTD/svg11.dtd">
<svg version="1.1" id="Capa_1" xmlns="http://www.w3.org/2000/svg" xmlns:xlink="http://www.w3.org/1999/xlink" x="0px" y="0px"
	 viewBox="0 0 59.325 59.325" style="enable-background:new 0 0 59.325 59.325;" xml:space="preserve">
<g>
	<path d="M57.507,29.224c-0.738-0.317-1.553-0.326-2.297-0.029c-0.744,0.298-1.328,0.867-1.644,1.604l-0.219,0.511
		c-0.407-0.549-0.946-1.011-1.618-1.3c-1.367-0.585-2.875-0.332-3.986,0.507l-19.609-6.381l0.159-0.372v-0.001
		c0.761-1.774-0.063-3.836-1.837-4.596c-0.858-0.367-1.809-0.382-2.679-0.034c-0.638,0.255-1.172,0.683-1.558,1.232l-5.029-3.621
		c-0.616-0.445-1.391-0.583-2.121-0.378c-0.731,0.203-1.323,0.721-1.621,1.417l-0.845,1.97l-1.556-0.668l0.247-0.576
		c0.255-0.593,0.267-1.269,0.032-1.854c-0.223-0.557-0.643-0.99-1.181-1.221l-1.913-0.821c-0.57-0.245-1.203-0.237-1.785,0.022
		c-0.552,0.246-0.99,0.695-1.234,1.264l-0.247,0.577L4.504,16.28c-0.54-0.23-1.142-0.236-1.699-0.015
		c-0.585,0.233-1.066,0.708-1.32,1.301l-1.283,2.991c-0.244,0.568-0.268,1.196-0.065,1.767c0.212,0.599,0.643,1.063,1.213,1.308
		l0.463,0.198l-0.247,0.577c-0.516,1.202-0.001,2.581,1.148,3.074l1.913,0.82c0.277,0.119,0.569,0.179,0.862,0.179
		c0.312,0,0.624-0.067,0.922-0.2c0.553-0.246,0.991-0.695,1.235-1.264l0.247-0.577l1.557,0.668l-0.845,1.969
		c-0.3,0.697-0.267,1.482,0.091,2.152c0.356,0.67,0.989,1.135,1.735,1.275l6.09,1.15c-0.131,0.658-0.074,1.339,0.181,1.977
		c0.347,0.869,1.012,1.55,1.87,1.918c0.449,0.192,0.916,0.283,1.375,0.283c1.358,0,2.652-0.795,3.221-2.119l0.16-0.373l18.137,9.812
		c0.156,1.383,1.012,2.651,2.38,3.239c0.513,0.22,1.046,0.324,1.571,0.324c0.162,0,0.321-0.016,0.481-0.035l-0.214,0.499
		c-0.316,0.737-0.326,1.553-0.029,2.297c0.298,0.744,0.867,1.328,1.604,1.644c0.38,0.163,0.78,0.244,1.182,0.244
		c0.377,0,0.754-0.071,1.114-0.216c0.745-0.298,1.328-0.867,1.644-1.603l7.886-18.38C59.734,31.644,59.027,29.876,57.507,29.224z
		 M41.783,43.05l-5.299-2.867l4.226-9.851l5.729,1.864l-3.608,8.411L41.783,43.05z M34.717,39.227l-1.766-0.956l3.939-9.183
		l1.91,0.622L34.717,39.227z M6.844,23.812l-1.036,2.415c-0.044,0.104-0.122,0.187-0.212,0.227c-0.045,0.02-0.11,0.04-0.182,0.01
		l-1.913-0.82c-0.116-0.05-0.186-0.246-0.099-0.447l1.036-2.415l-2.302-0.987c-0.065-0.028-0.099-0.09-0.115-0.137
		c-0.033-0.094-0.026-0.207,0.018-0.311l1.283-2.992c0.047-0.108,0.129-0.193,0.225-0.231c0.033-0.014,0.064-0.02,0.094-0.02
		c0.025,0,0.051,0.005,0.073,0.015l2.301,0.987l1.036-2.415c0.045-0.104,0.122-0.187,0.213-0.228c0.046-0.021,0.115-0.038,0.18-0.01
		l1.914,0.821c0.05,0.021,0.087,0.063,0.111,0.125c0.039,0.096,0.034,0.214-0.013,0.322L8.42,20.135l3.395,1.457l-0.788,1.838
		l-0.788,1.838L6.844,23.812z M10.461,30.288c-0.041-0.077-0.098-0.235-0.018-0.423l1.608-3.748l2.391-5.573l-0.001,0l0.845-1.97
		c0.08-0.188,0.234-0.255,0.318-0.278c0.034-0.01,0.081-0.019,0.135-0.019c0.083,0,0.183,0.021,0.283,0.093l5.323,3.833l-0.58,1.352
		l-3.518,8.202l-6.446-1.217C10.601,30.5,10.502,30.365,10.461,30.288z M19.36,35.71c-0.368-0.158-0.652-0.45-0.801-0.822
		c-0.149-0.371-0.144-0.778,0.013-1.145l5.126-11.95c0.158-0.368,0.45-0.653,0.822-0.801c0.18-0.072,0.368-0.107,0.557-0.107
		c0.2,0,0.401,0.041,0.592,0.122c0.368,0.158,0.652,0.45,0.801,0.821c0.149,0.372,0.145,0.78-0.014,1.149l-0.231,0.538l0,0
		l-3.723,8.678l-1.172,2.73C21.004,35.684,20.121,36.035,19.36,35.71z M24.628,32.308l2.714-6.326l7.638,2.486l-3.795,8.848
		l-7.065-3.823L24.628,32.308z M44.633,46.552c-1.014-0.435-1.484-1.613-1.05-2.626l4.331-10.097l0.4-0.931
		c0.325-0.758,1.064-1.212,1.841-1.212c0.263,0,0.529,0.053,0.785,0.162c1.012,0.434,1.482,1.607,1.053,2.62l-4.735,11.037
		C46.822,46.517,45.644,46.988,44.633,46.552z M57.244,32.375l-7.886,18.381c-0.105,0.245-0.3,0.435-0.548,0.534
		c-0.249,0.1-0.521,0.096-0.765-0.01c-0.246-0.105-0.436-0.3-0.535-0.548c-0.099-0.248-0.096-0.521,0.01-0.766l1.576-3.673
		c0-0.001,0.001-0.002,0.002-0.003l4.731-11.028v-0.001c0,0,0-0.002,0.001-0.002l1.575-3.672c0.162-0.379,0.532-0.606,0.921-0.606
		c0.131,0,0.265,0.026,0.393,0.081C57.225,31.28,57.461,31.869,57.244,32.375z"/>
	<path d="M26.377,17.74c0.238,0,0.478-0.085,0.668-0.256l3.326-2.989c0.411-0.369,0.445-1.002,0.076-1.412
		c-0.372-0.413-1.004-0.443-1.412-0.076l-3.326,2.989c-0.411,0.369-0.445,1.002-0.076,1.412
		C25.831,17.628,26.103,17.74,26.377,17.74z"/>
	<path d="M32.999,11.362c0.238,0,0.478-0.085,0.668-0.256l3.326-2.989c0.411-0.369,0.445-1.002,0.076-1.412
		c-0.371-0.414-1.004-0.443-1.412-0.076l-3.326,2.989c-0.411,0.369-0.445,1.002-0.076,1.412
		C32.453,11.25,32.725,11.362,32.999,11.362z"/>
	<path d="M17.999,11.351c0.242,0,0.485-0.088,0.678-0.265l3.676-3.39c0.406-0.375,0.432-1.007,0.058-1.413s-1.006-0.431-1.413-0.058
		l-3.676,3.39c-0.406,0.375-0.432,1.007-0.058,1.413C17.461,11.243,17.729,11.351,17.999,11.351z"/>
	<path d="M27.108,10.46c0.228,0,0.457-0.077,0.645-0.236l1.527-1.291c0.422-0.356,0.475-0.987,0.118-1.409s-0.987-0.476-1.409-0.118
		l-1.527,1.291c-0.422,0.356-0.475,0.987-0.118,1.409C26.542,10.34,26.824,10.46,27.108,10.46z"/>
	<path d="M19.47,15.916c0.198,0.234,0.48,0.354,0.765,0.354c0.228,0,0.457-0.077,0.645-0.236l3.818-3.229
		c0.422-0.356,0.475-0.987,0.118-1.409s-0.987-0.476-1.409-0.118l-3.818,3.229C19.167,14.864,19.114,15.495,19.47,15.916z"/>
	<path d="M37.461,13.999c0.197,0.225,0.474,0.34,0.751,0.34c0.234,0,0.47-0.082,0.66-0.249l1.113-0.978
		c0.415-0.364,0.456-0.996,0.091-1.411c-0.364-0.414-0.996-0.455-1.411-0.091l-1.113,0.978
		C37.136,12.953,37.095,13.584,37.461,13.999z"/>
	<path d="M30.699,19.939c0.197,0.225,0.474,0.34,0.751,0.34c0.234,0,0.47-0.082,0.66-0.249l3.757-3.3
		c0.415-0.364,0.456-0.996,0.091-1.411c-0.364-0.414-0.996-0.455-1.411-0.091l-3.757,3.3C30.375,18.892,30.334,19.524,30.699,19.939
		z"/>
	<path d="M36.365,20.733c-0.411,0.369-0.445,1.002-0.076,1.412c0.198,0.221,0.471,0.332,0.744,0.332
		c0.238,0,0.478-0.085,0.668-0.256l3.326-2.989c0.411-0.369,0.445-1.002,0.076-1.412c-0.372-0.414-1.004-0.443-1.412-0.076
		L36.365,20.733z"/>
</g>
<g>
</g>
<g>
</g>
<g>
</g>
<g>
</g>
<g>
</g>
<g>
</g>
<g>
</g>
<g>
</g>
<g>
</g>
<g>
</g>
<g>
</g>
<g>
</g>
<g>
</g>
<g>
</g>
<g>
</g>
</svg>
