<?xml version="1.0" encoding="iso-8859-1"?>
<!-- Generator: Adobe Illustrator 18.0.0, SVG Export Plug-In . SVG Version: 6.00 Build 0)  -->
<!DOCTYPE svg PUBLIC "-//W3C//DTD SVG 1.1//EN" "http://www.w3.org/Graphics/SVG/1.1/DTD/svg11.dtd">
<svg version="1.1" id="Capa_1" xmlns="http://www.w3.org/2000/svg" xmlns:xlink="http://www.w3.org/1999/xlink" x="0px" y="0px"
	 viewBox="0 0 56 56" style="enable-background:new 0 0 56 56;" xml:space="preserve">
<path d="M38,0h-2H20h-2H0v18v2v16v2v18h18h2h16h2h18V38v-2V20v-2V0H38z M36,49.586L31.586,54h-2.172L36,47.414V49.586z M36,44.586
	L26.586,54h-2.172L36,42.414V44.586z M18,26.586L8.586,36H6.414L18,24.414V26.586z M18,29.414v2.172L13.586,36h-2.172L18,29.414z
	 M18,34.414V36h-1.586L18,34.414z M20,43.414L25.414,38h2.172L20,45.586V43.414z M20,40.586V38h2.586L20,40.586z M20,48.414
	L30.414,38h2.172L20,50.586V48.414z M20,36V20h16v16H20z M20,7.414L25.414,2h2.172L20,9.586V7.414z M20,12.414L30.414,2h2.172
	L20,14.586V12.414z M36,13.586L31.586,18h-2.172L36,11.414V13.586z M36,8.586L26.586,18h-2.172L36,6.414V8.586z M38,30.414
	L48.414,20h2.172L38,32.586V30.414z M38,27.586v-2.172L43.414,20h2.172L38,27.586z M38,22.586V20h2.586L38,22.586z M34.414,18
	L36,16.414V18H34.414z M36,3.586L21.586,18H20v-0.586L35.414,2H36V3.586z M22.586,2L20,4.586V2H22.586z M2,2h16v16H2V2z M2,25.414
	L7.414,20h2.172L2,27.586V25.414z M2,30.414L12.414,20h2.172L2,32.586V30.414z M4.586,20L2,22.586V20H4.586z M2,35.414L17.414,20H18
	v1.586L3.586,36H2V35.414z M18,54H2V38h16V54z M20,53.414L35.414,38H36v1.586L21.586,54H20V53.414z M34.414,54L36,52.414V54H34.414z
	 M54,54H38V38h16V54z M54,31.586L49.586,36h-2.172L54,29.414V31.586z M54,26.586L44.586,36h-2.172L54,24.414V26.586z M52.414,36
	L54,34.414V36H52.414z M54,21.586L39.586,36H38v-0.586L53.414,20H54V21.586z M38,18V2h16v16H38z"/>
<g>
</g>
<g>
</g>
<g>
</g>
<g>
</g>
<g>
</g>
<g>
</g>
<g>
</g>
<g>
</g>
<g>
</g>
<g>
</g>
<g>
</g>
<g>
</g>
<g>
</g>
<g>
</g>
<g>
</g>
</svg>
