<?xml version="1.0" encoding="iso-8859-1"?>
<!-- Generator: Adobe Illustrator 18.0.0, SVG Export Plug-In . SVG Version: 6.00 Build 0)  -->
<!DOCTYPE svg PUBLIC "-//W3C//DTD SVG 1.1//EN" "http://www.w3.org/Graphics/SVG/1.1/DTD/svg11.dtd">
<svg version="1.1" id="Capa_1" xmlns="http://www.w3.org/2000/svg" xmlns:xlink="http://www.w3.org/1999/xlink" x="0px" y="0px"
	 viewBox="0 0 60 60" style="enable-background:new 0 0 60 60;" xml:space="preserve">
<g>
	<path d="M48,19.5v-2.051c1.692-0.245,3-1.691,3-3.449c0-1.93-1.57-3.5-3.5-3.5h-5c-1.93,0-3.5,1.57-3.5,3.5
		c0,1.758,1.308,3.204,3,3.449V19.5H18v-2.051c1.692-0.245,3-1.691,3-3.449c0-1.93-1.57-3.5-3.5-3.5h-5C10.57,10.5,9,12.07,9,14
		c0,1.758,1.308,3.204,3,3.449V19.5H0v30h60v-30H48z M41,14c0-0.827,0.673-1.5,1.5-1.5h5c0.827,0,1.5,0.673,1.5,1.5
		s-0.673,1.5-1.5,1.5h-5C41.673,15.5,41,14.827,41,14z M44,17.5h2v2h-2V17.5z M11,14c0-0.827,0.673-1.5,1.5-1.5h5
		c0.827,0,1.5,0.673,1.5,1.5s-0.673,1.5-1.5,1.5h-5C11.673,15.5,11,14.827,11,14z M14,17.5h2v2h-2V17.5z M2,21.5h10h6h11v26H2V21.5z
		 M58,47.5H31v-26h11h6h10V47.5z"/>
	<path d="M23.506,42.955C25.664,40.784,27,37.796,27,34.5s-1.336-6.284-3.494-8.455c-0.009-0.009-0.011-0.021-0.02-0.03
		s-0.021-0.012-0.031-0.02C21.284,23.836,18.296,22.5,15,22.5s-6.284,1.336-8.455,3.494c-0.009,0.009-0.021,0.011-0.031,0.02
		s-0.012,0.021-0.02,0.03C4.336,28.216,3,31.204,3,34.5s1.336,6.284,3.494,8.455c0.009,0.009,0.011,0.021,0.02,0.03
		s0.021,0.012,0.031,0.02C8.716,45.164,11.704,46.5,15,46.5s6.284-1.336,8.455-3.494c0.009-0.009,0.021-0.011,0.031-0.02
		S23.497,42.964,23.506,42.955z M21.364,39.45c-0.391-0.391-1.023-0.391-1.414,0s-0.391,1.023,0,1.414l1.374,1.374
		c-1.482,1.213-3.316,2.011-5.324,2.211V42.5c0-0.553-0.447-1-1-1s-1,0.447-1,1v1.949c-2.008-0.2-3.842-0.998-5.324-2.211
		l1.374-1.374c0.391-0.391,0.391-1.023,0-1.414s-1.023-0.391-1.414,0l-1.374,1.374c-1.213-1.482-2.011-3.316-2.211-5.324H7
		c0.553,0,1-0.447,1-1s-0.447-1-1-1H5.051c0.2-2.008,0.998-3.842,2.211-5.324l1.374,1.374c0.195,0.195,0.451,0.293,0.707,0.293
		s0.512-0.098,0.707-0.293c0.391-0.391,0.391-1.023,0-1.414l-1.374-1.374c1.482-1.213,3.316-2.011,5.324-2.211V26.5
		c0,0.553,0.447,1,1,1s1-0.447,1-1v-1.949c2.008,0.2,3.842,0.998,5.324,2.211l-1.374,1.374c-0.391,0.391-0.391,1.023,0,1.414
		c0.195,0.195,0.451,0.293,0.707,0.293s0.512-0.098,0.707-0.293l1.374-1.374c1.213,1.482,2.011,3.316,2.211,5.324H23
		c-0.553,0-1,0.447-1,1s0.447,1,1,1h1.949c-0.2,2.008-0.998,3.842-2.211,5.324L21.364,39.45z"/>
	<path d="M53.455,25.994C51.284,23.836,48.296,22.5,45,22.5s-6.284,1.336-8.455,3.494c-0.009,0.009-0.021,0.011-0.031,0.02
		s-0.012,0.021-0.02,0.03C34.336,28.216,33,31.204,33,34.5s1.336,6.284,3.494,8.455c0.009,0.009,0.011,0.021,0.02,0.03
		s0.021,0.012,0.031,0.02C38.716,45.164,41.704,46.5,45,46.5s6.284-1.336,8.455-3.494c0.009-0.009,0.021-0.011,0.031-0.02
		s0.012-0.021,0.02-0.03C55.664,40.784,57,37.796,57,34.5s-1.336-6.284-3.494-8.455c-0.009-0.009-0.011-0.021-0.02-0.03
		S53.464,26.003,53.455,25.994z M54.949,33.5H53c-0.553,0-1,0.447-1,1s0.447,1,1,1h1.949c-0.2,2.008-0.998,3.842-2.211,5.324
		l-1.374-1.374c-0.391-0.391-1.023-0.391-1.414,0s-0.391,1.023,0,1.414l1.374,1.374c-1.482,1.213-3.316,2.011-5.324,2.211V42.5
		c0-0.553-0.447-1-1-1s-1,0.447-1,1v1.949c-2.008-0.2-3.842-0.998-5.324-2.211l1.374-1.374c0.391-0.391,0.391-1.023,0-1.414
		s-1.023-0.391-1.414,0l-1.374,1.374c-1.213-1.482-2.011-3.316-2.211-5.324H37c0.553,0,1-0.447,1-1s-0.447-1-1-1h-1.949
		c0.2-2.008,0.998-3.842,2.211-5.324l1.374,1.374c0.195,0.195,0.451,0.293,0.707,0.293s0.512-0.098,0.707-0.293
		c0.391-0.391,0.391-1.023,0-1.414l-1.374-1.374c1.482-1.213,3.316-2.011,5.324-2.211V26.5c0,0.553,0.447,1,1,1s1-0.447,1-1v-1.949
		c2.008,0.2,3.842,0.998,5.324,2.211l-1.374,1.374c-0.391,0.391-0.391,1.023,0,1.414c0.195,0.195,0.451,0.293,0.707,0.293
		s0.512-0.098,0.707-0.293l1.374-1.374C53.951,29.658,54.749,31.492,54.949,33.5z"/>
	<path d="M15,28.844l-2.828,2.828C11.416,32.427,11,33.432,11,34.5s0.416,2.073,1.172,2.828C12.927,38.084,13.932,38.5,15,38.5
		s2.073-0.416,2.828-1.172C18.584,36.573,19,35.568,19,34.5s-0.416-2.073-1.172-2.828L15,28.844z M16.414,35.914
		c-0.756,0.756-2.072,0.756-2.828,0C13.208,35.536,13,35.034,13,34.5s0.208-1.036,0.586-1.414L15,31.672l1.414,1.414
		C16.792,33.464,17,33.966,17,34.5S16.792,35.536,16.414,35.914z"/>
	<path d="M45,30.5c-2.206,0-4,1.794-4,4s1.794,4,4,4h4v-4C49,32.294,47.206,30.5,45,30.5z M47,36.5h-2c-1.103,0-2-0.897-2-2
		s0.897-2,2-2s2,0.897,2,2V36.5z"/>
</g>
<g>
</g>
<g>
</g>
<g>
</g>
<g>
</g>
<g>
</g>
<g>
</g>
<g>
</g>
<g>
</g>
<g>
</g>
<g>
</g>
<g>
</g>
<g>
</g>
<g>
</g>
<g>
</g>
<g>
</g>
</svg>
