<?xml version="1.0" encoding="iso-8859-1"?>
<!-- Generator: Adobe Illustrator 18.0.0, SVG Export Plug-In . SVG Version: 6.00 Build 0)  -->
<!DOCTYPE svg PUBLIC "-//W3C//DTD SVG 1.1//EN" "http://www.w3.org/Graphics/SVG/1.1/DTD/svg11.dtd">
<svg version="1.1" id="Capa_1" xmlns="http://www.w3.org/2000/svg" xmlns:xlink="http://www.w3.org/1999/xlink" x="0px" y="0px"
	 viewBox="0 0 60 60" style="enable-background:new 0 0 60 60;" xml:space="preserve">
<g>
	<path d="M54.273,24.129c-2.534-4.889-8.349-7.183-13.818-5.458c-0.206,0.064-0.428,0.135-0.663,0.211
		c0.731-1.55,1.212-2.924,1.474-3.753c1.725-5.475-0.571-11.287-5.459-13.82C34.038,0.392,32.528,0,30.756,0
		c-1.812,0-3.623,0.463-5.385,1.375c-4.889,2.534-7.184,8.347-5.459,13.82c0.419,1.328,0.88,2.709,1.443,4.069
		c-0.638-0.22-1.247-0.416-1.809-0.594c-5.475-1.726-11.286,0.57-13.82,5.458c-0.913,1.761-1.376,3.572-1.376,5.386
		c0,1.792,0.379,3.255,1.309,5.05c2.534,4.889,8.349,7.182,13.82,5.459c1.212-0.382,3.318-1.142,5.491-2.368l-2.396,21.232
		c-0.031,0.283,0.059,0.566,0.248,0.778C23.014,59.879,23.285,60,23.57,60h12.86c0.285,0,0.556-0.121,0.746-0.334
		c0.189-0.212,0.279-0.495,0.248-0.778l-2.396-21.232c2.173,1.226,4.279,1.985,5.491,2.368c5.481,1.724,11.287-0.571,13.82-5.459
		c0.917-1.769,1.309-3.278,1.309-5.05C55.649,27.701,55.186,25.89,54.273,24.129z M52.565,33.645
		c-2.053,3.957-6.972,5.881-11.443,4.471c-1.438-0.453-4.228-1.476-6.748-3.227c-0.321-0.224-0.745-0.238-1.083-0.037
		c-0.337,0.201-0.525,0.58-0.481,0.971L35.311,58H24.689l2.502-22.178c0.044-0.391-0.145-0.77-0.481-0.971s-0.761-0.187-1.083,0.037
		c-2.521,1.752-5.31,2.773-6.748,3.227c-4.468,1.408-9.391-0.512-11.443-4.471c-0.78-1.507-1.084-2.664-1.084-4.13
		c0-1.489,0.388-2.992,1.151-4.466c2.053-3.958,6.976-5.882,11.443-4.47c1.18,0.371,2.573,0.83,3.973,1.412
		c0.389,0.16,0.839,0.063,1.124-0.25c0.285-0.313,0.342-0.77,0.144-1.143c-1.019-1.913-1.738-4.017-2.365-6.005
		c-1.409-4.472,0.513-9.391,4.471-11.443C27.766,2.387,29.268,2,30.756,2c1.468,0,2.625,0.304,4.13,1.084
		c3.958,2.052,5.88,6.971,4.471,11.443c-0.359,1.14-1.162,3.386-2.501,5.622c-0.218,0.365-0.182,0.829,0.092,1.155
		c0.272,0.326,0.725,0.441,1.12,0.294c1.114-0.422,2.181-0.767,2.987-1.02c4.472-1.415,9.391,0.512,11.442,4.47
		c0.764,1.474,1.151,2.977,1.151,4.466C53.649,30.982,53.345,32.14,52.565,33.645z"/>
	<path d="M35.14,19.123c1.234-2.063,1.977-4.142,2.31-5.196c1.121-3.559-0.377-7.457-3.484-9.067C32.757,4.233,31.888,4,30.756,4
		c-1.164,0-2.356,0.312-3.544,0.926c-3.107,1.611-4.605,5.509-3.485,9.066c0.599,1.896,1.282,3.896,2.225,5.667
		c0.005,0.01,0.011,0.02,0.016,0.029l1.597,2.775c0.55,0.954,1.535,1.541,2.637,1.568c0.026,0,0.053,0.001,0.079,0.001
		c1.071,0,2.05-0.534,2.632-1.439L35.14,19.123z M31.228,21.514c-0.218,0.34-0.558,0.52-0.979,0.519
		c-0.403-0.01-0.75-0.216-0.951-0.566l-1.589-2.761c-0.862-1.625-1.507-3.515-2.074-5.314c-0.833-2.644,0.24-5.52,2.497-6.689
		C29.032,6.236,29.915,6,30.756,6c0.806,0,1.361,0.154,2.288,0.635c2.257,1.17,3.331,4.046,2.497,6.69
		c-0.306,0.972-0.988,2.883-2.102,4.744L31.228,21.514z"/>
	<path d="M26.267,26.509l-0.754-0.574c-2.047-1.558-4.264-2.741-6.59-3.515l-0.348-0.113c-3.561-1.122-7.457,0.377-9.067,3.484
		C8.882,26.999,8.649,27.868,8.649,29c0,1.164,0.312,2.356,0.926,3.544c1.251,2.413,3.88,3.855,6.658,3.855
		c0.8,0,1.612-0.12,2.408-0.37c0.705-0.223,1.424-0.457,2.139-0.711c1.853-0.659,3.654-1.593,5.355-2.775
		c0.992-0.688,1.576-1.776,1.603-2.983C27.764,28.353,27.228,27.24,26.267,26.509z M24.995,30.9
		c-1.556,1.081-3.199,1.934-4.885,2.533c-0.691,0.246-1.387,0.473-2.07,0.688c-2.644,0.835-5.52-0.241-6.688-2.497
		c-0.466-0.899-0.702-1.782-0.702-2.624c0-0.806,0.154-1.361,0.635-2.288c0.903-1.742,2.821-2.779,4.865-2.779
		c0.604,0,1.221,0.091,1.823,0.281l0.319,0.104c2.117,0.704,4.139,1.784,6.011,3.209l0.754,0.574
		c0.445,0.339,0.694,0.855,0.682,1.415C25.726,30.076,25.455,30.581,24.995,30.9z"/>
	<path d="M41.72,22.308l-0.345,0.111c-2.327,0.774-4.544,1.958-6.591,3.516l-0.754,0.574c-0.961,0.731-1.497,1.844-1.471,3.051
		c0.026,1.207,0.61,2.295,1.603,2.983c1.7,1.182,3.503,2.116,5.355,2.775c0.715,0.254,1.434,0.488,2.139,0.711
		c0.796,0.25,1.608,0.37,2.408,0.37c2.778,0,5.407-1.442,6.659-3.855c0.613-1.188,0.925-2.38,0.925-3.544
		c0-1.132-0.233-2.001-0.859-3.208C49.178,22.683,45.278,21.186,41.72,22.308z M48.948,31.624c-1.171,2.256-4.045,3.332-6.689,2.497
		c-0.684-0.215-1.379-0.441-2.07-0.688c-1.686-0.6-3.329-1.452-4.885-2.533c-0.46-0.319-0.731-0.824-0.743-1.385
		c-0.013-0.56,0.236-1.076,0.682-1.415l0.754-0.574c1.872-1.425,3.894-2.505,6.012-3.21l0.316-0.102
		c0.604-0.19,1.22-0.281,1.825-0.281c2.044,0,3.963,1.037,4.865,2.779c0.48,0.926,0.635,1.481,0.635,2.287
		C49.649,29.842,49.413,30.725,48.948,31.624z"/>
</g>
<g>
</g>
<g>
</g>
<g>
</g>
<g>
</g>
<g>
</g>
<g>
</g>
<g>
</g>
<g>
</g>
<g>
</g>
<g>
</g>
<g>
</g>
<g>
</g>
<g>
</g>
<g>
</g>
<g>
</g>
</svg>
