<?xml version="1.0" encoding="iso-8859-1"?>
<!-- Generator: Adobe Illustrator 18.0.0, SVG Export Plug-In . SVG Version: 6.00 Build 0)  -->
<!DOCTYPE svg PUBLIC "-//W3C//DTD SVG 1.1//EN" "http://www.w3.org/Graphics/SVG/1.1/DTD/svg11.dtd">
<svg version="1.1" id="Capa_1" xmlns="http://www.w3.org/2000/svg" xmlns:xlink="http://www.w3.org/1999/xlink" x="0px" y="0px"
	 viewBox="0 0 46 46" style="enable-background:new 0 0 46 46;" xml:space="preserve">
<g>
	<path d="M23,0C10.317,0,0,10.318,0,23s10.317,23,23,23s23-10.318,23-23S35.683,0,23,0z M23,44C11.421,44,2,34.58,2,23
		S11.421,2,23,2s21,9.42,21,21S34.579,44,23,44z"/>
	<path d="M23.745,11h-1.49C20.46,11,19,12.46,19,14.254v16.491C19,32.54,20.46,34,22.255,34h1.49C25.54,34,27,32.54,27,30.746
		V14.254C27,12.46,25.54,11,23.745,11z M25,30.746C25,31.438,24.437,32,23.745,32h-1.49C21.562,32,21,31.438,21,30.746V14.254
		C21,13.563,21.562,13,22.255,13h1.49C24.437,13,25,13.563,25,14.254V30.746z"/>
</g>
<g>
</g>
<g>
</g>
<g>
</g>
<g>
</g>
<g>
</g>
<g>
</g>
<g>
</g>
<g>
</g>
<g>
</g>
<g>
</g>
<g>
</g>
<g>
</g>
<g>
</g>
<g>
</g>
<g>
</g>
</svg>
