<?xml version="1.0" encoding="iso-8859-1"?>
<!-- Generator: Adobe Illustrator 18.0.0, SVG Export Plug-In . SVG Version: 6.00 Build 0)  -->
<!DOCTYPE svg PUBLIC "-//W3C//DTD SVG 1.1//EN" "http://www.w3.org/Graphics/SVG/1.1/DTD/svg11.dtd">
<svg version="1.1" id="Capa_1" xmlns="http://www.w3.org/2000/svg" xmlns:xlink="http://www.w3.org/1999/xlink" x="0px" y="0px"
	 viewBox="0 0 60.002 60.002" style="enable-background:new 0 0 60.002 60.002;" xml:space="preserve">
<g>
	<path d="M51.301,28.403l-21-28c-0.191-0.255-0.498-0.424-0.812-0.4c-0.318,0.004-0.616,0.159-0.802,0.419l-20,28
		c-0.247,0.345-0.249,0.808-0.006,1.154l21,30c0.188,0.268,0.493,0.427,0.819,0.427c0.004,0,0.008,0,0.012,0
		c0.33-0.004,0.637-0.171,0.82-0.445l20-30C51.569,29.204,51.556,28.741,51.301,28.403z M30.481,57.23L10.726,29.008L29.521,2.696
		l19.756,26.341L30.481,57.23z"/>
	<path d="M13.587,28.445c-0.246,0.345-0.249,0.808-0.006,1.154l16.021,22.887c0.188,0.268,0.493,0.427,0.819,0.427
		c0.004,0,0.008,0,0.012,0c0.33-0.004,0.637-0.171,0.82-0.445l15.182-22.774c0.235-0.353,0.223-0.815-0.032-1.154L30.38,7.174
		c-0.191-0.255-0.498-0.431-0.812-0.4c-0.318,0.004-0.616,0.159-0.802,0.419L13.587,28.445z M29.6,9.467l14.778,19.705L30.401,50.14
		L15.625,29.031L29.6,9.467z"/>
</g>
<g>
</g>
<g>
</g>
<g>
</g>
<g>
</g>
<g>
</g>
<g>
</g>
<g>
</g>
<g>
</g>
<g>
</g>
<g>
</g>
<g>
</g>
<g>
</g>
<g>
</g>
<g>
</g>
<g>
</g>
</svg>
