<?xml version="1.0" encoding="iso-8859-1"?>
<!-- Generator: Adobe Illustrator 18.0.0, SVG Export Plug-In . SVG Version: 6.00 Build 0)  -->
<!DOCTYPE svg PUBLIC "-//W3C//DTD SVG 1.1//EN" "http://www.w3.org/Graphics/SVG/1.1/DTD/svg11.dtd">
<svg version="1.1" id="Capa_1" xmlns="http://www.w3.org/2000/svg" xmlns:xlink="http://www.w3.org/1999/xlink" x="0px" y="0px"
	 viewBox="0 0 58.705 58.705" style="enable-background:new 0 0 58.705 58.705;" xml:space="preserve">
<g>
	<path d="M21.853,39.705h3v3c0,0.552,0.448,1,1,1s1-0.448,1-1v-4c0-0.552-0.448-1-1-1h-4c-0.552,0-1,0.448-1,1
		S21.3,39.705,21.853,39.705z"/>
	<path d="M32.853,43.705c0.552,0,1-0.448,1-1v-3h3c0.552,0,1-0.448,1-1s-0.448-1-1-1h-4c-0.552,0-1,0.448-1,1v4
		C31.853,43.258,32.3,43.705,32.853,43.705z"/>
	<path d="M51.922,29.691c-0.185-0.487-0.688-0.766-1.198-0.666l-0.879,0.225l0.026,0.848c0.019,0.616-0.313,2.356-1.428,3.516
		c-0.449,0.468-0.987,0.771-1.591,0.939V23.705c0-5.146-2.159-9.854-5.923-12.918c-1.814-1.477-3.999-2.481-6.497-2.989
		c-0.785-1.088-3.308-4.511-4.856-5.727c-2.764-2.173-6.345-2.677-9.346-1.319c-3.878,1.757-4.556,5.387-4.373,7.062
		c0.038,0.346,0.253,0.647,0.568,0.796c0.315,0.147,0.685,0.122,0.975-0.069c0.788-0.517,3.269-1.755,5.251-1.264
		c0.552,0.136,1.034,0.393,1.453,0.776c-1.492,0.386-3.832,1.167-6.228,2.661c-3.772,2.354-6.025,7.21-6.025,12.991v10.847
		c-0.604-0.167-1.141-0.471-1.591-0.939c-1.114-1.16-1.447-2.9-1.428-3.519c0.015-0.519-0.344-0.969-0.853-1.07L7.085,28.9
		l-0.301,0.787c-0.9,2.35-3.409,10.179,1.292,13.672c-0.14,0.762-0.223,1.544-0.223,2.347c0,7.168,5.832,13,13,13h17
		c7.168,0,13-5.832,13-13c0-0.802-0.083-1.584-0.223-2.347C55.331,39.866,52.821,32.037,51.922,29.691z M35.853,32.705h-6v-5.247
		c0-0.967,0.786-1.753,1.753-1.753H34.1c0.967,0,1.753,0.786,1.753,1.753V32.705z M21.853,27.458c0-0.967,0.786-1.753,1.753-1.753
		H26.1c0.967,0,1.753,0.786,1.753,1.753v5.247h-6V27.458z M13.828,37.282c0.071-0.059,0.143-0.116,0.216-0.174
		c0.342-0.272,0.695-0.529,1.066-0.759c0.011-0.007,0.021-0.014,0.031-0.021c0.394-0.242,0.805-0.454,1.226-0.644
		c0.068-0.031,0.136-0.059,0.205-0.089c0.412-0.177,0.832-0.334,1.264-0.459c0.003-0.001,0.006-0.002,0.009-0.003
		c0.019-0.005,0.039-0.01,0.058-0.015c0.413-0.117,0.836-0.203,1.264-0.27c0.043-0.007,0.085-0.013,0.128-0.02
		c0.065-0.01,0.131-0.019,0.196-0.027c0.449-0.057,0.903-0.096,1.362-0.096h8h8h1c0.459,0,0.913,0.039,1.362,0.096
		c0.066,0.008,0.131,0.018,0.196,0.027c0.043,0.006,0.085,0.013,0.128,0.02c0.427,0.068,0.85,0.153,1.263,0.27
		c0.019,0.005,0.039,0.01,0.059,0.015c0.003,0.001,0.006,0.002,0.009,0.003c0.432,0.125,0.852,0.282,1.263,0.459
		c0.068,0.029,0.137,0.058,0.205,0.089c0.421,0.191,0.832,0.403,1.226,0.644c0.011,0.007,0.021,0.014,0.031,0.021
		c0.371,0.229,0.724,0.487,1.066,0.759c0.072,0.057,0.145,0.114,0.216,0.174c1.117,0.934,2.063,2.088,2.75,3.423
		c-1.885,3.66-5.672,6-9.775,6h-17c-4.103,0-7.89-2.34-9.775-6C11.765,39.37,12.711,38.216,13.828,37.282z M18.936,12.411
		c3.536-2.206,7.018-2.71,7.053-2.715c0.326-0.045,0.61-0.249,0.757-0.544c0.147-0.295,0.14-0.644-0.02-0.932
		c-0.854-1.537-2.063-2.507-3.596-2.884c-1.848-0.457-3.77,0.083-5.103,0.643c0.306-1.105,1.083-2.522,3.028-3.403
		c2.318-1.052,5.109-0.641,7.286,1.069c1.313,1.032,3.833,4.42,4.694,5.638c0.151,0.215,0.382,0.361,0.64,0.408
		c2.33,0.418,4.346,1.309,5.991,2.648c3.295,2.682,5.186,6.826,5.186,11.367v11.063c-0.493-0.317-1.01-0.598-1.546-0.848
		c-0.033-0.016-0.066-0.033-0.099-0.048c-0.228-0.103-0.459-0.198-0.693-0.289c-0.115-0.045-0.232-0.086-0.348-0.128
		c-0.21-0.074-0.42-0.149-0.635-0.213c-0.311-0.093-0.625-0.174-0.942-0.243c-0.14-0.03-0.283-0.052-0.425-0.078
		c-0.254-0.046-0.508-0.086-0.765-0.117c-0.128-0.015-0.256-0.03-0.385-0.042c-0.064-0.006-0.126-0.016-0.19-0.021
		c-0.011-0.001-0.022-0.003-0.033-0.004c-0.311-0.023-0.624-0.035-0.938-0.035v-5.247c0-1.178-0.557-2.218-1.409-2.907
		c3.514-1.043,6.409-2.734,6.409-4.846c0-0.552-0.448-1-1-1s-1,0.448-1,1c0,1.127-5.321,4-12,4c-5.672,0-11-2.495-11-4
		c0-0.552-0.448-1-1-1s-1,0.448-1,1c0,1.963,2.365,3.667,5.522,4.753c-0.918,0.685-1.522,1.769-1.522,3v5.288
		c-0.054,0.004-0.107,0.013-0.161,0.018c-0.129,0.012-0.257,0.027-0.385,0.042c-0.257,0.031-0.511,0.071-0.765,0.117
		c-0.142,0.026-0.285,0.047-0.425,0.078c-0.317,0.069-0.632,0.15-0.942,0.243c-0.215,0.064-0.425,0.139-0.635,0.213
		c-0.117,0.041-0.233,0.083-0.348,0.128c-0.234,0.09-0.465,0.185-0.693,0.289c-0.033,0.015-0.066,0.032-0.099,0.048
		c-0.536,0.249-1.053,0.531-1.546,0.848V23.705C13.853,18.619,15.753,14.397,18.936,12.411z M7.729,33.471
		c0.283,0.537,0.643,1.062,1.091,1.528c0.774,0.807,1.73,1.332,2.803,1.565c-1.297,1.309-2.306,2.897-2.956,4.659
		C6.897,39.285,7.165,35.971,7.729,33.471z M37.853,56.705h-17c-6.065,0-11-4.935-11-11c0-0.907,0.123-1.784,0.331-2.628
		c2.409,3.473,6.39,5.628,10.669,5.628h17c4.279,0,8.261-2.155,10.669-5.628c0.208,0.844,0.331,1.721,0.331,2.628
		C48.853,51.771,43.918,56.705,37.853,56.705z M47.083,36.564c1.072-0.233,2.028-0.758,2.803-1.565
		c0.448-0.466,0.808-0.991,1.091-1.528c0.564,2.5,0.832,5.814-0.937,7.752C49.389,39.461,48.38,37.873,47.083,36.564z"/>
	<circle cx="24.853" cy="29.705" r="2"/>
	<circle cx="32.853" cy="29.705" r="2"/>
</g>
<g>
</g>
<g>
</g>
<g>
</g>
<g>
</g>
<g>
</g>
<g>
</g>
<g>
</g>
<g>
</g>
<g>
</g>
<g>
</g>
<g>
</g>
<g>
</g>
<g>
</g>
<g>
</g>
<g>
</g>
</svg>
