<?xml version="1.0" encoding="iso-8859-1"?>
<!-- Generator: Adobe Illustrator 18.0.0, SVG Export Plug-In . SVG Version: 6.00 Build 0)  -->
<!DOCTYPE svg PUBLIC "-//W3C//DTD SVG 1.1//EN" "http://www.w3.org/Graphics/SVG/1.1/DTD/svg11.dtd">
<svg version="1.1" id="Capa_1" xmlns="http://www.w3.org/2000/svg" xmlns:xlink="http://www.w3.org/1999/xlink" x="0px" y="0px"
	 viewBox="0 0 60 60" style="enable-background:new 0 0 60 60;" xml:space="preserve">
<g>
	<path d="M54,19C54,8.346,43.458,0,30,0S6,8.346,6,19c0,9.848,9.009,17.718,21,18.854v2.687C25.937,39.586,24.538,39,23,39
		c-3.309,0-6,2.691-6,6s2.691,6,6,6h4v9h6v-4h4c3.309,0,6-2.691,6-6s-2.691-6-6-6c-1.538,0-2.937,0.586-4,1.54v-7.687
		C44.991,36.718,54,28.848,54,19z M8,19C8,9.467,17.663,2,30,2s22,7.467,22,17c0,8.917-8.456,16.024-19.646,16.905l-0.21,0.014
		c-0.405,0.029-0.82,0.034-1.232,0.047c-0.61,0.018-1.216,0.018-1.826,0c-0.412-0.013-0.827-0.018-1.232-0.047l-0.21-0.014
		C16.456,35.024,8,27.917,8,19z M23,49c-2.206,0-4-1.794-4-4s1.794-4,4-4s4,1.794,4,4v4H23z M37,46c2.206,0,4,1.794,4,4
		s-1.794,4-4,4h-4v-4C33,47.794,34.794,46,37,46z M31,37.982V50v6v2h-2v-7v-6v-7.018C29.686,38.006,30.314,38.006,31,37.982z"/>
	<path d="M30,31c8.771,0,16.182-5.479,16.182-11.964c0-6.386-7.259-11.581-16.182-11.581S13.818,12.65,13.818,19.036
		C13.818,25.521,21.229,31,30,31z M30,9.455c7.819,0,14.182,4.298,14.182,9.581C44.182,24.437,37.687,29,30,29
		c-7.688,0-14.182-4.563-14.182-9.964C15.818,13.752,22.181,9.455,30,9.455z"/>
	<path d="M26,21c0.553,0,1-0.448,1-1v-4c0-0.552-0.447-1-1-1s-1,0.448-1,1v4C25,20.552,25.447,21,26,21z"/>
	<path d="M34,21c0.553,0,1-0.448,1-1v-4c0-0.552-0.447-1-1-1s-1,0.448-1,1v4C33,20.552,33.447,21,34,21z"/>
</g>
<g>
</g>
<g>
</g>
<g>
</g>
<g>
</g>
<g>
</g>
<g>
</g>
<g>
</g>
<g>
</g>
<g>
</g>
<g>
</g>
<g>
</g>
<g>
</g>
<g>
</g>
<g>
</g>
<g>
</g>
</svg>
