<?xml version="1.0" encoding="iso-8859-1"?>
<!-- Generator: Adobe Illustrator 18.0.0, SVG Export Plug-In . SVG Version: 6.00 Build 0)  -->
<!DOCTYPE svg PUBLIC "-//W3C//DTD SVG 1.1//EN" "http://www.w3.org/Graphics/SVG/1.1/DTD/svg11.dtd">
<svg version="1.1" id="Capa_1" xmlns="http://www.w3.org/2000/svg" xmlns:xlink="http://www.w3.org/1999/xlink" x="0px" y="0px"
	 viewBox="0 0 58.826 58.826" style="enable-background:new 0 0 58.826 58.826;" xml:space="preserve">
<g>
	<path d="M40.581,30.445l-3.168,4.752l-3.168-4.752c-0.371-0.557-1.293-0.557-1.664,0l-3.168,4.752l-3.168-4.752
		c-0.371-0.557-1.293-0.557-1.664,0l-3.168,4.752l-3.168-4.752c-0.308-0.459-0.928-0.584-1.387-0.277
		c-0.459,0.306-0.583,0.927-0.277,1.387l4,6c0.371,0.557,1.293,0.557,1.664,0l3.168-4.752l3.168,4.752
		c0.371,0.557,1.293,0.557,1.664,0l3.168-4.752l3.168,4.752C36.766,37.833,37.078,38,37.413,38s0.646-0.167,0.832-0.445l4-6
		c0.306-0.459,0.182-1.081-0.277-1.387C41.507,29.861,40.886,29.986,40.581,30.445z"/>
	<path d="M23.413,25c2.757,0,5-2.243,5-5s-2.243-5-5-5s-5,2.243-5,5S20.656,25,23.413,25z M23.413,17c1.654,0,3,1.346,3,3
		s-1.346,3-3,3s-3-1.346-3-3S21.759,17,23.413,17z"/>
	<path d="M36.413,25c2.757,0,5-2.243,5-5s-2.243-5-5-5s-5,2.243-5,5S33.656,25,36.413,25z M36.413,17c1.654,0,3,1.346,3,3
		s-1.346,3-3,3s-3-1.346-3-3S34.759,17,36.413,17z"/>
	<circle cx="24.413" cy="19" r="1"/>
	<circle cx="36.413" cy="21" r="1"/>
	<path d="M29.413,0c-12.682,0-23,10.318-23,23v34.047c0,0.404,0.244,0.769,0.617,0.924c0.373,0.154,0.803,0.069,1.09-0.217
		l4.34-4.34l5.119,5.119c0.391,0.391,1.023,0.391,1.414,0l5.119-5.119l5.094,5.094c0.391,0.391,1.023,0.391,1.414,0l5.094-5.094
		l5.119,5.119c0.195,0.195,0.451,0.293,0.707,0.293s0.512-0.098,0.707-0.293l5.119-5.119l3.34,3.34
		c0.286,0.285,0.715,0.371,1.09,0.217c0.374-0.155,0.617-0.52,0.617-0.924V23C52.413,10.318,42.095,0,29.413,0z M50.413,53.633
		l-2.34-2.34c-0.391-0.391-1.023-0.391-1.414,0l-5.119,5.119l-5.119-5.119C36.226,51.098,35.97,51,35.714,51
		s-0.512,0.098-0.707,0.293l-5.094,5.094l-5.094-5.094c-0.391-0.391-1.023-0.391-1.414,0l-5.119,5.119l-5.119-5.119
		c-0.391-0.391-1.023-0.391-1.414,0l-3.34,3.34V23c0-11.58,9.42-21,21-21s21,9.42,21,21V53.633z"/>
</g>
<g>
</g>
<g>
</g>
<g>
</g>
<g>
</g>
<g>
</g>
<g>
</g>
<g>
</g>
<g>
</g>
<g>
</g>
<g>
</g>
<g>
</g>
<g>
</g>
<g>
</g>
<g>
</g>
<g>
</g>
</svg>
