<?xml version="1.0" encoding="iso-8859-1"?>
<!-- Generator: Adobe Illustrator 18.0.0, SVG Export Plug-In . SVG Version: 6.00 Build 0)  -->
<!DOCTYPE svg PUBLIC "-//W3C//DTD SVG 1.1//EN" "http://www.w3.org/Graphics/SVG/1.1/DTD/svg11.dtd">
<svg version="1.1" id="Capa_1" xmlns="http://www.w3.org/2000/svg" xmlns:xlink="http://www.w3.org/1999/xlink" x="0px" y="0px"
	 viewBox="0 0 59.945 59.945" style="enable-background:new 0 0 59.945 59.945;" xml:space="preserve">
<g>
	<path d="M58.598,12.726C56.757,8.022,53.242,4.414,48.7,2.568c-9.493-3.856-16.452,2.621-18.75,5.219
		c-2.286-2.607-9.209-9.103-18.703-5.245C6.704,4.388,3.188,7.995,1.347,12.698c-1.964,5.019-1.773,10.707,0.525,15.608
		c3.263,6.957,10.681,17.788,27.49,29.872l0.583,0.42l0.583-0.42c16.892-12.144,24.302-22.934,27.543-29.847
		C60.371,23.432,60.562,17.744,58.598,12.726z M56.262,27.482c-3.104,6.619-10.188,16.933-26.316,28.651
		C13.898,44.471,6.807,34.12,3.683,27.456c-2.066-4.406-2.239-9.52-0.473-14.029c1.639-4.188,4.761-7.395,8.79-9.032
		c1.845-0.751,3.574-1.059,5.172-1.059c7.208,0,11.728,6.279,11.956,6.604l0.815,1.157l0.819-1.153
		c0.281-0.396,7.015-9.662,17.184-5.523c4.029,1.638,7.151,4.846,8.79,9.033C58.501,17.964,58.329,23.077,56.262,27.482z"/>
	<path d="M47.192,6.273c-1.484-0.603-2.965-0.908-4.402-0.908c-6.146,0-10.343,5.663-10.391,5.729l-2.444,3.43l-2.466-3.437
		c-0.172-0.234-4.273-5.747-10.348-5.747c-1.433,0-2.91,0.306-4.388,0.907c-3.515,1.429-6.243,4.237-7.681,7.909
		c-1.566,4-1.413,8.539,0.422,12.451c2.863,6.104,9.324,15.672,23.852,26.594l0.601,0.452l0.601-0.451
		c14.604-10.972,21.061-20.505,23.905-26.569c1.834-3.912,1.987-8.449,0.422-12.449C53.436,10.512,50.709,7.703,47.192,6.273z
		 M52.641,25.784c-2.709,5.776-8.844,14.835-22.694,25.365C16.171,40.665,10.031,31.573,7.304,25.758
		c-1.602-3.417-1.737-7.381-0.37-10.873C8.17,11.73,10.504,9.321,13.506,8.1c1.239-0.504,2.462-0.76,3.635-0.76
		c5.071,0,8.698,4.879,8.729,4.921l4.091,5.702l4.059-5.697c0.036-0.049,3.675-4.901,8.77-4.901c1.178,0,2.406,0.256,3.65,0.762
		c3.002,1.221,5.336,3.631,6.571,6.786C54.378,18.405,54.243,22.367,52.641,25.784z"/>
</g>
<g>
</g>
<g>
</g>
<g>
</g>
<g>
</g>
<g>
</g>
<g>
</g>
<g>
</g>
<g>
</g>
<g>
</g>
<g>
</g>
<g>
</g>
<g>
</g>
<g>
</g>
<g>
</g>
<g>
</g>
</svg>
