<?xml version="1.0" encoding="iso-8859-1"?>
<!-- Generator: Adobe Illustrator 18.0.0, SVG Export Plug-In . SVG Version: 6.00 Build 0)  -->
<!DOCTYPE svg PUBLIC "-//W3C//DTD SVG 1.1//EN" "http://www.w3.org/Graphics/SVG/1.1/DTD/svg11.dtd">
<svg version="1.1" id="Capa_1" xmlns="http://www.w3.org/2000/svg" xmlns:xlink="http://www.w3.org/1999/xlink" x="0px" y="0px"
	 viewBox="0 0 57.992 57.992" style="enable-background:new 0 0 57.992 57.992;" xml:space="preserve">
<path d="M51.559,17.85l-2.358-2.948l-0.645-3.864c-0.188-1.127-0.716-2.147-1.53-2.951c-0.731-0.722-1.56-1.594-2.159-2.595
	L44.031,4.1c-0.758-1.263-2.017-2.17-3.453-2.489l-3.254-0.723c-5.322-1.184-10.92-1.184-16.242,0l-3.254,0.723
	C16.392,1.93,15.133,2.837,14.375,4.1l-0.836,1.393c-0.6,1-1.428,1.873-2.159,2.595c-0.814,0.803-1.344,1.824-1.53,2.95
	l-0.536,3.211L6.433,17.85c-1.469,1.836-1.633,4.391-0.4,6.212c0.518,0.767,1.153,1.234,1.766,1.518l-0.379,3.42
	c-0.147,1.325-0.147,2.669,0,3.994l0.378,3.409c0.29,2.602,1.119,5.06,2.467,7.306c0.761,1.268,1.676,2.44,2.72,3.482l8.465,8.461
	c0.155,0.18,1.571,1.769,3.293,2.259c0.344,0.1,0.715,0.03,1.002-0.185c0.288-0.216,0.46-0.56,0.46-0.919V54.47
	c0-0.261,0.213-0.474,0.474-0.474h4.053c0.261,0,0.474,0.213,0.474,0.474v2.373c0,0.315,0.132,0.621,0.362,0.837
	c0.212,0.2,0.494,0.312,0.783,0.312c0.022,0,0.044,0,0.066-0.002c2.074-0.123,4.225-2.038,4.495-2.287l8.513-8.513
	c1.044-1.043,1.959-2.215,2.72-3.483c1.348-2.246,2.177-4.704,2.467-7.306l0.378-3.408c0.147-1.326,0.147-2.669,0-3.994
	l-0.404-3.633c0.486-0.29,0.968-0.7,1.376-1.305C53.192,22.239,53.027,19.685,51.559,17.85z M42.316,5.129l0.836,1.392
	c0.714,1.191,1.649,2.18,2.47,2.989c0.512,0.505,0.844,1.147,0.962,1.855l0.438,2.631h-2.871c-0.162-1.076-0.622-2.789-1.945-4.123
	c-0.955-0.963-2.181-1.555-3.651-1.776l1.517-4.551l0.071,0.016C41.048,3.764,41.84,4.334,42.316,5.129z M30.203,40.991v-8.995
	h3.586l3,3h5.076c-0.324,0.369-0.65,0.739-1.01,1.112C38.017,39.048,34.262,40.747,30.203,40.991z M22.217,47.215l-3.294-4.94
	l-9.138-6.092l0-0.002l-0.378-3.409c-0.132-1.178-0.132-2.373,0-3.551l0.356-3.213c0.121,0,0.217-0.006,0.278-0.011h0.149
	c0.132,3.702,2.119,7.565,5.92,11.501c2.407,2.492,5.403,4.182,8.684,4.99L22.217,47.215z M17.789,25.996l5,5l-2,2h-5.842
	c-1.727-2.426-2.638-4.767-2.735-7H17.789z M17.551,36.108c-0.36-0.373-0.686-0.742-1.01-1.112h5.076l3-3h3.586v8.995
	C24.144,40.747,20.389,39.048,17.551,36.108z M43.459,32.996h-5.842l-2-2l5-5h5.577C46.098,28.229,45.186,30.57,43.459,32.996z
	 M33.789,29.996h-9.172l-4-4h17.172L33.789,29.996z M22.422,23.999l1.6-8.003h10.361l1.601,8.005L22.422,23.999z M21.816,13.996
	h-5.485c0.157-0.789,0.509-1.868,1.336-2.695c0.703-0.704,1.666-1.101,2.844-1.221L21.816,13.996z M37.906,10.048
	c1.19,0.116,2.163,0.514,2.87,1.223c0.837,0.838,1.188,1.934,1.342,2.725H36.59L37.906,10.048z M21.516,2.84
	c5.039-1.12,10.336-1.12,15.375,0l1.22,0.271l-3.628,10.885H23.923L20.295,3.111L21.516,2.84z M11.822,11.365
	c0.118-0.708,0.45-1.35,0.962-1.855c0.82-0.81,1.756-1.798,2.47-2.989l0.836-1.392c0.477-0.794,1.269-1.365,2.172-1.566l0.071-0.016
	l1.528,4.584c-1.459,0.224-2.676,0.815-3.625,1.773c-1.31,1.321-1.775,3.016-1.94,4.093h-2.912L11.822,11.365z M7.995,19.099
	l2.481-3.103h11.507l-1.6,8.002l-8.116-0.002v0H9.996l-0.114,0.006c-0.001,0-0.01,0.001-0.012,0.001
	c-0.037,0.004-0.347,0.025-0.746-0.07c-0.005-0.001-0.01-0.002-0.015-0.003l-0.057-0.014c-0.438-0.12-0.965-0.387-1.363-0.975
	C6.942,21.837,7.067,20.258,7.995,19.099z M11.978,42.678c-0.703-1.171-1.227-2.414-1.609-3.703l7.113,4.742l3.653,5.48
	l-1.171,2.146l-5.568-5.568C13.469,44.849,12.655,43.806,11.978,42.678z M33.203,55.763V54.47c0-1.364-1.109-2.474-2.474-2.474
	h-4.053c-1.364,0-2.474,1.11-2.474,2.474v0.965c-0.574-0.399-1.065-0.888-1.293-1.146l-1.471-1.471l5.423-9.943
	c0.771,0.098,1.549,0.165,2.34,0.165c0.469,0,0.931-0.034,1.393-0.069l5.724,10.495l-0.792,0.792
	C35.174,54.582,34.174,55.369,33.203,55.763z M46.428,42.678c-0.677,1.128-1.49,2.17-2.419,3.098l-6.214,6.216l-0.779-1.427
	c0.018-0.025,0.04-0.045,0.055-0.072l3.902-6.828l7.349-5.716C47.949,39.612,47.316,41.198,46.428,42.678z M48.999,29.221
	c0.132,1.178,0.132,2.373,0,3.552l-0.262,2.361c-0.049,0.026-0.103,0.038-0.148,0.073l-9.156,7.122l-3.535,6.187l-3.173-5.817
	c3.63-0.702,6.946-2.485,9.57-5.201c3.798-3.932,5.785-7.793,5.92-11.492c0.01,0,0.014,0.001,0.024,0.001
	c0.112,0,0.25-0.007,0.401-0.02L48.999,29.221z M50.304,22.941c-0.294,0.435-0.659,0.692-1.005,0.846l-0.134,0.049
	c-0.559,0.207-1.057,0.167-1.057,0.166l-1.969-0.006l0,0.007l-8.116-0.002l-1.601-8.006h11.093l2.481,3.103
	C50.924,20.257,51.05,21.837,50.304,22.941z"/>
<g>
</g>
<g>
</g>
<g>
</g>
<g>
</g>
<g>
</g>
<g>
</g>
<g>
</g>
<g>
</g>
<g>
</g>
<g>
</g>
<g>
</g>
<g>
</g>
<g>
</g>
<g>
</g>
<g>
</g>
</svg>
