<?xml version="1.0" encoding="iso-8859-1"?>
<!-- Generator: Adobe Illustrator 18.0.0, SVG Export Plug-In . SVG Version: 6.00 Build 0)  -->
<!DOCTYPE svg PUBLIC "-//W3C//DTD SVG 1.1//EN" "http://www.w3.org/Graphics/SVG/1.1/DTD/svg11.dtd">
<svg version="1.1" id="Capa_1" xmlns="http://www.w3.org/2000/svg" xmlns:xlink="http://www.w3.org/1999/xlink" x="0px" y="0px"
	 viewBox="0 0 60 60" style="enable-background:new 0 0 60 60;" xml:space="preserve">
<path d="M44,53v-1.843c0-2.269-1.829-4.114-4.09-4.15L39.624,44h0l-0.667-7h0L38.1,28H40c1.93,0,3.5-1.57,3.5-3.5S41.93,21,40,21
	h-2.753l1.327-5.971c0.165-0.741-0.013-1.506-0.488-2.098S36.902,12,36.143,12H34v-2h0.627C35.936,10,37,8.936,37,7.628V5.372
	C37,4.064,35.936,3,34.627,3H34V2.372C34,1.064,32.936,0,31.627,0h-3.255C27.064,0,26,1.064,26,2.372V3h-0.627
	C24.064,3,23,4.064,23,5.372v2.256C23,8.936,24.064,10,25.373,10H26v2h-2.143c-0.759,0-1.467,0.34-1.942,0.932
	s-0.653,1.356-0.488,2.098L22.753,21H20c-1.93,0-3.5,1.57-3.5,3.5S18.07,28,20,28h1.9l-0.857,9h0l-0.667,7h0l-0.286,3.007
	C17.829,47.043,16,48.888,16,51.157V53h-2v7h32v-7H44z M22.862,39h14.277l0.286,3H22.576L22.862,39z M25.373,8
	C25.167,8,25,7.833,25,7.628V5.372C25,5.167,25.167,5,25.373,5H28V2.372C28,2.167,28.167,2,28.373,2h3.255
	C31.833,2,32,2.167,32,2.372V5h2.627C34.833,5,35,5.167,35,5.372v2.256C35,7.833,34.833,8,34.627,8H32v4h-4V8H25.373z
	 M23.379,14.596c-0.044-0.199,0.042-0.344,0.096-0.412C23.53,14.115,23.653,14,23.857,14H26h8h2.143
	c0.204,0,0.327,0.115,0.382,0.184c0.055,0.068,0.14,0.213,0.096,0.412L35.198,21H24.802L23.379,14.596z M20,26
	c-0.827,0-1.5-0.673-1.5-1.5S19.173,23,20,23h3.198h13.604H40c0.827,0,1.5,0.673,1.5,1.5S40.827,26,40,26h-2.09H22.091H20z
	 M23.909,28h12.182l0.857,9H23.052L23.909,28z M37.615,44l0.286,3H22.1l0.286-3H37.615z M18,51.157C18,49.968,18.967,49,20.157,49
	h19.687C41.033,49,42,49.968,42,51.157V53H18V51.157z M44,58H16v-3h28V58z"/>
<g>
</g>
<g>
</g>
<g>
</g>
<g>
</g>
<g>
</g>
<g>
</g>
<g>
</g>
<g>
</g>
<g>
</g>
<g>
</g>
<g>
</g>
<g>
</g>
<g>
</g>
<g>
</g>
<g>
</g>
</svg>
