<?xml version="1.0" encoding="iso-8859-1"?>
<!-- Generator: Adobe Illustrator 18.0.0, SVG Export Plug-In . SVG Version: 6.00 Build 0)  -->
<!DOCTYPE svg PUBLIC "-//W3C//DTD SVG 1.1//EN" "http://www.w3.org/Graphics/SVG/1.1/DTD/svg11.dtd">
<svg version="1.1" id="Capa_1" xmlns="http://www.w3.org/2000/svg" xmlns:xlink="http://www.w3.org/1999/xlink" x="0px" y="0px"
	 viewBox="0 0 59.001 59.001" style="enable-background:new 0 0 59.001 59.001;" xml:space="preserve">
<path d="M42,53.001h-0.556c0.344-0.591,0.556-1.268,0.556-2c0-1.113-0.458-2.119-1.194-2.845c0.022-0.14,0.021-0.285-0.018-0.425
	c-0.488-1.745,1.068-12.784,2.365-17.94c2.767-10.996,0.409-20.696-6.467-26.612c-2.433-2.093-4.386-3.04-4.468-3.079
	c-0.495-0.238-1.084-0.033-1.327,0.454l-2.604,5.209l-3.721-5.334c-0.249-0.358-0.705-0.514-1.12-0.382
	c-0.417,0.131-0.7,0.518-0.7,0.954v9.525l-8.507,9.968c-0.187,0.219-0.27,0.507-0.229,0.791c0.38,2.66,1.335,4.243,2.837,4.704
	c1.954,0.603,4.042-1.003,5.039-1.926c2.439,0.998,5.589-1.053,7.437-2.557c-0.145,5.299-6.343,8.794-6.412,8.832
	c-0.062,0.034-0.12,0.074-0.173,0.12c-6.686,5.796-3.796,17.306-3.669,17.793c0.003,0.011,0.011,0.02,0.014,0.031
	C18.417,48.998,18,49.949,18,51.001c0,0.732,0.212,1.409,0.556,2H18c-1.654,0-3,1.346-3,3s1.346,3,3,3h24c1.654,0,3-1.346,3-3
	S43.655,53.001,42,53.001z M23.975,32.035c1.034-0.595,8.854-5.368,7.106-12.8c-0.083-0.353-0.351-0.633-0.699-0.732
	c-0.35-0.099-0.725-0.003-0.981,0.255c-1.604,1.6-5.442,4.506-7.084,3.267c-0.412-0.311-0.995-0.258-1.343,0.125
	c-0.67,0.738-2.489,2.25-3.54,1.928c-0.619-0.19-1.102-1.12-1.373-2.636l8.446-9.896c0.154-0.182,0.239-0.411,0.239-0.649V4.182
	l2.862,4.104c0.201,0.29,0.539,0.452,0.893,0.425c0.353-0.025,0.664-0.234,0.822-0.55l2.89-5.779
	c0.737,0.445,1.882,1.205,3.169,2.312c2.156,1.855,3.81,4.138,4.965,6.74l-3.702,3.701c-0.391,0.391-0.391,1.023,0,1.414
	c0.195,0.195,0.451,0.293,0.707,0.293s0.512-0.098,0.707-0.293l3.076-3.075c0.401,1.24,0.691,2.543,0.882,3.897
	c-0.154,0.046-0.302,0.116-0.424,0.238l-6.185,6.185c-0.391,0.391-0.391,1.023,0,1.414c0.195,0.195,0.451,0.293,0.707,0.293
	s0.512-0.098,0.707-0.293l5.422-5.422c0.057,1.213,0.039,2.46-0.064,3.739c-0.214,0.026-0.424,0.105-0.588,0.27l-6.185,6.185
	c-0.391,0.391-0.391,1.023,0,1.414c0.195,0.195,0.451,0.293,0.707,0.293s0.512-0.098,0.707-0.293l4.99-4.99
	c-0.161,0.955-0.351,1.92-0.598,2.9c-0.117,0.464-0.245,1.027-0.381,1.664c-0.174,0.041-0.342,0.113-0.478,0.248l-4.948,4.947
	c-0.391,0.391-0.391,1.023,0,1.414c0.195,0.195,0.451,0.293,0.707,0.293s0.512-0.098,0.707-0.293l3.384-3.384
	c-0.795,4.418-1.572,10.015-1.491,12.808H38H22h-1.158C20.35,44.486,19.192,36.273,23.975,32.035z M20,51.001c0-1.103,0.897-2,2-2
	h16c1.103,0,2,0.897,2,2s-0.897,2-2,2H22C20.898,53.001,20,52.103,20,51.001z M42,57.001H18c-0.552,0-1-0.448-1-1s0.448-1,1-1h4h16
	h4c0.552,0,1,0.448,1,1S42.552,57.001,42,57.001z"/>
<g>
</g>
<g>
</g>
<g>
</g>
<g>
</g>
<g>
</g>
<g>
</g>
<g>
</g>
<g>
</g>
<g>
</g>
<g>
</g>
<g>
</g>
<g>
</g>
<g>
</g>
<g>
</g>
<g>
</g>
</svg>
