<?xml version="1.0" encoding="iso-8859-1"?>
<!-- Generator: Adobe Illustrator 18.0.0, SVG Export Plug-In . SVG Version: 6.00 Build 0)  -->
<!DOCTYPE svg PUBLIC "-//W3C//DTD SVG 1.1//EN" "http://www.w3.org/Graphics/SVG/1.1/DTD/svg11.dtd">
<svg version="1.1" id="Capa_1" xmlns="http://www.w3.org/2000/svg" xmlns:xlink="http://www.w3.org/1999/xlink" x="0px" y="0px"
	 viewBox="0 0 54 54" style="enable-background:new 0 0 54 54;" xml:space="preserve">
<g>
	<path d="M53.485,31.937c0.002-0.097,0.015-0.188,0.015-0.286v-4.179c0-1.819-0.626-3.605-1.763-5.027l-3.339-2.978
		c-0.004-0.042-0.004-0.085-0.008-0.127c-0.045-0.448-0.127-0.885-0.199-1.325c-0.043-0.264-0.066-0.53-0.119-0.792
		c-0.001-0.003-0.003-0.005-0.003-0.008C46.077,7.406,37.388,0,27,0C16.612,0,7.922,7.407,5.931,17.217
		c0,0.002-0.002,0.003-0.002,0.005c-0.039,0.193-0.054,0.39-0.088,0.584c-0.088,0.508-0.179,1.014-0.231,1.533
		c-0.004,0.04-0.003,0.081-0.007,0.121L2.38,22.322l-0.117,0.123C1.126,23.867,0.5,25.652,0.5,27.472v4.179
		c0,0.097,0.013,0.189,0.015,0.285c-0.004,0.069,0.001,0.134,0.011,0.202c0.063,2.286,0.55,4.403,1.485,6.283
		c1.505,3.023,3.968,5.275,7.125,6.51l0.345,0.135l0.35-0.123c0.063-0.022,0.682-0.253,1.454-0.844
		c1.499,1.152,6.787,5.037,11.603,6.495l0.259,1.412C23.339,53.162,24.329,54,25.5,54h5c1.171,0,2.161-0.838,2.353-1.994
		l0.294-1.773c4.278-1.641,8.301-4.974,9.597-6.11c0.759,0.575,1.364,0.799,1.426,0.821l0.35,0.123l0.345-0.135
		c3.157-1.235,5.62-3.486,7.125-6.51c0.935-1.879,1.422-3.996,1.485-6.284C53.484,32.07,53.489,32.005,53.485,31.937z M51.5,27.472
		v3.851l-4.675,1.87l-4.541,7.265c-0.085-0.168-0.173-0.335-0.246-0.514c-0.052-0.128-0.095-0.272-0.143-0.409
		c-0.06-0.176-0.123-0.349-0.173-0.534c-0.057-0.213-0.1-0.448-0.144-0.682c-0.023-0.124-0.053-0.242-0.072-0.369l0.054-0.641
		c3.246-2.983,5.518-6.917,6.451-11.305c0.004-0.015,0.015-0.027,0.018-0.043c0.038-0.179,0.066-0.36,0.099-0.539
		c0.046-0.25,0.092-0.5,0.129-0.752c0.009-0.061,0.016-0.121,0.024-0.182c0.014-0.102,0.027-0.203,0.04-0.305
		c0.03-0.236,0.058-0.472,0.08-0.708c0.015-0.159,0.027-0.319,0.038-0.479c0.015-0.218,0.029-0.436,0.037-0.653
		c0.002-0.042,0.009-0.084,0.011-0.126l1.737,1.543C51.048,24.816,51.5,26.132,51.5,27.472z M10.365,31.609
		c-0.128-0.206-0.248-0.416-0.368-0.627c-0.256-0.457-0.5-0.919-0.718-1.394c-0.025-0.053-0.052-0.105-0.077-0.159
		c-0.186-0.414-0.337-0.842-0.494-1.268c3.528,2.334,5.812,3.503,7.391,4.31c2.909,1.486,2.909,1.486,4.494,7.096
		c0.009,0.032,0.02,0.07,0.029,0.103c-4.136-1.401-7.535-4.03-9.837-7.421C10.644,32.037,10.498,31.827,10.365,31.609z
		 M7.872,25.178c-0.069-0.356-0.125-0.715-0.174-1.076c-0.024-0.174-0.056-0.348-0.075-0.523c-0.006-0.055-0.015-0.108-0.02-0.163
		C7.54,22.782,7.5,22.143,7.5,21.5c0-0.102,0.014-0.201,0.015-0.304c0.004-0.064,0.008-0.138,0.011-0.223
		c0.011-0.416,0.026-0.832,0.063-1.241c0.017-0.188,0.041-0.375,0.063-0.562c0.023-0.194,0.059-0.383,0.088-0.575l12.573,2.387
		c0.438,0.08,0.881-0.135,1.081-0.535L23.118,17h8.764l1.724,3.447c0.203,0.405,0.656,0.624,1.095,0.532l11.561-2.369
		c0.028,0.187,0.063,0.372,0.086,0.561c0.023,0.188,0.046,0.376,0.063,0.565c0.034,0.382,0.047,0.771,0.059,1.159l-0.001,0.017
		c0.002,0.079,0.008,0.157,0.013,0.235c0.002,0.118,0.018,0.234,0.018,0.352c0,0.639-0.04,1.274-0.102,1.904
		c-0.006,0.063-0.016,0.126-0.023,0.189c-0.018,0.165-0.048,0.33-0.071,0.495c-0.049,0.365-0.106,0.729-0.176,1.089l-0.198,0.136
		c-3.47,2.403-5.854,3.878-7.432,4.855c-3.793,2.347-3.966,2.571-4.644,5.975c-0.191,0.958-0.436,2.186-0.858,3.856H22.794
		c-0.096-0.337-0.19-0.671-0.276-0.976c-1.719-6.086-1.822-6.45-5.509-8.333c-1.784-0.911-4.48-2.288-8.94-5.376L7.872,25.178z
		 M39.636,36.329l-0.002,0.026c-1.308,1.109-2.777,2.046-4.373,2.79c0.244-1.054,0.415-1.907,0.555-2.61
		c0.534-2.684,0.534-2.684,3.735-4.665c1.307-0.809,3.174-1.967,5.735-3.694c-1.1,2.992-2.91,5.717-5.351,7.887L39.636,36.329z
		 M32.487,41.997L32.155,44H23.71l-0.373-2.03L32.487,41.997z M38.5,18.16v-5.746l3.432-3.432c1.845,2.197,3.197,4.809,3.933,7.668
		L38.5,18.16z M36.793,11.293C36.605,11.48,36.5,11.735,36.5,12v6.569l-1.449,0.297l-1.657-3.313C33.225,15.214,32.879,15,32.5,15
		h-4V2.076c4.674,0.358,8.89,2.362,12.065,5.445L36.793,11.293z M26.5,15h-4c-0.379,0-0.725,0.214-0.895,0.553l-1.662,3.324
		L18.5,18.602V12c0-0.265-0.105-0.52-0.293-0.707l-4.248-4.248c3.343-3.019,7.722-4.896,12.541-5.019V15z M16.5,12.414v5.809
		l-8.361-1.587c0.798-3.089,2.329-5.878,4.406-8.177L16.5,12.414z M24.445,48l-0.367-2h7.745l-0.332,2H24.445z M3.775,23.758
		l1.737-1.543c0.001,0.039,0.008,0.078,0.01,0.118c0.009,0.234,0.024,0.468,0.041,0.702c0.011,0.16,0.023,0.319,0.038,0.478
		c0.021,0.227,0.049,0.453,0.078,0.679c0.012,0.096,0.024,0.191,0.038,0.286c0.018,0.13,0.032,0.26,0.052,0.39
		c0.033,0.21,0.076,0.416,0.115,0.624c0.029,0.156,0.054,0.313,0.086,0.469c0.004,0.019,0.017,0.034,0.022,0.053
		c0.327,1.526,0.812,2.991,1.451,4.378c0.02,0.043,0.042,0.085,0.062,0.129c0.243,0.519,0.507,1.026,0.792,1.522
		c0.108,0.191,0.22,0.378,0.334,0.566c0.174,0.283,0.357,0.56,0.544,0.834c0.933,1.389,2.011,2.689,3.262,3.843l0.055,0.663
		c-0.019,0.126-0.048,0.244-0.071,0.367c-0.044,0.235-0.088,0.472-0.145,0.685c-0.049,0.183-0.112,0.356-0.171,0.53
		c-0.048,0.139-0.092,0.285-0.144,0.413c-0.073,0.179-0.16,0.345-0.245,0.513l-4.541-7.265L2.5,31.323v-3.851
		C2.5,26.132,2.952,24.816,3.775,23.758z M9.478,42.91c-2.532-1.088-4.44-2.896-5.676-5.38c-0.606-1.219-0.99-2.563-1.172-4.002
		l3.196,1.278l4.618,7.389C10.065,42.547,9.714,42.782,9.478,42.91z M12.712,42.664c0.17-0.223,0.334-0.472,0.493-0.737
		c0.002-0.003,0.004-0.006,0.005-0.009c0.132-0.219,0.257-0.455,0.376-0.704c0.025-0.053,0.05-0.106,0.074-0.16
		c0.088-0.192,0.17-0.393,0.249-0.602c0.033-0.087,0.065-0.174,0.095-0.262c0.06-0.175,0.115-0.359,0.167-0.547
		c0.021-0.074,0.048-0.144,0.067-0.219l2.984,1.326l-1.285,4.175c-1.419-0.919-2.576-1.762-3.229-2.255L12.712,42.664z
		 M17.696,46.011l1.368-4.443l2.359,1.048l0.776,4.223l0.279,1.517C20.86,47.758,19.202,46.898,17.696,46.011z M30.5,52h-5
		c-0.189,0-0.349-0.135-0.383-0.338L24.812,50h6.347l-0.278,1.678C30.849,51.865,30.689,52,30.5,52z M34.458,42.337l0.02-0.121
		c0.01-0.035,0.018-0.066,0.027-0.101l1.284-0.642l1.354,4.398c-1.111,0.731-2.343,1.454-3.61,2.036L34.458,42.337z M38.864,44.664
		l-1.261-4.098l2.173-1.087c0.018,0.067,0.042,0.129,0.061,0.195c0.053,0.188,0.109,0.37,0.17,0.545
		c0.03,0.087,0.061,0.172,0.093,0.257c0.08,0.211,0.163,0.412,0.252,0.604c0.023,0.049,0.045,0.099,0.068,0.147
		c0.265,0.548,0.559,1.029,0.868,1.436l0.022,0.054C40.804,43.155,39.937,43.871,38.864,44.664z M44.523,42.91
		c-0.238-0.129-0.589-0.365-0.967-0.714l4.618-7.389l3.197-1.279c-0.182,1.439-0.566,2.784-1.173,4.002
		C48.963,40.014,47.055,41.822,44.523,42.91z"/>
	<path d="M20.5,29c0.256,0,0.512-0.098,0.707-0.293l6-6c0.391-0.391,0.391-1.023,0-1.414s-1.023-0.391-1.414,0l-6,6
		c-0.391,0.391-0.391,1.023,0,1.414C19.988,28.902,20.244,29,20.5,29z"/>
	<path d="M24.793,28.707C24.988,28.902,25.244,29,25.5,29s0.512-0.098,0.707-0.293l3-3c0.391-0.391,0.391-1.023,0-1.414
		s-1.023-0.391-1.414,0l-3,3C24.402,27.684,24.402,28.316,24.793,28.707z"/>
</g>
<g>
</g>
<g>
</g>
<g>
</g>
<g>
</g>
<g>
</g>
<g>
</g>
<g>
</g>
<g>
</g>
<g>
</g>
<g>
</g>
<g>
</g>
<g>
</g>
<g>
</g>
<g>
</g>
<g>
</g>
</svg>
