<?xml version="1.0" encoding="iso-8859-1"?>
<!-- Generator: Adobe Illustrator 18.0.0, SVG Export Plug-In . SVG Version: 6.00 Build 0)  -->
<!DOCTYPE svg PUBLIC "-//W3C//DTD SVG 1.1//EN" "http://www.w3.org/Graphics/SVG/1.1/DTD/svg11.dtd">
<svg version="1.1" id="Capa_1" xmlns="http://www.w3.org/2000/svg" xmlns:xlink="http://www.w3.org/1999/xlink" x="0px" y="0px"
	 viewBox="0 0 49.328 49.328" style="enable-background:new 0 0 49.328 49.328;" xml:space="preserve">
<g>
	<path d="M48.482,23.811c-1.806-4.788-3.991-8.782-6.31-12.065l0.059-0.143l-0.338-0.456c-2.742-3.695-5.812-6.633-8.835-8.521
		c-0.252-0.162-0.5-0.317-0.747-0.462c-0.023-0.013-0.045-0.025-0.068-0.038c-2.243-1.309-4.297-1.962-5.912-1.962h-3
		c-6.535,0-16.359,7.4-22.486,23.647c-1.201,3.185-1.12,6.673,0.224,9.57c1.063,2.292,3.258,4.694,6.273,4.693
		c0.078,0,0.158-0.001,0.237-0.005c1.136-0.047,2.266-0.479,3.269-1.25c0.707-0.543,2.162-1.462,4.587-2.216l-1.025,7.29
		c-0.287,1.819,0.234,3.667,1.431,5.067s2.94,2.204,4.782,2.204h9.618c1.842,0,3.585-0.803,4.782-2.204s1.718-3.247,1.432-5.065
		L35.4,35.137c1.537,0.619,2.533,1.263,3.079,1.682c1.003,0.772,2.134,1.205,3.269,1.251c3.141,0.139,5.421-2.336,6.511-4.688
		C49.602,30.484,49.683,26.995,48.482,23.811z M30.533,3.481c0.691,0.343,1.391,0.765,2.093,1.24
		c0.203,0.142,0.403,0.273,0.608,0.427c0.055,0.04,0.111,0.083,0.167,0.124c2.096,1.595,4.321,3.832,6.464,6.703
		c-1.131,2.078-3.297,3.392-5.7,3.392c-3.584,0-6.5-2.916-6.5-6.5C27.664,6.704,28.751,4.684,30.533,3.481z M33.265,34.422
		l1.214,7.783c0.196,1.241-0.16,2.501-0.976,3.456c-0.816,0.955-2.005,1.503-3.261,1.503h-9.618c-1.257,0-2.446-0.548-3.262-1.503
		c-0.816-0.955-1.172-2.215-0.974-3.473l1.143-8.128c0.023-0.005,0.045-0.01,0.068-0.015c1.005-0.212,2.065-0.373,3.173-0.486
		c0.124-0.013,0.25-0.024,0.377-0.035c0.432-0.039,0.872-0.07,1.318-0.094c0.146-0.008,0.287-0.018,0.436-0.024
		c0.577-0.025,1.162-0.04,1.76-0.04c0.727,0,1.432,0.024,2.126,0.06c0.129,0.007,0.258,0.013,0.385,0.021
		c0.689,0.043,1.364,0.101,2.017,0.181c0.031,0.004,0.061,0.008,0.092,0.012C30.698,33.817,32.029,34.077,33.265,34.422z
		 M46.444,32.54c-0.819,1.765-2.46,3.614-4.614,3.531c-0.911-0.038-1.662-0.477-2.132-0.838c-0.751-0.577-2.239-1.534-4.65-2.352
		l-0.002-0.01l-0.596-0.185c-0.034-0.011-0.073-0.018-0.107-0.028c-0.596-0.181-1.243-0.351-1.941-0.506
		c-0.095-0.021-0.189-0.043-0.285-0.063c-0.639-0.135-1.325-0.254-2.051-0.357c-0.126-0.018-0.253-0.036-0.38-0.052
		c-0.689-0.089-1.415-0.162-2.182-0.214c-0.139-0.009-0.28-0.016-0.42-0.024c-0.771-0.044-1.568-0.075-2.419-0.075
		c-0.693,0-1.351,0.021-1.991,0.051c-0.184,0.009-0.366,0.02-0.548,0.031c-0.507,0.031-0.997,0.07-1.47,0.117
		c-0.154,0.015-0.31,0.028-0.463,0.045c-0.583,0.066-1.138,0.144-1.67,0.232c-0.185,0.03-0.366,0.065-0.548,0.098
		c-0.427,0.079-0.838,0.163-1.231,0.253c-0.111,0.025-0.231,0.043-0.341,0.07l-0.661,0.16l-0.003,0.02
		c-3.281,0.887-5.218,2.105-6.11,2.791c-0.47,0.361-1.221,0.8-2.132,0.838c-2.119,0.103-3.795-1.765-4.613-3.531
		c-1.119-2.414-1.18-5.338-0.167-8.023C8.251,9.842,17.277,2.164,23.332,2.164h3c0.64,0,1.373,0.138,2.169,0.395
		c-1.774,1.595-2.837,3.877-2.837,6.308c0,4.687,3.813,8.5,8.5,8.5c2.817,0,5.374-1.391,6.943-3.633
		c2.013,2.994,3.914,6.566,5.505,10.784C47.624,27.202,47.563,30.126,46.444,32.54z"/>
	<path d="M15.664,14.367c-4.411,0-8,3.589-8,8s3.589,8,8,8s8-3.589,8-8S20.075,14.367,15.664,14.367z M15.664,28.367
		c-3.309,0-6-2.691-6-6s2.691-6,6-6s6,2.691,6,6S18.973,28.367,15.664,28.367z"/>
	<path d="M38.664,21.367c-2.757,0-5,2.243-5,5s2.243,5,5,5s5-2.243,5-5S41.421,21.367,38.664,21.367z M38.664,29.367
		c-1.654,0-3-1.346-3-3s1.346-3,3-3s3,1.346,3,3S40.318,29.367,38.664,29.367z"/>
</g>
<g>
</g>
<g>
</g>
<g>
</g>
<g>
</g>
<g>
</g>
<g>
</g>
<g>
</g>
<g>
</g>
<g>
</g>
<g>
</g>
<g>
</g>
<g>
</g>
<g>
</g>
<g>
</g>
<g>
</g>
</svg>
