<?xml version="1.0" encoding="iso-8859-1"?>
<!-- Generator: Adobe Illustrator 18.0.0, SVG Export Plug-In . SVG Version: 6.00 Build 0)  -->
<!DOCTYPE svg PUBLIC "-//W3C//DTD SVG 1.1//EN" "http://www.w3.org/Graphics/SVG/1.1/DTD/svg11.dtd">
<svg version="1.1" id="Capa_1" xmlns="http://www.w3.org/2000/svg" xmlns:xlink="http://www.w3.org/1999/xlink" x="0px" y="0px"
	 viewBox="0 0 48 48" style="enable-background:new 0 0 48 48;" xml:space="preserve">
<path d="M41.582,10.426l0.01-0.007L41.13,9.851c-0.809-1.019-1.679-1.976-2.629-2.853c-0.012-0.011-0.025-0.02-0.037-0.031
	c-0.426-0.391-0.873-0.759-1.331-1.113C37,5.749,36.866,5.646,36.731,5.546c-0.443-0.327-0.895-0.641-1.363-0.933
	c-0.151-0.094-0.306-0.178-0.458-0.268c-0.35-0.207-0.706-0.403-1.068-0.59c-0.186-0.096-0.371-0.193-0.56-0.283
	c-0.478-0.229-0.965-0.442-1.46-0.635c-0.149-0.058-0.3-0.108-0.451-0.163c-0.432-0.158-0.87-0.302-1.313-0.431
	c-0.128-0.037-0.256-0.078-0.385-0.113c-0.078-0.021-0.155-0.048-0.234-0.069l-0.994-0.259l-0.01,0.044
	c-2.617-0.547-5.315-0.608-7.95-0.176l-0.009-0.032L19.55,1.832c-0.338,0.071-0.67,0.16-1.002,0.246
	c-0.203,0.053-0.405,0.106-0.607,0.164c-0.457,0.134-0.908,0.282-1.353,0.445c-0.23,0.084-0.456,0.177-0.684,0.269
	c-0.326,0.132-0.648,0.273-0.966,0.42c-0.216,0.1-0.432,0.197-0.645,0.305c-0.486,0.245-0.962,0.506-1.427,0.788
	c-0.151,0.092-0.296,0.193-0.445,0.289c-0.367,0.235-0.727,0.481-1.08,0.739c-0.156,0.114-0.311,0.229-0.464,0.348
	C10.419,6.2,9.971,6.568,9.543,6.96c-0.014,0.013-0.03,0.024-0.044,0.037C9.373,7.114,9.255,7.24,9.131,7.359
	C8.908,7.575,8.684,7.786,8.465,8.016c-0.45,0.466-0.881,0.951-1.295,1.453L6.864,9.826l0.014,0.013C2.317,15.579,0,23.55,0,33.616
	c0,0.552,0.447,1,1,1h1.071C2.025,34.941,2,35.266,2,35.616v0.36c0,5.867,4.772,10.64,10.64,10.64h22.705
	c5.867,0,10.64-4.773,10.64-10.64v-0.36c0-0.35-0.025-0.674-0.071-1H47c0.553,0,1-0.448,1-1C48,23.891,45.841,16.119,41.582,10.426z
	 M45.718,27.991C42.336,26.658,40,23.331,40,19.616c0-1.922,0.604-3.759,1.721-5.289C43.836,18.095,45.177,22.679,45.718,27.991z
	 M30.008,4.327c0.109,0.035,0.217,0.07,0.325,0.107c0.444,0.152,0.881,0.32,1.312,0.504c0.173,0.074,0.347,0.147,0.519,0.226
	c0.456,0.21,0.9,0.441,1.337,0.686c0.142,0.079,0.286,0.152,0.426,0.235c0.46,0.273,0.904,0.571,1.339,0.88
	c0.11,0.079,0.225,0.148,0.334,0.229c0.537,0.399,1.055,0.823,1.546,1.277l0.001,0c0.001,0.001,0.003,0.003,0.004,0.004
	c0.293,0.27,0.574,0.553,0.852,0.838c0.177,0.183,0.352,0.371,0.527,0.565c0.037,0.041,0.073,0.082,0.11,0.123
	c-0.818,0.405-1.715,0.616-2.639,0.616c-3.309,0-6-2.691-6-6C30,4.52,30.003,4.424,30.008,4.327z M19,4.616c0,3.309-2.691,6-6,6
	c-1.181,0-2.324-0.348-3.299-0.996c0.002-0.002,0.004-0.004,0.006-0.006c0.377-0.404,0.762-0.787,1.148-1.144
	c0.008-0.008,0.018-0.015,0.026-0.023c0.394-0.363,0.805-0.698,1.221-1.022c0.115-0.089,0.23-0.179,0.346-0.265
	c0.403-0.299,0.815-0.582,1.235-0.846c0.142-0.089,0.29-0.17,0.434-0.255c0.305-0.18,0.614-0.35,0.926-0.512
	c0.181-0.094,0.361-0.19,0.546-0.278c0.405-0.193,0.816-0.372,1.231-0.536c0.207-0.082,0.419-0.155,0.629-0.23
	c0.284-0.101,0.57-0.195,0.858-0.282c0.205-0.062,0.408-0.128,0.616-0.184c0.015-0.004,0.03-0.006,0.045-0.01
	C18.989,4.226,19,4.422,19,4.616z M6.279,14.327C7.396,15.856,8,17.693,8,19.616c0,3.716-2.336,7.042-5.718,8.375
	C2.823,22.679,4.164,18.095,6.279,14.327z M43.984,35.616v0.36c0,4.764-3.876,8.64-8.64,8.64H12.64c-4.764,0-8.64-3.875-8.64-8.64
	v-0.36c0-0.357,0.027-0.667,0.095-1h1.723C7.021,34.616,8,33.637,8,32.433c0-1.002,0.815-1.817,1.817-1.817H15v4.5
	c0,1.93,1.57,3.5,3.5,3.5s3.5-1.57,3.5-3.5v-4.5h4v4.5c0,1.93,1.57,3.5,3.5,3.5s3.5-1.57,3.5-3.5v-4.5h5.183
	c1.002,0,1.817,0.815,1.817,1.817c0,1.204,0.979,2.183,2.183,2.183h1.707C43.957,34.948,43.984,35.258,43.984,35.616z M15,24.616
	c0-4.962,4.037-9,9-9s9,4.038,9,9c0,1.384-0.325,2.756-0.945,4H32h-5h-6h-5h-0.055C15.325,27.372,15,26,15,24.616z M28,30.616h3v4.5
	c0,0.827-0.673,1.5-1.5,1.5s-1.5-0.673-1.5-1.5V30.616z M17,30.616h3v4.5c0,0.827-0.673,1.5-1.5,1.5s-1.5-0.673-1.5-1.5V30.616z
	 M44.659,32.616h-2.477c-0.101,0-0.183-0.082-0.183-0.183c0-2.105-1.713-3.817-3.817-3.817h-3.955c0.5-1.274,0.772-2.63,0.772-4
	c0-6.065-4.935-11-11-11s-11,4.935-11,11c0,1.37,0.272,2.726,0.772,4H9.817C7.713,28.616,6,30.328,6,32.433
	c0,0.101-0.082,0.183-0.183,0.183H3.325H2.008c0.013-0.837,0.05-1.653,0.097-2.459C6.721,28.795,10,24.481,10,19.616
	c0-2.623-0.927-5.11-2.612-7.096c0.322-0.474,0.66-0.933,1.011-1.378c1.344,0.951,2.941,1.474,4.601,1.474c4.411,0,8-3.589,8-8
	c0-0.329-0.024-0.661-0.068-0.995c2.361-0.372,4.774-0.311,7.116,0.182C28.019,4.076,28,4.348,28,4.616c0,4.411,3.589,8,8,8
	c1.393,0,2.729-0.375,3.929-1.059c0.236,0.313,0.461,0.636,0.683,0.963C38.927,14.506,38,16.993,38,19.616
	c0,4.866,3.279,9.179,7.895,10.541c0.047,0.805,0.084,1.621,0.097,2.459H44.659z"/>
<g>
</g>
<g>
</g>
<g>
</g>
<g>
</g>
<g>
</g>
<g>
</g>
<g>
</g>
<g>
</g>
<g>
</g>
<g>
</g>
<g>
</g>
<g>
</g>
<g>
</g>
<g>
</g>
<g>
</g>
</svg>
