<?xml version="1.0" encoding="iso-8859-1"?>
<!-- Generator: Adobe Illustrator 18.0.0, SVG Export Plug-In . SVG Version: 6.00 Build 0)  -->
<!DOCTYPE svg PUBLIC "-//W3C//DTD SVG 1.1//EN" "http://www.w3.org/Graphics/SVG/1.1/DTD/svg11.dtd">
<svg version="1.1" id="Capa_1" xmlns="http://www.w3.org/2000/svg" xmlns:xlink="http://www.w3.org/1999/xlink" x="0px" y="0px"
	 viewBox="0 0 48.381 48.381" style="enable-background:new 0 0 48.381 48.381;" xml:space="preserve">
<g>
	<path d="M48.142,23.035C44.886,7.902,33.993,2.738,29.461,1.22c-3.96-1.327-8.265-1.264-12.12,0.176
		C12.286,3.283,3.344,8.604,0.239,23.035c-0.941,4.375,0.954,8.838,4.608,10.854c0.595,0.328,1.238,0.602,1.915,0.814
		c0.871,0.272,1.798,0.409,2.755,0.409c1.006,0,2.044-0.15,3.086-0.451c0.368-0.106,0.847-0.228,1.396-0.353v5.804
		c-3.859,0-7,3.14-7,7v1h14h2h2h2h14v-1c0-3.86-3.141-7-7-7v-5.891c0.729,0.156,1.324,0.309,1.778,0.44
		c2.034,0.586,4.054,0.601,5.842,0.042c0.676-0.212,1.319-0.485,1.914-0.813C47.188,31.873,49.083,27.41,48.142,23.035z
		 M13.999,42.112h2c0.325,0,0.642,0.036,0.95,0.096c0.101,0.02,0.196,0.054,0.295,0.08c0.203,0.052,0.404,0.109,0.596,0.185
		c0.11,0.044,0.213,0.098,0.319,0.149c0.17,0.082,0.337,0.169,0.495,0.269c0.103,0.065,0.202,0.136,0.3,0.208
		c0.147,0.109,0.288,0.224,0.422,0.348c0.09,0.083,0.178,0.166,0.261,0.255c0.127,0.135,0.242,0.28,0.354,0.429
		c0.071,0.094,0.144,0.186,0.208,0.285c0.109,0.169,0.2,0.349,0.288,0.531c0.045,0.093,0.098,0.181,0.137,0.277
		c0.109,0.267,0.197,0.545,0.259,0.832c0.004,0.018,0.012,0.035,0.016,0.053c0,0.001,0,0.002,0,0.003H9.1
		C9.565,43.833,11.584,42.112,13.999,42.112z M38.899,46.112H27.1c0-0.001,0-0.002,0-0.003c0.004-0.018,0.012-0.035,0.016-0.053
		c0.062-0.287,0.15-0.565,0.259-0.832c0.039-0.096,0.092-0.184,0.137-0.277c0.088-0.182,0.179-0.362,0.288-0.531
		c0.064-0.099,0.137-0.191,0.208-0.285c0.111-0.149,0.227-0.293,0.354-0.429c0.083-0.089,0.171-0.173,0.261-0.255
		c0.134-0.124,0.275-0.24,0.422-0.348c0.098-0.072,0.197-0.143,0.3-0.208c0.159-0.1,0.325-0.187,0.495-0.269
		c0.106-0.051,0.209-0.105,0.319-0.149c0.192-0.076,0.393-0.133,0.596-0.185c0.099-0.026,0.194-0.06,0.295-0.08
		c0.308-0.06,0.625-0.096,0.95-0.096h2C36.414,42.112,38.434,43.833,38.899,46.112z M31.999,40.112c-0.231,0-0.46,0.013-0.685,0.035
		c-0.074,0.007-0.147,0.021-0.22,0.031c-0.15,0.02-0.3,0.04-0.447,0.068c-0.086,0.017-0.169,0.039-0.254,0.06
		c-0.132,0.031-0.263,0.063-0.391,0.101c-0.088,0.026-0.173,0.057-0.259,0.086c-0.122,0.042-0.243,0.085-0.362,0.133
		c-0.086,0.035-0.17,0.073-0.255,0.111c-0.115,0.052-0.228,0.106-0.339,0.164c-0.082,0.043-0.163,0.087-0.244,0.133
		c-0.109,0.062-0.216,0.127-0.321,0.195c-0.077,0.049-0.153,0.099-0.227,0.151c-0.104,0.073-0.205,0.15-0.306,0.229
		c-0.069,0.055-0.139,0.108-0.207,0.165c-0.1,0.085-0.196,0.174-0.292,0.265c-0.061,0.058-0.123,0.114-0.182,0.173
		c-0.099,0.101-0.192,0.207-0.285,0.313c-0.049,0.056-0.1,0.109-0.147,0.167c-0.113,0.138-0.218,0.282-0.32,0.428
		c-0.021,0.03-0.045,0.058-0.065,0.089c-0.121,0.18-0.234,0.365-0.338,0.556c-0.026,0.048-0.048,0.1-0.073,0.149
		c-0.074,0.143-0.146,0.288-0.211,0.437c-0.032,0.073-0.058,0.149-0.087,0.224c-0.05,0.129-0.1,0.257-0.143,0.389
		c-0.028,0.085-0.05,0.173-0.075,0.26c-0.035,0.126-0.07,0.252-0.098,0.381c-0.021,0.093-0.037,0.186-0.053,0.28
		c-0.014,0.077-0.032,0.152-0.044,0.229h-2.143c-0.011-0.077-0.03-0.152-0.043-0.228c-0.017-0.095-0.033-0.189-0.054-0.282
		c-0.028-0.128-0.063-0.254-0.098-0.379c-0.024-0.087-0.047-0.175-0.075-0.26c-0.043-0.132-0.092-0.26-0.143-0.389
		c-0.029-0.075-0.055-0.151-0.087-0.224c-0.064-0.149-0.137-0.293-0.211-0.437c-0.025-0.049-0.047-0.1-0.074-0.149
		c-0.104-0.191-0.217-0.376-0.338-0.555c-0.022-0.032-0.047-0.062-0.069-0.094c-0.101-0.145-0.205-0.287-0.317-0.423
		c-0.047-0.057-0.098-0.111-0.147-0.167c-0.093-0.106-0.186-0.212-0.285-0.313c-0.059-0.06-0.121-0.116-0.182-0.173
		c-0.095-0.09-0.191-0.18-0.292-0.265c-0.067-0.057-0.137-0.111-0.207-0.166c-0.1-0.078-0.201-0.155-0.305-0.228
		c-0.075-0.052-0.151-0.102-0.228-0.152c-0.105-0.068-0.211-0.133-0.32-0.195c-0.08-0.046-0.162-0.09-0.244-0.133
		c-0.111-0.058-0.224-0.112-0.339-0.164c-0.084-0.038-0.168-0.076-0.255-0.111c-0.119-0.048-0.24-0.091-0.362-0.133
		c-0.086-0.029-0.172-0.06-0.259-0.086c-0.128-0.038-0.26-0.07-0.391-0.101c-0.085-0.02-0.169-0.043-0.255-0.06
		c-0.147-0.029-0.297-0.049-0.447-0.068c-0.074-0.01-0.146-0.023-0.22-0.031c-0.226-0.022-0.454-0.035-0.685-0.035V33.92
		c0.056-0.009,0.113-0.018,0.169-0.028c0.478-0.078,0.97-0.147,1.472-0.21c0.124-0.016,0.243-0.032,0.371-0.047
		c1.907-0.224,3.971-0.347,6.17-0.364c2.117,0.016,4.104,0.128,5.942,0.332c0.162,0.018,0.304,0.04,0.46,0.059
		c0.407,0.05,0.811,0.102,1.203,0.161c0.074,0.011,0.139,0.023,0.211,0.034V40.112z M42.567,32.138
		c-0.478,0.264-0.997,0.484-1.544,0.656c-1.413,0.44-3.034,0.424-4.69-0.055c-0.639-0.184-1.425-0.376-2.333-0.561v-0.011
		l-0.6-0.107c-0.67-0.124-1.414-0.239-2.221-0.344c-0.042-0.005-0.083-0.01-0.125-0.016c-1.784-0.227-3.882-0.395-6.364-0.431
		l-1-0.007v0.007c-4.005,0.057-7.049,0.452-9.279,0.902l-0.413,0.078v0.003c-0.751,0.161-1.399,0.327-1.95,0.486
		c-1.655,0.478-3.276,0.497-4.689,0.055c-0.548-0.172-1.067-0.393-1.545-0.656c-2.889-1.594-4.377-5.164-3.62-8.682
		C5.099,9.956,13.369,5.014,18.04,3.27c1.786-0.667,3.682-1.001,5.587-1.001c1.751,0,3.51,0.283,5.199,0.848
		c5.226,1.75,14.43,6.72,17.36,20.339C46.944,26.974,45.455,30.544,42.567,32.138z"/>
	<path d="M15.706,10.405c-0.391-0.391-1.023-0.391-1.414,0s-0.391,1.023,0,1.414l7,7c0.195,0.195,0.451,0.293,0.707,0.293
		s0.512-0.098,0.707-0.293c0.391-0.391,0.391-1.023,0-1.414L15.706,10.405z"/>
	<path d="M25.999,19.112c0.256,0,0.512-0.098,0.707-0.293l7-7c0.391-0.391,0.391-1.023,0-1.414s-1.023-0.391-1.414,0l-7,7
		c-0.391,0.391-0.391,1.023,0,1.414C25.488,19.015,25.743,19.112,25.999,19.112z"/>
	<path d="M38.352,13.908c-2.732-1.239-8.279,3.335-9.964,4.813c-2.759,2.759-3.842,5.237-3.218,7.367
		c0.893,3.049,4.924,3.965,5.095,4.002l0.105,0.023h0.108c7.907-0.001,9.243-12.81,9.296-13.355l0.005-0.097
		C39.78,14.921,39.003,14.204,38.352,13.908z M30.59,28.111c-0.192-0.048-0.445-0.129-0.717-0.232
		c1.65-0.536,2.879-1.991,3.077-3.772c-1.081-0.027-1.95-0.908-1.95-1.995c0-0.638,0.305-1.2,0.771-1.567
		c-0.372-0.396-0.817-0.716-1.308-0.96c2.491-2.053,5.49-3.916,6.74-3.916c0.127,0,0.235,0.019,0.323,0.059
		c0.152,0.069,0.248,0.404,0.255,0.881C37.69,17.412,36.396,27.977,30.59,28.111z"/>
	<path d="M9.647,13.908c-0.651,0.296-1.428,1.013-1.428,2.752l0.005,0.097c0.053,0.545,1.389,13.354,9.296,13.355h0.108l0.105-0.023
		c0.171-0.038,4.202-0.953,5.095-4.002c0.624-2.129-0.459-4.608-3.267-7.412C17.926,17.243,12.384,12.668,9.647,13.908z
		 M17.408,28.111c-5.806-0.134-7.1-10.699-7.189-11.501c0.007-0.476,0.103-0.812,0.255-0.881c0.955-0.434,4.355,1.614,7.07,3.853
		c-0.493,0.244-0.941,0.566-1.315,0.963c0.466,0.366,0.771,0.928,0.771,1.567c0,1.087-0.869,1.968-1.95,1.995
		c0.197,1.781,1.427,3.236,3.077,3.772C17.853,27.982,17.6,28.063,17.408,28.111z"/>
</g>
<g>
</g>
<g>
</g>
<g>
</g>
<g>
</g>
<g>
</g>
<g>
</g>
<g>
</g>
<g>
</g>
<g>
</g>
<g>
</g>
<g>
</g>
<g>
</g>
<g>
</g>
<g>
</g>
<g>
</g>
</svg>
