<?xml version="1.0" encoding="iso-8859-1"?>
<!-- Generator: Adobe Illustrator 18.0.0, SVG Export Plug-In . SVG Version: 6.00 Build 0)  -->
<!DOCTYPE svg PUBLIC "-//W3C//DTD SVG 1.1//EN" "http://www.w3.org/Graphics/SVG/1.1/DTD/svg11.dtd">
<svg version="1.1" id="Capa_1" xmlns="http://www.w3.org/2000/svg" xmlns:xlink="http://www.w3.org/1999/xlink" x="0px" y="0px"
	 viewBox="0 0 58 58" style="enable-background:new 0 0 58 58;" xml:space="preserve">
<g>
	<path d="M10,52c0,0.552,0.448,1,1,1h5c0.552,0,1-0.448,1-1s-0.448-1-1-1h-5C10.448,51,10,51.448,10,52z"/>
	<path d="M20,53h28c0.552,0,1-0.448,1-1s-0.448-1-1-1H20c-0.552,0-1,0.448-1,1S19.448,53,20,53z"/>
	<path d="M52.098,0H9.902C7.75,0,6,1.75,6,3.902v9.198c-0.001,0-0.002,0.001-0.003,0.001c-0.018,0.004-0.034,0.012-0.052,0.016
		c-0.288,0.062-0.566,0.15-0.833,0.259c-0.095,0.039-0.182,0.091-0.274,0.136c-0.183,0.089-0.363,0.18-0.533,0.29
		c-0.099,0.064-0.19,0.136-0.284,0.207c-0.149,0.112-0.294,0.227-0.43,0.354c-0.089,0.084-0.172,0.171-0.255,0.261
		c-0.124,0.134-0.239,0.274-0.348,0.422c-0.073,0.098-0.143,0.197-0.209,0.301c-0.1,0.158-0.186,0.324-0.268,0.494
		c-0.052,0.107-0.106,0.21-0.15,0.321c-0.076,0.192-0.132,0.391-0.185,0.594c-0.026,0.099-0.061,0.194-0.08,0.296
		C2.036,17.358,2,17.675,2,18c0,0.242,0.024,0.48,0.06,0.717c0.009,0.057,0.018,0.114,0.028,0.171
		c0.043,0.233,0.097,0.463,0.173,0.686c0.005,0.016,0.013,0.03,0.018,0.046c0.074,0.21,0.164,0.414,0.266,0.613
		c0.027,0.052,0.053,0.104,0.081,0.155c0.114,0.206,0.239,0.406,0.381,0.595C3.011,20.989,3.014,20.995,3.018,21
		c-0.01,0.013-0.016,0.028-0.026,0.04c-0.114,0.154-0.213,0.315-0.309,0.482c-0.057,0.098-0.111,0.196-0.161,0.297
		c-0.072,0.147-0.137,0.294-0.194,0.448c-0.057,0.15-0.1,0.303-0.142,0.457c-0.033,0.124-0.071,0.245-0.094,0.373
		C2.036,23.394,2,23.695,2,24c0,0.242,0.024,0.48,0.06,0.717c0.009,0.057,0.018,0.114,0.028,0.171
		c0.043,0.233,0.097,0.463,0.173,0.686c0.005,0.016,0.013,0.03,0.018,0.046c0.074,0.21,0.164,0.414,0.266,0.613
		c0.027,0.052,0.053,0.104,0.081,0.155c0.114,0.206,0.239,0.406,0.381,0.595C3.011,26.989,3.014,26.995,3.018,27
		c-0.01,0.013-0.016,0.028-0.026,0.04c-0.114,0.154-0.213,0.315-0.309,0.482c-0.057,0.098-0.111,0.196-0.161,0.297
		c-0.072,0.147-0.137,0.294-0.194,0.448c-0.057,0.15-0.1,0.303-0.142,0.457c-0.033,0.124-0.071,0.245-0.094,0.373
		C2.036,29.394,2,29.695,2,30c0,0.242,0.024,0.48,0.06,0.717c0.009,0.057,0.018,0.114,0.028,0.171
		c0.043,0.233,0.097,0.463,0.173,0.686c0.005,0.016,0.013,0.03,0.018,0.046c0.074,0.21,0.164,0.414,0.266,0.613
		c0.027,0.052,0.053,0.104,0.081,0.155c0.114,0.206,0.239,0.406,0.381,0.595C3.011,32.989,3.014,32.995,3.018,33
		c-0.01,0.013-0.016,0.028-0.026,0.04c-0.114,0.154-0.213,0.315-0.309,0.482c-0.057,0.098-0.111,0.196-0.161,0.297
		c-0.072,0.147-0.137,0.294-0.194,0.448c-0.057,0.15-0.1,0.303-0.142,0.457c-0.033,0.124-0.071,0.245-0.094,0.373
		C2.036,35.394,2,35.695,2,36c0,0.325,0.036,0.642,0.096,0.95c0.02,0.102,0.055,0.197,0.08,0.296
		c0.052,0.202,0.108,0.402,0.185,0.594c0.044,0.111,0.098,0.214,0.15,0.321c0.082,0.17,0.168,0.335,0.268,0.494
		c0.066,0.104,0.136,0.202,0.209,0.301c0.109,0.147,0.224,0.287,0.348,0.422c0.083,0.09,0.166,0.177,0.255,0.261
		c0.136,0.127,0.28,0.243,0.43,0.354c0.094,0.07,0.185,0.143,0.284,0.207c0.17,0.109,0.35,0.201,0.533,0.29
		c0.092,0.045,0.179,0.097,0.274,0.136c0.267,0.11,0.545,0.197,0.833,0.259c0.018,0.004,0.034,0.012,0.052,0.016
		c0.001,0,0.002,0.001,0.003,0.001V52c0,3.309,2.691,6,6,6h44V48v-2V3.902C56,1.75,54.25,0,52.098,0z M54,49h-3
		c-0.552,0-1,0.448-1,1s0.448,1,1,1h3v2h-3c-0.552,0-1,0.448-1,1s0.448,1,1,1h3v1H12c-2.206,0-4-1.794-4-4s1.794-4,4-4h42V49z
		 M12,46c-0.362,0-0.715,0.038-1.059,0.099c-0.031,0.005-0.062,0.008-0.092,0.014c-0.327,0.064-0.642,0.158-0.947,0.273
		c-0.042,0.016-0.084,0.029-0.125,0.046c-0.295,0.118-0.577,0.261-0.847,0.423c-0.043,0.026-0.086,0.051-0.128,0.078
		c-0.264,0.167-0.513,0.354-0.747,0.559C8.037,47.506,8.017,47.517,8,47.532V40v-1v-2c0-0.552-0.448-1-1-1s-1,0.448-1,1v1.816
		C4.839,38.402,4,37.302,4,36c0-0.212,0.023-0.421,0.067-0.623c0.007-0.033,0.022-0.063,0.03-0.095
		C4.14,35.11,4.192,34.94,4.265,34.78c0.006-0.013,0.014-0.024,0.02-0.036c0.175-0.369,0.427-0.706,0.752-0.99
		c0.282-0.246,0.707-0.521,1.257-0.66c0.026-0.006,0.05-0.018,0.077-0.024C6.566,33.026,6.775,33,7,33
		c0.225,0,0.434,0.026,0.628,0.069c0.027,0.006,0.051,0.018,0.077,0.024c0.55,0.139,0.975,0.414,1.258,0.66
		c0.004,0.003,0.009,0.004,0.013,0.007C9.599,34.31,10,35.106,10,36c0,0.552,0.448,1,1,1s1-0.448,1-1
		c0-1.489-0.668-2.814-1.705-3.731c-0.007-0.007-0.01-0.016-0.017-0.022c-0.03-0.026-0.065-0.045-0.096-0.071
		C9.315,31.453,8.215,31,7,31c-0.617,0-1.202,0.127-1.749,0.333c-0.012,0.004-0.024,0.007-0.036,0.011
		c-0.186,0.071-0.359,0.161-0.534,0.253c-0.049,0.026-0.101,0.043-0.15,0.071c-0.093-0.134-0.18-0.271-0.249-0.416
		c-0.015-0.033-0.026-0.067-0.04-0.1c-0.061-0.142-0.109-0.288-0.147-0.437c-0.012-0.05-0.025-0.099-0.035-0.15
		C4.025,30.38,4,30.193,4,30c0-0.212,0.023-0.421,0.067-0.623c0.007-0.033,0.022-0.063,0.03-0.095
		C4.14,29.11,4.192,28.94,4.265,28.78c0.006-0.013,0.014-0.024,0.02-0.036c0.175-0.369,0.427-0.706,0.752-0.99
		c0.282-0.246,0.707-0.521,1.257-0.66c0.026-0.006,0.05-0.018,0.077-0.024C6.566,27.026,6.775,27,7,27
		c0.225,0,0.434,0.026,0.628,0.069c0.027,0.006,0.051,0.018,0.077,0.024c0.55,0.139,0.975,0.414,1.258,0.66
		c0.004,0.003,0.009,0.004,0.013,0.007C9.599,28.31,10,29.106,10,30c0,0.552,0.448,1,1,1s1-0.448,1-1
		c0-1.489-0.668-2.814-1.705-3.731c-0.007-0.007-0.01-0.016-0.017-0.022c-0.03-0.026-0.065-0.045-0.096-0.071
		C9.315,25.453,8.215,25,7,25c-0.614,0-1.196,0.126-1.74,0.33c-0.015,0.006-0.031,0.009-0.046,0.014
		c-0.185,0.071-0.358,0.16-0.532,0.252c-0.049,0.026-0.102,0.043-0.15,0.071c-0.093-0.134-0.18-0.271-0.249-0.416
		c-0.015-0.033-0.026-0.067-0.04-0.1c-0.061-0.142-0.109-0.288-0.147-0.437c-0.012-0.05-0.025-0.099-0.035-0.15
		C4.025,24.38,4,24.193,4,24c0-0.212,0.023-0.421,0.067-0.623c0.007-0.033,0.022-0.063,0.03-0.095
		C4.14,23.11,4.192,22.94,4.265,22.78c0.006-0.013,0.014-0.024,0.02-0.036c0.175-0.369,0.427-0.706,0.752-0.99
		c0.282-0.246,0.707-0.521,1.257-0.66c0.026-0.006,0.05-0.018,0.077-0.024C6.566,21.026,6.775,21,7,21
		c0.225,0,0.434,0.026,0.628,0.069c0.027,0.006,0.051,0.018,0.077,0.024c0.55,0.139,0.975,0.414,1.258,0.66
		c0.004,0.003,0.009,0.004,0.013,0.007C9.599,22.31,10,23.106,10,24c0,0.552,0.448,1,1,1s1-0.448,1-1
		c0-1.489-0.668-2.814-1.705-3.731c-0.007-0.007-0.01-0.016-0.017-0.022c-0.03-0.026-0.065-0.045-0.096-0.071
		C9.315,19.453,8.215,19,7,19c-0.614,0-1.196,0.126-1.74,0.33c-0.015,0.006-0.031,0.009-0.046,0.014
		c-0.185,0.071-0.358,0.16-0.532,0.252c-0.049,0.026-0.102,0.043-0.15,0.071c-0.093-0.134-0.18-0.271-0.249-0.416
		c-0.015-0.033-0.026-0.067-0.04-0.1c-0.061-0.142-0.109-0.288-0.147-0.437c-0.012-0.05-0.025-0.099-0.035-0.15
		C4.025,18.38,4,18.193,4,18c0-1.654,1.346-3,3-3s3,1.346,3,3c0,0.552,0.448,1,1,1s1-0.448,1-1c0-2.414-1.721-4.434-4-4.899V3.902
		C8,2.854,8.854,2,9.902,2h42.195C53.146,2,54,2.854,54,3.902V46H12z"/>
	<path d="M38.485,17.929l-0.707-0.707c-4.289-4.289-11.267-4.289-15.557,0c-4.289,4.289-4.289,11.268,0,15.557
		c2.145,2.145,4.961,3.216,7.778,3.216s5.634-1.072,7.778-3.216l0.707-0.707L31.414,25L38.485,17.929z M35.618,32.032
		c-3.531,2.825-8.713,2.602-11.982-0.668c-3.509-3.509-3.509-9.219,0-12.729c1.755-1.754,4.06-2.632,6.364-2.632
		c1.991,0,3.982,0.655,5.618,1.964L28.586,25L35.618,32.032z"/>
	<circle cx="29" cy="20" r="2"/>
	<path d="M39,24h-3c-0.552,0-1,0.448-1,1s0.448,1,1,1h3c0.552,0,1-0.448,1-1S39.552,24,39,24z"/>
	<path d="M45,24h-2c-0.552,0-1,0.448-1,1s0.448,1,1,1h2c0.552,0,1-0.448,1-1S45.552,24,45,24z"/>
</g>
<g>
</g>
<g>
</g>
<g>
</g>
<g>
</g>
<g>
</g>
<g>
</g>
<g>
</g>
<g>
</g>
<g>
</g>
<g>
</g>
<g>
</g>
<g>
</g>
<g>
</g>
<g>
</g>
<g>
</g>
</svg>
