<?xml version="1.0" encoding="iso-8859-1"?>
<!-- Generator: Adobe Illustrator 18.0.0, SVG Export Plug-In . SVG Version: 6.00 Build 0)  -->
<!DOCTYPE svg PUBLIC "-//W3C//DTD SVG 1.1//EN" "http://www.w3.org/Graphics/SVG/1.1/DTD/svg11.dtd">
<svg version="1.1" id="Capa_1" xmlns="http://www.w3.org/2000/svg" xmlns:xlink="http://www.w3.org/1999/xlink" x="0px" y="0px"
	 viewBox="0 0 53.975 53.975" style="enable-background:new 0 0 53.975 53.975;" xml:space="preserve">
<g>
	<path d="M39.481,25.987c-0.552,0-1,0.448-1,1s0.448,1,1,1h3c0.552,0,1-0.448,1-1s-0.448-1-1-1H39.481z"/>
	<path d="M52.481,25.987h-2c-0.552,0-1,0.448-1,1s0.448,1,1,1h2c0.552,0,1-0.448,1-1S53.033,25.987,52.481,25.987z"/>
	<path d="M46.573,7.896c-10.527-10.527-27.656-10.527-38.184,0s-10.527,27.656,0,38.184c5.264,5.264,12.178,7.896,19.092,7.896
		s13.828-2.632,19.092-7.896l0.707-0.707L28.895,26.987L47.28,8.603L46.573,7.896z M26.067,26.987l18.371,18.371
		c-9.794,9.049-25.124,8.816-34.634-0.693c-4.722-4.722-7.322-11-7.322-17.678S5.082,14.032,9.803,9.31
		c4.874-4.874,11.276-7.311,17.678-7.311c6.091,0,12.182,2.206,16.957,6.618L26.067,26.987z"/>
	<path d="M24.481,8.987c-2.206,0-4,1.794-4,4s1.794,4,4,4s4-1.794,4-4S26.687,8.987,24.481,8.987z M24.481,14.987
		c-1.103,0-2-0.897-2-2s0.897-2,2-2s2,0.897,2,2S25.584,14.987,24.481,14.987z"/>
</g>
<g>
</g>
<g>
</g>
<g>
</g>
<g>
</g>
<g>
</g>
<g>
</g>
<g>
</g>
<g>
</g>
<g>
</g>
<g>
</g>
<g>
</g>
<g>
</g>
<g>
</g>
<g>
</g>
<g>
</g>
</svg>
