<?xml version="1.0" encoding="iso-8859-1"?>
<!-- Generator: Adobe Illustrator 18.0.0, SVG Export Plug-In . SVG Version: 6.00 Build 0)  -->
<!DOCTYPE svg PUBLIC "-//W3C//DTD SVG 1.1//EN" "http://www.w3.org/Graphics/SVG/1.1/DTD/svg11.dtd">
<svg version="1.1" id="Capa_1" xmlns="http://www.w3.org/2000/svg" xmlns:xlink="http://www.w3.org/1999/xlink" x="0px" y="0px"
	 viewBox="0 0 60 60" style="enable-background:new 0 0 60 60;" xml:space="preserve">
<g>
	<path d="M44,53v-1.843c0-2.274-1.837-4.123-4.104-4.152L39.562,44h0l-0.778-7h0l-0.667-6H39.5c2.481,0,4.5-2.019,4.5-4.5
		S41.981,22,39.5,22H35v-3.353c2.984-1.732,5-4.955,5-8.647c0-5.514-4.486-10-10-10S20,4.486,20,10c0,3.691,2.016,6.915,5,8.647V22
		h-4.5c-2.481,0-4.5,2.019-4.5,4.5s2.019,4.5,4.5,4.5h1.383l-1.778,16.005C17.837,47.034,16,48.883,16,51.157V53h-2v7h32v-7H44z
		 M37.883,47H22.117l0.333-3H37.55L37.883,47z M37.328,42H22.673l0.333-3h13.988L37.328,42z M22,10c0-4.411,3.589-8,8-8s8,3.589,8,8
		c0,3.026-1.689,5.664-4.173,7.023l-0.14,0.07c-0.055,0.029-0.112,0.053-0.167,0.081c-0.257,0.126-0.518,0.237-0.783,0.334
		c-0.025,0.009-0.049,0.018-0.074,0.027c-0.268,0.095-0.539,0.175-0.813,0.241c-0.018,0.004-0.036,0.01-0.055,0.014
		c-1.182,0.274-2.408,0.274-3.589,0c-0.018-0.004-0.036-0.01-0.054-0.014c-0.274-0.066-0.545-0.146-0.813-0.241
		c-0.025-0.009-0.049-0.018-0.074-0.027c-0.265-0.097-0.527-0.208-0.783-0.334c-0.055-0.027-0.112-0.052-0.167-0.081l-0.14-0.07
		C23.689,15.664,22,13.026,22,10z M27,19.539c0.108,0.034,0.22,0.058,0.33,0.088c0.172,0.048,0.344,0.095,0.517,0.133
		c0.12,0.026,0.241,0.048,0.363,0.07c0.186,0.034,0.372,0.062,0.56,0.086c0.111,0.014,0.222,0.028,0.334,0.038
		c0.272,0.024,0.545,0.039,0.819,0.042C29.949,19.996,29.974,20,30,20s0.051-0.004,0.077-0.004c0.273-0.002,0.547-0.017,0.819-0.042
		c0.112-0.01,0.223-0.025,0.334-0.038c0.188-0.023,0.374-0.052,0.56-0.086c0.122-0.022,0.243-0.044,0.363-0.07
		c0.174-0.039,0.346-0.085,0.518-0.133c0.109-0.03,0.222-0.054,0.33-0.088V22h-6V19.539z M20.5,29c-1.378,0-2.5-1.121-2.5-2.5
		s1.122-2.5,2.5-2.5H25h10h4.5c1.378,0,2.5,1.121,2.5,2.5S40.878,29,39.5,29h-1.604H22.105H20.5z M36.105,31l0.667,6H23.228l0.667-6
		H36.105z M18,51.157C18,49.968,18.967,49,20.157,49h19.687C41.033,49,42,49.968,42,51.157V53H18V51.157z M44,58H16v-3h28V58z"/>
	<path d="M27,9c0-1.103,0.897-2,2-2c0.552,0,1-0.447,1-1s-0.448-1-1-1c-2.206,0-4,1.794-4,4c0,0.553,0.448,1,1,1S27,9.553,27,9z"/>
</g>
<g>
</g>
<g>
</g>
<g>
</g>
<g>
</g>
<g>
</g>
<g>
</g>
<g>
</g>
<g>
</g>
<g>
</g>
<g>
</g>
<g>
</g>
<g>
</g>
<g>
</g>
<g>
</g>
<g>
</g>
</svg>
