<?xml version="1.0" encoding="iso-8859-1"?>
<!-- Generator: Adobe Illustrator 18.0.0, SVG Export Plug-In . SVG Version: 6.00 Build 0)  -->
<!DOCTYPE svg PUBLIC "-//W3C//DTD SVG 1.1//EN" "http://www.w3.org/Graphics/SVG/1.1/DTD/svg11.dtd">
<svg version="1.1" id="Capa_1" xmlns="http://www.w3.org/2000/svg" xmlns:xlink="http://www.w3.org/1999/xlink" x="0px" y="0px"
	 viewBox="0 0 51.099 51.099" style="enable-background:new 0 0 51.099 51.099;" xml:space="preserve">
<path d="M51.061,32.35l-0.722-16.612c-0.052-1.195-0.546-2.319-1.393-3.166l-2.13-2.13l0.529-0.529
	c0.819-0.819,1.27-1.908,1.27-3.066c0-2.391-1.945-4.336-4.336-4.336c-1.158,0-2.247,0.451-3.066,1.27L40.685,4.31l-2.188-2.188
	c-0.846-0.846-1.97-1.341-3.166-1.393L18.729,0.007c-1.565-0.1-4.616,0.774-4.988,4.795c-0.064,0.373-0.252,1.942,0.796,3.292
	c0.844,1.086,2.216,1.683,4.128,1.775h11.021c0.74,0,1.436,0.288,1.959,0.811l1.334,1.334L1.298,43.696
	c-1.69,1.691-1.69,4.442,0,6.132c0.819,0.819,1.908,1.271,3.066,1.271s2.247-0.451,3.066-1.271l31.681-31.681l1.276,1.276
	c0.523,0.523,0.811,1.219,0.811,1.959L41.2,32.452c0.091,1.863,0.688,3.235,1.774,4.079c0.909,0.706,1.918,0.851,2.593,0.851
	c0.328,0,0.577-0.034,0.698-0.055C50.277,36.956,51.157,33.92,51.061,32.35z M42.628,5.195c0.441-0.441,1.028-0.684,1.652-0.684
	c1.288,0,2.336,1.048,2.336,2.336c0,0.624-0.243,1.21-0.684,1.652l-0.529,0.529l-3.304-3.304L42.628,5.195z M6.017,48.414
	c-0.883,0.883-2.421,0.883-3.304,0c-0.911-0.911-0.911-2.393,0-3.304l31.681-31.681l3.304,3.304L6.017,48.414z M46.044,35.339
	l-0.113,0.016c-0.009,0.002-0.993,0.169-1.73-0.404c-0.604-0.47-0.942-1.344-1.002-2.548V21.382c0-1.274-0.496-2.472-1.397-3.373
	l-1.276-1.276l-6.132-6.132l-1.334-1.334C32.158,8.366,30.96,7.87,29.686,7.87L18.714,7.871C17.47,7.81,16.6,7.477,16.128,6.881
	c-0.59-0.744-0.415-1.743-0.415-1.744l0.016-0.113c0.259-2.989,2.443-3.041,2.893-3.02l16.622,0.723
	c0.694,0.03,1.347,0.317,1.838,0.809l2.188,2.188l6.132,6.132l2.129,2.129c0.492,0.492,0.779,1.145,0.809,1.839l0.723,16.622
	l0.001,0.021C49.082,32.733,49.142,35.07,46.044,35.339z"/>
<g>
</g>
<g>
</g>
<g>
</g>
<g>
</g>
<g>
</g>
<g>
</g>
<g>
</g>
<g>
</g>
<g>
</g>
<g>
</g>
<g>
</g>
<g>
</g>
<g>
</g>
<g>
</g>
<g>
</g>
</svg>
