<?xml version="1.0" encoding="iso-8859-1"?>
<!-- Generator: Adobe Illustrator 18.0.0, SVG Export Plug-In . SVG Version: 6.00 Build 0)  -->
<!DOCTYPE svg PUBLIC "-//W3C//DTD SVG 1.1//EN" "http://www.w3.org/Graphics/SVG/1.1/DTD/svg11.dtd">
<svg version="1.1" id="Capa_1" xmlns="http://www.w3.org/2000/svg" xmlns:xlink="http://www.w3.org/1999/xlink" x="0px" y="0px"
	 viewBox="0 0 58.779 58.779" style="enable-background:new 0 0 58.779 58.779;" xml:space="preserve">
<g>
	<path d="M58.425,27.888L58.425,27.888c-0.599-1.699-1.903-3.055-3.577-3.72c-1.674-0.663-3.551-0.571-5.152,0.253l-18.911,9.747
		c-1.455,0.75-2.141,2.48-1.598,4.023c0.47,1.334,1.742,2.199,3.114,2.199c0.216,0,0.436-0.021,0.654-0.066l20.843-4.264
		c1.765-0.36,3.285-1.467,4.172-3.034C58.858,31.46,59.023,29.586,58.425,27.888z M56.231,32.042
		c-0.603,1.063-1.635,1.814-2.833,2.06l-20.843,4.264c-0.63,0.127-1.267-0.231-1.48-0.838c-0.214-0.607,0.056-1.287,0.627-1.582
		l18.911-9.747c0.606-0.313,1.271-0.47,1.937-0.47c0.529,0,1.058,0.1,1.561,0.299c1.137,0.451,2.022,1.371,2.429,2.525
		C56.945,29.706,56.833,30.978,56.231,32.042z"/>
	<path d="M11.194,22.149c-1.087-1.436-2.741-2.329-4.538-2.453c-1.798-0.118-3.558,0.536-4.832,1.81s-1.934,3.035-1.81,4.832
		s1.018,3.451,2.453,4.538l16.958,12.847c0.588,0.446,1.289,0.665,1.987,0.665c0.851,0,1.697-0.325,2.333-0.961
		c1.158-1.157,1.285-3.015,0.296-4.319L11.194,22.149z M22.33,42.013c-0.454,0.456-1.183,0.505-1.697,0.116L3.675,29.282
		c-0.975-0.738-1.582-1.861-1.666-3.081c-0.083-1.221,0.364-2.416,1.229-3.281s2.06-1.316,3.281-1.229
		c1.22,0.084,2.343,0.691,3.081,1.665l12.846,16.958C22.835,40.828,22.786,41.558,22.33,42.013z"/>
	<path d="M41,21.892c0-4.136-3.364-7.5-7.5-7.5s-7.5,3.364-7.5,7.5s3.364,7.5,7.5,7.5S41,26.027,41,21.892z M28,21.892
		c0-3.032,2.467-5.5,5.5-5.5s5.5,2.468,5.5,5.5s-2.467,5.5-5.5,5.5S28,24.924,28,21.892z"/>
	<circle cx="6.5" cy="25.892" r="2.5"/>
	<circle cx="52.576" cy="29.949" r="2.5"/>
	<path d="M35,19.392c0-0.553-0.448-1-1-1c-2.206,0-4,1.794-4,4c0,0.553,0.448,1,1,1s1-0.447,1-1c0-1.103,0.897-2,2-2
		C34.552,20.392,35,19.944,35,19.392z"/>
</g>
<g>
</g>
<g>
</g>
<g>
</g>
<g>
</g>
<g>
</g>
<g>
</g>
<g>
</g>
<g>
</g>
<g>
</g>
<g>
</g>
<g>
</g>
<g>
</g>
<g>
</g>
<g>
</g>
<g>
</g>
</svg>
