<?xml version="1.0" encoding="iso-8859-1"?>
<!-- Generator: Adobe Illustrator 18.0.0, SVG Export Plug-In . SVG Version: 6.00 Build 0)  -->
<!DOCTYPE svg PUBLIC "-//W3C//DTD SVG 1.1//EN" "http://www.w3.org/Graphics/SVG/1.1/DTD/svg11.dtd">
<svg version="1.1" id="Capa_1" xmlns="http://www.w3.org/2000/svg" xmlns:xlink="http://www.w3.org/1999/xlink" x="0px" y="0px"
	 viewBox="0 0 60 60" style="enable-background:new 0 0 60 60;" xml:space="preserve">
<g>
	<path d="M6.841,12H3.159C1.417,12,0,13.417,0,15.159v20.682C0,37.583,1.417,39,3.159,39h3.682C8.583,39,10,37.583,10,35.841V15.159
		C10,13.417,8.583,12,6.841,12z M8,35.841C8,36.48,7.48,37,6.841,37H3.159C2.52,37,2,36.48,2,35.841V15.159
		C2,14.52,2.52,14,3.159,14h3.682C7.48,14,8,14.52,8,15.159V35.841z"/>
	<path d="M56.841,26h-3.682C51.417,26,50,27.417,50,29.159v20.682C50,51.583,51.417,53,53.159,53h3.682
		C58.583,53,60,51.583,60,49.841V29.159C60,27.417,58.583,26,56.841,26z M58,49.841C58,50.48,57.48,51,56.841,51h-3.682
		C52.52,51,52,50.48,52,49.841V29.159C52,28.52,52.52,28,53.159,28h3.682C57.48,28,58,28.52,58,29.159V49.841z"/>
	<path d="M39,25c-3.309,0-6,2.691-6,6s2.691,6,6,6s6-2.691,6-6S42.309,25,39,25z M39,35c-2.206,0-4-1.794-4-4s1.794-4,4-4
		s4,1.794,4,4S41.206,35,39,35z"/>
	<path d="M28,0c-0.552,0-1,0.447-1,1v58c0,0.553,0.448,1,1,1s1-0.447,1-1V1C29,0.447,28.552,0,28,0z"/>
	<path d="M35,9c-0.552,0-1,0.447-1,1s0.448,1,1,1h6c0.552,0,1-0.447,1-1s-0.448-1-1-1h-2V1.336c0-0.479-0.305-0.902-0.758-1.055
		c-0.453-0.15-0.953,0.003-1.243,0.388L34.2,4.4c-0.332,0.441-0.242,1.068,0.2,1.399c0.444,0.332,1.07,0.243,1.4-0.2L37,4v5H35z"/>
	<path d="M21,9h-3.008c1.213-1.227,2.146-2.647,2.703-3.603c0.625-1.073,0.646-2.369,0.057-3.469
		c-0.574-1.069-1.63-1.749-2.83-1.818C15.853,0.003,14,1.813,14,4c0,0.553,0.448,1,1,1s1-0.447,1-1c0-0.992,0.814-1.896,1.708-1.896
		l0.101,0.003c0.505,0.029,0.935,0.31,1.181,0.768c0.258,0.482,0.25,1.049-0.022,1.516c-0.787,1.35-2.405,3.755-4.399,4.708
		c-0.046,0.022-0.076,0.06-0.116,0.087c-0.062,0.042-0.126,0.079-0.177,0.133c-0.045,0.048-0.073,0.104-0.107,0.159
		c-0.034,0.054-0.073,0.103-0.096,0.164c-0.027,0.07-0.033,0.144-0.044,0.219C14.021,9.907,14,9.95,14,10
		c0,0.008,0.004,0.014,0.004,0.021c0.001,0.067,0.025,0.132,0.04,0.199c0.015,0.064,0.021,0.13,0.048,0.189
		c0.003,0.007,0.002,0.015,0.006,0.022c0.048,0.099,0.112,0.184,0.184,0.259c0.018,0.018,0.039,0.031,0.057,0.048
		c0.069,0.061,0.144,0.112,0.225,0.152c0.03,0.015,0.059,0.028,0.091,0.04C14.766,10.971,14.88,11,14.999,11L15,11h6
		c0.552,0,1-0.447,1-1S21.552,9,21,9z"/>
</g>
<g>
</g>
<g>
</g>
<g>
</g>
<g>
</g>
<g>
</g>
<g>
</g>
<g>
</g>
<g>
</g>
<g>
</g>
<g>
</g>
<g>
</g>
<g>
</g>
<g>
</g>
<g>
</g>
<g>
</g>
</svg>
