<?xml version="1.0" encoding="iso-8859-1"?>
<!-- Generator: Adobe Illustrator 18.0.0, SVG Export Plug-In . SVG Version: 6.00 Build 0)  -->
<!DOCTYPE svg PUBLIC "-//W3C//DTD SVG 1.1//EN" "http://www.w3.org/Graphics/SVG/1.1/DTD/svg11.dtd">
<svg version="1.1" id="Capa_1" xmlns="http://www.w3.org/2000/svg" xmlns:xlink="http://www.w3.org/1999/xlink" x="0px" y="0px"
	 viewBox="0 0 60 60" style="enable-background:new 0 0 60 60;" xml:space="preserve">
<g>
	<path d="M50.342,4h-3.958C44.455,4,43,5.376,43,7.2V9h2V7.2C45,6.375,45.718,6,46.384,6h3.958C51.126,6,52,6.493,52,7.2v2.383
		C52,9.708,51.805,10,50,10c-1.738,0-3,1.521-3,3.617V16h2v-2.383C49,12.967,49.267,12,50,12c0.989,0,4,0,4-2.417V7.2
		C54,5.224,52.102,4,50.342,4z"/>
	<rect x="47" y="18" width="2" height="2"/>
	<path d="M36.246,25H2.754C1.235,25,0,26.235,0,27.754v8.492C0,37.765,1.235,39,2.754,39H4v21h31V39h1.246
		C37.765,39,39,37.765,39,36.246v-8.492C39,26.235,37.765,25,36.246,25z M33,58H6V39h27V58z M37,36.246
		C37,36.662,36.662,37,36.246,37H35H4H2.754C2.338,37,2,36.662,2,36.246v-8.492C2,27.338,2.338,27,2.754,27h33.492
		C36.662,27,37,27.338,37,27.754V36.246z"/>
	<path d="M57.094,0H38.906C37.304,0,36,1.304,36,2.906v18.188C36,22.696,37.304,24,38.906,24h18.188C58.696,24,60,22.696,60,21.094
		V2.906C60,1.304,58.696,0,57.094,0z M58,21.094c0,0.5-0.406,0.906-0.906,0.906H38.906C38.406,22,38,21.593,38,21.094V2.906
		C38,2.407,38.406,2,38.906,2h18.188C57.594,2,58,2.407,58,2.906V21.094z"/>
</g>
<g>
</g>
<g>
</g>
<g>
</g>
<g>
</g>
<g>
</g>
<g>
</g>
<g>
</g>
<g>
</g>
<g>
</g>
<g>
</g>
<g>
</g>
<g>
</g>
<g>
</g>
<g>
</g>
<g>
</g>
</svg>
