<?xml version="1.0" encoding="iso-8859-1"?>
<!-- Generator: Adobe Illustrator 18.0.0, SVG Export Plug-In . SVG Version: 6.00 Build 0)  -->
<!DOCTYPE svg PUBLIC "-//W3C//DTD SVG 1.1//EN" "http://www.w3.org/Graphics/SVG/1.1/DTD/svg11.dtd">
<svg version="1.1" id="Capa_1" xmlns="http://www.w3.org/2000/svg" xmlns:xlink="http://www.w3.org/1999/xlink" x="0px" y="0px"
	 viewBox="0 0 60.036 60.036" style="enable-background:new 0 0 60.036 60.036;" xml:space="preserve">
<g>
	<path d="M47.648,20.795c-2.834-2.02-5.921-1.28-7.734-0.317c-1.255-1.624-3.763-3.567-7.177-2.899
		c-1.968,0.387-3.719,1.651-4.931,3.562c-1.294,2.04-1.746,4.538-1.207,6.682c0.73,2.904,2.755,7.593,8.253,13.434l0.472,0.501
		l0.637-0.262c7.416-3.054,11.194-6.491,13.058-8.837c1.374-1.73,1.993-4.191,1.655-6.584
		C50.356,23.833,49.282,21.958,47.648,20.795z M47.452,31.413c-1.663,2.094-5.019,5.146-11.615,7.964
		c-4.848-5.287-6.647-9.451-7.299-12.044c-0.407-1.621-0.05-3.536,0.956-5.122c0.902-1.421,2.224-2.395,3.628-2.67
		c0.35-0.069,0.683-0.1,1-0.1c2.986,0,4.549,2.75,4.619,2.877l0.555,1.02l0.926-0.7c0.032-0.024,3.218-2.382,6.265-0.214
		c1.166,0.83,1.969,2.262,2.205,3.93C48.956,28.213,48.492,30.104,47.452,31.413z"/>
	<path d="M57.41,8.511L28.906,2.363c-1.788-0.387-3.566,0.758-3.953,2.551l-0.43,1.994L9.635,4.847
		C8.754,4.727,7.88,4.954,7.171,5.489C6.462,6.026,6.005,6.805,5.883,7.686L0.032,49.967c-0.251,1.816,1.022,3.499,2.839,3.751
		l28.885,3.997c0.154,0.021,0.306,0.032,0.458,0.032c1.633,0,3.063-1.208,3.293-2.871l0.083-0.6l11.418,2.463
		c0.235,0.051,0.47,0.075,0.701,0.075c1.533,0,2.916-1.068,3.252-2.626l9-41.725C60.347,10.673,59.203,8.899,57.41,8.511z
		 M33.628,53.854l-0.104,0.748c-0.1,0.724-0.77,1.229-1.496,1.133L3.145,51.738c-0.725-0.101-1.233-0.772-1.132-1.497l5.851-42.28
		c0.048-0.352,0.231-0.662,0.514-0.876c0.232-0.177,0.51-0.27,0.797-0.27c0.062,0,0.123,0.005,0.185,0.013l14.74,2.04l-1.488,6.897
		l-0.265-0.243l-0.615,0.31c-7.168,3.601-10.678,7.312-12.36,9.79c-1.24,1.828-1.673,4.328-1.157,6.688
		c0.483,2.21,1.695,3.999,3.411,5.037c1.234,0.746,2.436,1.017,3.53,1.017c1.015,0,1.929-0.237,2.698-0.538l-1.901,8.812
		c-0.188,0.868-0.025,1.758,0.456,2.505c0.482,0.747,1.226,1.261,2.094,1.448L33.628,53.854z M18.394,35.319
		c-1.091,0.724-3.332,1.771-5.733,0.317c-1.225-0.74-2.133-2.108-2.493-3.753c-0.401-1.835-0.08-3.756,0.858-5.139
		c1.501-2.212,4.619-5.508,10.985-8.812c0.037,0.035,0.073,0.069,0.109,0.104L18.394,35.319z M58.005,12.043l-9,41.725
		c-0.154,0.715-0.859,1.175-1.577,1.018L35.864,52.29l0,0l-16.938-3.653h0c-0.346-0.074-0.643-0.279-0.834-0.577
		c-0.192-0.298-0.257-0.652-0.182-0.999l9-41.725c0.134-0.621,0.686-1.048,1.297-1.048c0.092,0,0.186,0.01,0.279,0.03l28.503,6.148
		C57.703,10.621,58.16,11.328,58.005,12.043z"/>
</g>
<g>
</g>
<g>
</g>
<g>
</g>
<g>
</g>
<g>
</g>
<g>
</g>
<g>
</g>
<g>
</g>
<g>
</g>
<g>
</g>
<g>
</g>
<g>
</g>
<g>
</g>
<g>
</g>
<g>
</g>
</svg>
