<?xml version="1.0" encoding="iso-8859-1"?>
<!-- Generator: Adobe Illustrator 18.0.0, SVG Export Plug-In . SVG Version: 6.00 Build 0)  -->
<!DOCTYPE svg PUBLIC "-//W3C//DTD SVG 1.1//EN" "http://www.w3.org/Graphics/SVG/1.1/DTD/svg11.dtd">
<svg version="1.1" id="Capa_1" xmlns="http://www.w3.org/2000/svg" xmlns:xlink="http://www.w3.org/1999/xlink" x="0px" y="0px"
	 viewBox="0 0 58 58" style="enable-background:new 0 0 58 58;" xml:space="preserve">
<g>
	<path d="M57.44,34.67c0.042-0.21,0.076-0.421,0.113-0.631c0.062-0.352,0.119-0.705,0.168-1.061
		c0.028-0.203,0.054-0.406,0.078-0.609c0.045-0.384,0.08-0.771,0.109-1.159c0.013-0.174,0.03-0.347,0.04-0.521
		C57.979,30.129,58,29.567,58,29s-0.021-1.129-0.053-1.687c-0.01-0.174-0.027-0.347-0.04-0.521c-0.03-0.389-0.065-0.775-0.109-1.159
		c-0.024-0.204-0.05-0.406-0.078-0.609c-0.049-0.356-0.106-0.709-0.168-1.061c-0.037-0.211-0.072-0.422-0.113-0.631
		c-0.073-0.368-0.157-0.731-0.244-1.094c-0.038-0.161-0.067-0.325-0.108-0.485L56.894,21h-0.025
		C54.118,11.432,46.568,3.882,37,1.131V1.106l-0.751-0.193c-0.15-0.038-0.302-0.065-0.453-0.101
		c-0.38-0.092-0.761-0.179-1.147-0.256c-0.182-0.036-0.364-0.066-0.547-0.098c-0.401-0.072-0.804-0.135-1.211-0.19
		c-0.145-0.019-0.291-0.038-0.436-0.056c-0.492-0.059-0.988-0.105-1.487-0.139c-0.062-0.004-0.124-0.01-0.186-0.014
		C30.192,0.024,29.599,0,29,0s-1.192,0.024-1.782,0.06c-0.062,0.004-0.124,0.01-0.186,0.014c-0.499,0.034-0.995,0.08-1.487,0.139
		c-0.146,0.017-0.291,0.036-0.436,0.056c-0.406,0.055-0.81,0.119-1.211,0.19c-0.183,0.032-0.365,0.062-0.547,0.098
		c-0.386,0.076-0.767,0.164-1.147,0.256c-0.15,0.036-0.303,0.062-0.453,0.101L21,1.106v0.025C11.432,3.882,3.882,11.432,1.131,21
		H1.106l-0.193,0.751c-0.041,0.16-0.07,0.323-0.108,0.483c-0.087,0.364-0.172,0.728-0.245,1.097
		c-0.041,0.209-0.076,0.418-0.112,0.628c-0.062,0.353-0.119,0.707-0.168,1.064c-0.028,0.203-0.054,0.405-0.078,0.609
		c-0.045,0.385-0.08,0.773-0.109,1.163c-0.013,0.173-0.029,0.344-0.039,0.517C0.021,27.871,0,28.433,0,29s0.021,1.129,0.053,1.689
		c0.01,0.173,0.026,0.345,0.039,0.517c0.029,0.39,0.065,0.777,0.109,1.163c0.024,0.203,0.05,0.406,0.078,0.609
		c0.049,0.357,0.106,0.711,0.168,1.064c0.037,0.21,0.071,0.419,0.112,0.628c0.073,0.369,0.158,0.733,0.245,1.097
		c0.038,0.161,0.067,0.323,0.108,0.483L1.106,37h0.025C3.882,46.568,11.432,54.118,21,56.869v0.025l0.751,0.193
		c0.16,0.041,0.323,0.07,0.483,0.108c0.364,0.087,0.728,0.172,1.097,0.245c0.208,0.041,0.418,0.076,0.628,0.112
		c0.353,0.062,0.707,0.119,1.064,0.168c0.203,0.028,0.405,0.054,0.609,0.078c0.385,0.045,0.773,0.08,1.163,0.11
		c0.172,0.013,0.344,0.029,0.517,0.039C27.871,57.979,28.433,58,29,58s1.129-0.021,1.689-0.053c0.173-0.01,0.345-0.026,0.517-0.039
		c0.39-0.029,0.777-0.065,1.163-0.11c0.203-0.024,0.406-0.05,0.609-0.078c0.357-0.049,0.711-0.106,1.064-0.168
		c0.21-0.037,0.419-0.071,0.628-0.112c0.369-0.073,0.733-0.158,1.097-0.245c0.16-0.038,0.323-0.067,0.483-0.108L37,56.894v-0.025
		C46.568,54.118,54.118,46.568,56.869,37h0.025l0.193-0.751c0.041-0.16,0.07-0.324,0.108-0.485
		C57.282,35.401,57.366,35.038,57.44,34.67z M55.96,30.454c-0.009,0.162-0.025,0.321-0.037,0.482
		c-0.023,0.318-0.046,0.636-0.079,0.953c-0.022,0.207-0.052,0.411-0.078,0.616c-0.034,0.263-0.068,0.527-0.11,0.789
		c-0.038,0.238-0.083,0.474-0.127,0.71c-0.041,0.221-0.084,0.441-0.13,0.66c-0.024,0.112-0.052,0.223-0.078,0.335h-9.215
		C46.699,33.033,47,31.021,47,29s-0.301-4.033-0.896-6h9.215c0.026,0.112,0.053,0.222,0.078,0.335c0.047,0.219,0.089,0.44,0.13,0.66
		c0.044,0.236,0.089,0.472,0.127,0.71c0.042,0.262,0.076,0.526,0.11,0.789c0.027,0.205,0.056,0.41,0.078,0.616
		c0.034,0.317,0.057,0.635,0.079,0.953c0.011,0.161,0.028,0.321,0.037,0.482C55.985,28.029,56,28.514,56,29
		S55.985,29.971,55.96,30.454z M54.79,21H45.1c-1.748-3.503-4.598-6.353-8.1-8.1V3.21C45.465,5.842,52.158,12.535,54.79,21z
		 M30.024,44.948c-0.682,0.038-1.365,0.038-2.048,0C19.631,44.416,13,37.477,13,29c0-8.479,6.635-15.42,14.983-15.948
		c0.678-0.037,1.356-0.037,2.034,0C38.365,13.58,45,20.521,45,29C45,37.477,38.369,44.416,30.024,44.948z M35,46.104v9.215
		c-0.11,0.025-0.22,0.053-0.331,0.077c-0.228,0.049-0.457,0.092-0.686,0.135c-0.223,0.042-0.447,0.084-0.672,0.12
		c-0.302,0.048-0.604,0.088-0.907,0.126c-0.161,0.02-0.32,0.044-0.482,0.061c-0.43,0.046-0.861,0.081-1.293,0.107
		c-0.044,0.003-0.087,0.008-0.131,0.01c-0.998,0.054-1.999,0.054-2.997,0c-0.044-0.002-0.087-0.007-0.131-0.01
		c-0.432-0.026-0.863-0.061-1.293-0.107c-0.161-0.017-0.321-0.041-0.482-0.061c-0.303-0.038-0.606-0.078-0.907-0.126
		c-0.225-0.036-0.448-0.078-0.672-0.12c-0.229-0.043-0.458-0.086-0.686-0.135C23.22,55.372,23.11,55.345,23,55.32v-9.215
		c1.351,0.409,2.727,0.666,4.109,0.794c0.03,0.003,0.06,0.007,0.091,0.01c0.517,0.045,1.034,0.072,1.552,0.079
		C28.835,46.989,28.916,47,29,47s0.165-0.011,0.248-0.013c0.518-0.006,1.035-0.033,1.552-0.079c0.03-0.003,0.06-0.007,0.091-0.01
		C32.273,46.771,33.649,46.513,35,46.104z M23,11.896V2.68c0.111-0.025,0.22-0.053,0.331-0.077c0.227-0.048,0.455-0.092,0.683-0.135
		c0.224-0.042,0.449-0.084,0.675-0.121C24.99,2.3,25.292,2.26,25.594,2.222c0.161-0.02,0.321-0.044,0.483-0.062
		c0.427-0.046,0.855-0.081,1.284-0.106c0.047-0.003,0.094-0.008,0.141-0.011c0.997-0.054,1.998-0.054,2.995,0
		c0.047,0.003,0.094,0.008,0.141,0.011c0.429,0.026,0.857,0.061,1.284,0.106c0.162,0.018,0.322,0.041,0.483,0.062
		C32.708,2.26,33.01,2.3,33.311,2.348c0.226,0.036,0.451,0.079,0.675,0.121c0.228,0.042,0.456,0.086,0.683,0.135
		C34.78,2.628,34.889,2.655,35,2.68v9.215C33.033,11.301,31.021,11,29,11S24.967,11.301,23,11.896z M21,3.21V12.9
		c-3.503,1.748-6.353,4.598-8.1,8.1H3.21C5.842,12.535,12.535,5.842,21,3.21z M11.896,35H2.68c-0.026-0.112-0.053-0.222-0.078-0.335
		c-0.047-0.219-0.089-0.44-0.13-0.66c-0.044-0.236-0.089-0.472-0.127-0.71c-0.042-0.262-0.076-0.526-0.11-0.789
		c-0.027-0.205-0.056-0.41-0.078-0.616c-0.034-0.317-0.057-0.635-0.079-0.953c-0.011-0.161-0.028-0.321-0.037-0.482
		C2.015,29.971,2,29.486,2,29s0.015-0.971,0.04-1.454c0.009-0.162,0.025-0.321,0.037-0.482c0.023-0.318,0.046-0.636,0.079-0.953
		c0.022-0.207,0.052-0.411,0.078-0.616c0.034-0.263,0.068-0.527,0.11-0.789c0.038-0.238,0.083-0.474,0.127-0.71
		c0.041-0.221,0.084-0.441,0.13-0.66C2.627,23.222,2.655,23.112,2.68,23h9.215C11.301,24.967,11,26.979,11,29
		S11.301,33.033,11.896,35z M3.21,37H12.9c1.748,3.503,4.598,6.353,8.1,8.1v9.689C12.535,52.158,5.842,45.465,3.21,37z M37,54.79
		V45.1c3.503-1.748,6.353-4.598,8.1-8.1h9.689C52.158,45.465,45.465,52.158,37,54.79z"/>
	<path d="M33.546,25.055C33.832,24.427,34,23.734,34,23c0-2.757-2.243-5-5-5s-5,2.243-5,5c0,0.734,0.168,1.427,0.454,2.055
		C21.956,25.332,20,27.43,20,30c0,2.757,2.243,5,5,5c1.146,0,2.19-0.403,3.035-1.054c-0.025,0.805-0.203,2.04-0.976,2.919
		C26.396,37.618,25.367,38,24,38c-0.553,0-1,0.447-1,1s0.447,1,1,1c1.975,0,3.513-0.614,4.571-1.826
		c1.161-1.329,1.427-3.054,1.462-4.172C30.865,34.621,31.885,35,33,35c2.757,0,5-2.243,5-5C38,27.43,36.044,25.332,33.546,25.055z
		 M29,20c1.654,0,3,1.346,3,3s-1.346,3-3,3s-3-1.346-3-3S27.346,20,29,20z M25,33c-1.654,0-3-1.346-3-3s1.346-3,3-3s3,1.346,3,3
		S26.654,33,25,33z M33,33c-1.654,0-3-1.346-3-3s1.346-3,3-3s3,1.346,3,3S34.654,33,33,33z"/>
</g>
<g>
</g>
<g>
</g>
<g>
</g>
<g>
</g>
<g>
</g>
<g>
</g>
<g>
</g>
<g>
</g>
<g>
</g>
<g>
</g>
<g>
</g>
<g>
</g>
<g>
</g>
<g>
</g>
<g>
</g>
</svg>
