<?xml version="1.0" encoding="iso-8859-1"?>
<!-- Generator: Adobe Illustrator 18.0.0, SVG Export Plug-In . SVG Version: 6.00 Build 0)  -->
<!DOCTYPE svg PUBLIC "-//W3C//DTD SVG 1.1//EN" "http://www.w3.org/Graphics/SVG/1.1/DTD/svg11.dtd">
<svg version="1.1" id="Capa_1" xmlns="http://www.w3.org/2000/svg" xmlns:xlink="http://www.w3.org/1999/xlink" x="0px" y="0px"
	 viewBox="0 0 60.001 60.001" style="enable-background:new 0 0 60.001 60.001;" xml:space="preserve">
<g>
	<path d="M26.762,28.377h-5.017c0.807-1.156,1.255-2.546,1.255-4c0-3.859-3.141-7-7-7s-7,3.141-7,7c0,1.454,0.448,2.844,1.255,4
		H4.238C1.901,28.377,0,30.279,0,32.616v8.447c0,0.441,0.289,0.83,0.711,0.957c0.425,0.131,0.879-0.037,1.122-0.404
		C2.764,40.214,4.321,39.377,6,39.377c2.757,0,5,2.243,5,5s-2.243,5-5,5c-1.679,0-3.236-0.837-4.167-2.238
		c-0.243-0.368-0.697-0.534-1.122-0.404C0.289,46.862,0,47.25,0,47.692v7.447c0,2.337,1.901,4.238,4.238,4.238h22.523
		c2.337,0,4.238-1.901,4.238-4.238V48.84c0-0.395-0.232-0.752-0.593-0.913s-0.78-0.094-1.075,0.169
		c-0.921,0.826-2.104,1.281-3.332,1.281c-2.757,0-5-2.243-5-5s2.243-5,5-5c1.228,0,2.411,0.455,3.332,1.281
		c0.294,0.264,0.714,0.33,1.075,0.169C30.768,40.666,31,40.309,31,39.914v-7.299C31,30.279,29.099,28.377,26.762,28.377z M29,38.057
		c-0.931-0.444-1.953-0.68-3-0.68c-3.859,0-7,3.141-7,7s3.141,7,7,7c1.047,0,2.069-0.235,3-0.68v4.441
		c0,1.234-1.004,2.238-2.238,2.238H4.238C3.004,57.377,2,56.373,2,55.139v-5.017c1.156,0.807,2.546,1.255,4,1.255
		c3.859,0,7-3.141,7-7s-3.141-7-7-7c-1.454,0-2.844,0.448-4,1.255v-6.017c0-1.234,1.004-2.238,2.238-2.238h8.447
		c0.441,0,0.83-0.289,0.957-0.711c0.128-0.422-0.036-0.878-0.403-1.122C11.837,27.613,11,26.055,11,24.377c0-2.757,2.243-5,5-5
		s5,2.243,5,5c0,1.678-0.837,3.235-2.239,4.167c-0.367,0.244-0.531,0.7-0.403,1.122c0.127,0.422,0.516,0.711,0.957,0.711h7.447
		c1.234,0,2.238,1.004,2.238,2.238V38.057z"/>
	<path d="M59.548,7.827c-0.473-0.866-1.254-1.496-2.2-1.774L39.375,0.776c-0.947-0.279-1.945-0.171-2.811,0.301
		c-0.866,0.473-1.496,1.255-1.774,2.202l-1.087,3.702c-0.732-0.82-1.688-1.434-2.777-1.754c-3.168-0.928-6.505,0.892-7.436,4.06
		c-0.45,1.535-0.276,3.154,0.49,4.559s2.034,2.426,3.569,2.877c1.091,0.318,2.225,0.32,3.284,0.026l-1.322,4.502
		c-0.277,0.946-0.17,1.944,0.303,2.81c0.473,0.866,1.254,1.496,2.2,1.774l3.703,1.087c-0.82,0.732-1.434,1.688-1.754,2.777
		c-0.93,3.168,0.892,6.504,4.06,7.436c0.56,0.164,1.13,0.245,1.696,0.245c0.989,0,1.969-0.248,2.862-0.735
		c1.404-0.767,2.426-2.034,2.877-3.569c0.319-1.09,0.32-2.225,0.026-3.284l4.501,1.321c0.946,0.278,1.945,0.171,2.811-0.301
		c0.866-0.473,1.496-1.255,1.773-2.201l1.98-6.74c0.125-0.424-0.043-0.878-0.412-1.119c-0.368-0.241-0.852-0.212-1.19,0.071
		c-1.029,0.863-2.409,1.157-3.694,0.777c-2.11-0.619-3.323-2.841-2.703-4.952c0.3-1.022,0.98-1.867,1.916-2.378
		c0.935-0.511,2.013-0.628,3.036-0.325c1.284,0.377,2.288,1.367,2.687,2.65c0.13,0.419,0.518,0.704,0.955,0.704
		c0.002,0,0.005,0,0.008,0c0.44-0.003,0.827-0.295,0.952-0.718l1.744-5.942C60.128,9.692,60.021,8.694,59.548,7.827z M57.93,10.074
		l-1.087,3.703c-0.732-0.819-1.688-1.433-2.776-1.752c-1.536-0.454-3.154-0.278-4.559,0.489c-1.404,0.767-2.426,2.034-2.877,3.569
		c-0.45,1.535-0.276,3.154,0.49,4.559s2.034,2.426,3.569,2.877c1.089,0.318,2.223,0.32,3.284,0.025l-1.323,4.502
		c-0.127,0.434-0.416,0.792-0.813,1.009c-0.396,0.217-0.853,0.267-1.288,0.138l-6.74-1.979c-0.426-0.125-0.879,0.043-1.119,0.413
		c-0.241,0.369-0.212,0.853,0.071,1.19c0.864,1.027,1.154,2.408,0.776,3.694c-0.3,1.022-0.98,1.866-1.916,2.377
		c-0.935,0.511-2.013,0.625-3.035,0.327c-2.111-0.621-3.324-2.843-2.704-4.953c0.377-1.285,1.368-2.289,2.651-2.688
		c0.422-0.131,0.707-0.521,0.704-0.963c-0.003-0.44-0.295-0.827-0.718-0.952l-5.943-1.745c-0.434-0.127-0.792-0.416-1.009-0.813
		c-0.217-0.397-0.266-0.854-0.138-1.289l1.979-6.741c0.124-0.424-0.044-0.878-0.413-1.119c-0.167-0.108-0.357-0.162-0.547-0.162
		c-0.229,0-0.459,0.079-0.644,0.234c-1.028,0.865-2.411,1.157-3.693,0.777h-0.001c-1.022-0.3-1.866-0.98-2.377-1.916
		s-0.627-2.014-0.327-3.035c0.621-2.11,2.848-3.328,4.953-2.704c1.285,0.377,2.289,1.368,2.688,2.651
		c0.13,0.419,0.518,0.704,0.955,0.704c0.003,0,0.006,0,0.008,0c0.441-0.004,0.828-0.296,0.952-0.72l1.745-5.941
		c0.127-0.434,0.416-0.792,0.813-1.009s0.854-0.267,1.288-0.138l17.973,5.278c0.435,0.127,0.792,0.416,1.009,0.813
		C58.009,9.183,58.058,9.64,57.93,10.074z"/>
</g>
<g>
</g>
<g>
</g>
<g>
</g>
<g>
</g>
<g>
</g>
<g>
</g>
<g>
</g>
<g>
</g>
<g>
</g>
<g>
</g>
<g>
</g>
<g>
</g>
<g>
</g>
<g>
</g>
<g>
</g>
</svg>
