<?xml version="1.0" encoding="iso-8859-1"?>
<!-- Generator: Adobe Illustrator 18.0.0, SVG Export Plug-In . SVG Version: 6.00 Build 0)  -->
<!DOCTYPE svg PUBLIC "-//W3C//DTD SVG 1.1//EN" "http://www.w3.org/Graphics/SVG/1.1/DTD/svg11.dtd">
<svg version="1.1" id="Capa_1" xmlns="http://www.w3.org/2000/svg" xmlns:xlink="http://www.w3.org/1999/xlink" x="0px" y="0px"
	 viewBox="0 0 60 60" style="enable-background:new 0 0 60 60;" xml:space="preserve">
<g>
	<path d="M30,10c2.757,0,5-2.243,5-5s-2.243-5-5-5s-5,2.243-5,5S27.243,10,30,10z M30,2c1.654,0,3,1.346,3,3s-1.346,3-3,3
		s-3-1.346-3-3S28.346,2,30,2z"/>
	<path d="M44,53v-1.843c0-2.268-1.827-4.111-4.086-4.15L39.641,44l0,0l-0.049-0.538L38.095,27H40c1.93,0,3.5-1.57,3.5-3.5
		S41.93,20,40,20h-1.484l3.195-7.461l-5.4,1.344L32.8,10.391L30,15.057l-2.8-4.666l-3.511,3.492l-5.4-1.344L21.484,20H20
		c-1.93,0-3.5,1.57-3.5,3.5S18.07,27,20,27h1.905l-1.497,16.462L20.359,44l0,0l-0.273,3.007C17.827,47.046,16,48.889,16,51.157V53
		h-2v7h32v-7H44z M37.451,42H22.55l0.151-1.667L22.822,39h14.356l0.121,1.333L37.451,42z M21.711,15.451l2.589,0.645l2.5-2.486
		l3.2,5.334l3.2-5.334l2.5,2.486l2.589-0.645L36.34,20H23.66L21.711,15.451z M20,25c-0.827,0-1.5-0.673-1.5-1.5S19.173,22,20,22
		h2.34H37.66H40c0.827,0,1.5,0.673,1.5,1.5S40.827,25,40,25h-2.086H22.087H20z M36.087,27l0.909,10H23.004l0.909-10H36.087z
		 M37.633,44l0.273,3h-15.81l0.273-3H37.633z M18,51.157C18,49.968,18.967,49,20.157,49h19.687C41.033,49,42,49.968,42,51.157V53H18
		V51.157z M44,58H16v-3h28V58z"/>
</g>
<g>
</g>
<g>
</g>
<g>
</g>
<g>
</g>
<g>
</g>
<g>
</g>
<g>
</g>
<g>
</g>
<g>
</g>
<g>
</g>
<g>
</g>
<g>
</g>
<g>
</g>
<g>
</g>
<g>
</g>
</svg>
