<?xml version="1.0" encoding="iso-8859-1"?>
<!-- Generator: Adobe Illustrator 18.0.0, SVG Export Plug-In . SVG Version: 6.00 Build 0)  -->
<!DOCTYPE svg PUBLIC "-//W3C//DTD SVG 1.1//EN" "http://www.w3.org/Graphics/SVG/1.1/DTD/svg11.dtd">
<svg version="1.1" id="Capa_1" xmlns="http://www.w3.org/2000/svg" xmlns:xlink="http://www.w3.org/1999/xlink" x="0px" y="0px"
	 viewBox="0 0 55 55" style="enable-background:new 0 0 55 55;" xml:space="preserve">
<path d="M41.5,48v-1.843c0-2.268-1.827-4.111-4.086-4.15L37.141,39l0,0l-0.049-0.538L35.595,22H37.5c1.93,0,3.5-1.57,3.5-3.5
	c0-1.515-0.974-2.796-2.324-3.282L41.72,0h-6.04l-1,5H31.5V0h-8v5h-2.323l-2-5H13.28l3.044,15.218C14.974,15.704,14,16.985,14,18.5
	c0,1.93,1.57,3.5,3.5,3.5h1.905l-1.497,16.462L17.859,39l0,0l-0.273,3.007c-2.259,0.039-4.086,1.882-4.086,4.15V48h-2v7h32v-7H41.5z
	 M34.951,37H20.05l0.151-1.667L20.322,34h14.356l0.121,1.333L34.951,37z M36.68,15H18.32l-0.6-3h19.56L36.68,15z M17.823,2l2,5H25.5
	V2h4v5h6.82l1-5h1.96l-1.6,8H17.32l-1.6-8H17.823z M17.5,20c-0.827,0-1.5-0.673-1.5-1.5s0.673-1.5,1.5-1.5h20
	c0.827,0,1.5,0.673,1.5,1.5S38.327,20,37.5,20h-2.086H19.587H17.5z M33.587,22l0.909,10H20.504l0.909-10H33.587z M35.133,39l0.273,3
	h-15.81l0.273-3H35.133z M15.5,46.157c0-1.189,0.967-2.157,2.157-2.157h19.687c1.189,0,2.157,0.968,2.157,2.157V48h-24V46.157z
	 M41.5,53h-28v-3h28V53z"/>
<g>
</g>
<g>
</g>
<g>
</g>
<g>
</g>
<g>
</g>
<g>
</g>
<g>
</g>
<g>
</g>
<g>
</g>
<g>
</g>
<g>
</g>
<g>
</g>
<g>
</g>
<g>
</g>
<g>
</g>
</svg>
