<?xml version="1.0" encoding="iso-8859-1"?>
<!-- Generator: Adobe Illustrator 18.0.0, SVG Export Plug-In . SVG Version: 6.00 Build 0)  -->
<!DOCTYPE svg PUBLIC "-//W3C//DTD SVG 1.1//EN" "http://www.w3.org/Graphics/SVG/1.1/DTD/svg11.dtd">
<svg version="1.1" id="Capa_1" xmlns="http://www.w3.org/2000/svg" xmlns:xlink="http://www.w3.org/1999/xlink" x="0px" y="0px"
	 viewBox="0 0 55.647 55.647" style="enable-background:new 0 0 55.647 55.647;" xml:space="preserve">
<path d="M52.795,3.81l-0.884-0.884c-3.767-3.767-10.376-3.768-14.142,0l-11.49,11.49c-0.238,0.238-0.34,0.579-0.272,0.908
	c0.067,0.329,0.296,0.603,0.608,0.728c1.835,0.734,3.542,1.697,5.113,2.815L7.657,42.939H1c-0.552,0-1,0.448-1,1v5.291
	c0,0.552,0.448,1,1,1h4.315v4.315c0,0.552,0.448,1,1,1h5.291c0.552,0,1-0.448,1-1v-6.657L36.775,23.72
	c0.959,1.26,1.787,2.601,2.432,4.02l0.48,1.057c0.136,0.298,0.409,0.511,0.732,0.57c0.059,0.011,0.119,0.016,0.178,0.016
	c0.263,0,0.518-0.104,0.707-0.293l11.49-11.49C56.597,13.798,56.597,7.612,52.795,3.81z M10.899,46.768
	c-0.188,0.188-0.293,0.442-0.293,0.707v6.071H7.315V49.23c0-0.552-0.448-1-1-1H2v-3.291h6.071c0.265,0,0.52-0.105,0.707-0.293
	l24.541-24.541c0.104,0.088,0.211,0.175,0.314,0.265c0.259,0.227,0.518,0.454,0.766,0.691c0.377,0.361,0.743,0.732,1.093,1.115
	L10.899,46.768z M51.381,16.185L40.91,26.656c-0.851-1.81-1.963-3.507-3.273-5.065c-0.004-0.005-0.005-0.012-0.009-0.017
	c-0.011-0.013-0.023-0.026-0.035-0.039c-0.168-0.198-0.344-0.389-0.518-0.583c-0.234-0.259-0.474-0.513-0.72-0.764
	c-0.278-0.283-0.562-0.559-0.854-0.83c-0.262-0.243-0.527-0.483-0.8-0.716c-0.234-0.2-0.47-0.396-0.712-0.588
	c-0.038-0.03-0.073-0.062-0.111-0.092c-0.011-0.009-0.024-0.011-0.036-0.019c-1.563-1.223-3.27-2.295-5.108-3.153l10.45-10.45
	c3.014-3.014,8.301-3.013,11.314,0l0.884,0.884C54.403,8.247,54.403,13.163,51.381,16.185z"/>
<g>
</g>
<g>
</g>
<g>
</g>
<g>
</g>
<g>
</g>
<g>
</g>
<g>
</g>
<g>
</g>
<g>
</g>
<g>
</g>
<g>
</g>
<g>
</g>
<g>
</g>
<g>
</g>
<g>
</g>
</svg>
