<?xml version="1.0" encoding="iso-8859-1"?>
<!-- Generator: Adobe Illustrator 18.0.0, SVG Export Plug-In . SVG Version: 6.00 Build 0)  -->
<!DOCTYPE svg PUBLIC "-//W3C//DTD SVG 1.1//EN" "http://www.w3.org/Graphics/SVG/1.1/DTD/svg11.dtd">
<svg version="1.1" id="Capa_1" xmlns="http://www.w3.org/2000/svg" xmlns:xlink="http://www.w3.org/1999/xlink" x="0px" y="0px"
	 viewBox="0 0 59.937 59.937" style="enable-background:new 0 0 59.937 59.937;" xml:space="preserve">
<g>
	<path d="M30.511,4.822l-0.542-0.351l-0.543,0.351C15.614,13.733,9.275,22.621,6.727,27.126c-1.795,3.173-2.237,6.703-1.244,9.939
		c0.933,3.044,3.089,5.535,6.071,7.015c1.453,0.722,2.431,0.852,4.026,0.854c0.129-0.01,0.457-0.038,0.919-0.113
		c2.282-0.371,4.478-1.378,6.348-2.911c0.427-0.351,0.49-0.98,0.14-1.407s-0.979-0.488-1.407-0.14
		c-1.599,1.311-3.466,2.169-5.402,2.483c-0.377,0.062-0.643,0.086-0.669,0.091c-1.309-0.006-1.969-0.104-3.066-0.648
		c-2.485-1.233-4.277-3.297-5.048-5.81c-0.831-2.707-0.449-5.679,1.072-8.369c2.425-4.285,8.425-12.696,21.499-21.255
		C42.85,15.321,48.961,23.965,51.47,28.399c1.521,2.69,1.902,5.662,1.072,8.37c-0.771,2.512-2.563,4.574-5.048,5.808
		c-1.076,0.534-1.74,0.634-2.87,0.647c-0.472-0.069-1.556-0.259-2.817-0.68c-1.347-0.449-2.629-1.201-3.81-2.235
		c-0.416-0.366-1.048-0.322-1.411,0.093c-0.364,0.416-0.322,1.048,0.094,1.411c1.382,1.211,2.894,2.095,4.495,2.628
		c1.487,0.497,2.764,0.707,3.244,0.774l0.074,0.011l0.074-0.001c1.411-0.013,2.389-0.148,3.816-0.857
		c2.982-1.479,5.138-3.97,6.071-7.013c0.993-3.237,0.551-6.768-1.244-9.94C50.576,22.759,44.124,13.632,30.511,4.822z"/>
	<path d="M56.692,25.445C53.691,20.141,46.321,9.808,30.677,0.198c-0.431-0.264-0.985-0.265-1.416,0.001
		C14.191,9.458,6.796,18.881,3.246,25.156C0.904,29.294,0.34,33.94,1.658,38.238c1.258,4.104,4.141,7.451,8.117,9.425
		c2.364,1.173,4.105,1.273,5.86,1.273c0.006,0,0.011,0,0.017,0c0.02,0,0.504-0.019,1.276-0.133c3.246-0.485,6.353-2.047,8.782-4.407
		c-0.416,4.045-1.202,8.416-3.495,11.275c-0.649,0.81-0.777,1.887-0.333,2.81c0.431,0.898,1.322,1.456,2.326,1.456h11.535
		c1.001,0,1.89-0.557,2.319-1.452c0.442-0.923,0.314-1.998-0.335-2.808c-2.43-3.026-3.156-7.954-3.478-11.029
		c2.018,1.938,4.45,3.317,7.097,4.015c1.653,0.436,2.829,0.554,2.976,0.563c1.726,0,3.471-0.098,5.841-1.275
		c3.976-1.973,6.858-5.319,8.117-9.423C59.597,34.229,59.034,29.583,56.692,25.445z M56.367,37.941
		c-1.096,3.573-3.615,6.492-7.094,8.219c-1.814,0.901-3.091,1.066-4.853,1.071c-0.011-0.001-1.078-0.11-2.565-0.502
		c-2.639-0.695-5.04-2.171-6.942-4.266c-0.463-0.511-1.198-0.665-1.827-0.388c-0.628,0.278-1.007,0.924-0.942,1.606
		c0.458,4.85,1.263,9.812,4.023,13.247c0.246,0.307,0.132,0.606,0.092,0.691c-0.057,0.118-0.199,0.316-0.516,0.316H24.208
		c-0.321,0-0.465-0.201-0.523-0.321c-0.041-0.085-0.155-0.386,0.091-0.693c2.772-3.457,3.579-8.574,4.002-13.124
		c0.068-0.731-0.318-1.404-0.983-1.715c-0.237-0.111-0.487-0.165-0.733-0.165c-0.447,0-0.883,0.177-1.217,0.515l-0.325,0.328
		c-2.16,2.183-4.961,3.626-7.886,4.063c-0.633,0.094-1.026,0.112-1.017,0.112c-1.86,0-3.137-0.165-4.952-1.065
		c-3.479-1.727-5.999-4.646-7.094-8.22c-1.156-3.768-0.653-7.856,1.416-11.512c2.791-4.933,9.736-14.583,24.982-24.028
		c15.029,9.313,22.098,19.22,24.982,24.317h0C57.019,30.086,57.522,34.174,56.367,37.941z"/>
</g>
<g>
</g>
<g>
</g>
<g>
</g>
<g>
</g>
<g>
</g>
<g>
</g>
<g>
</g>
<g>
</g>
<g>
</g>
<g>
</g>
<g>
</g>
<g>
</g>
<g>
</g>
<g>
</g>
<g>
</g>
</svg>
