<?xml version="1.0" encoding="iso-8859-1"?>
<!-- Generator: Adobe Illustrator 18.0.0, SVG Export Plug-In . SVG Version: 6.00 Build 0)  -->
<!DOCTYPE svg PUBLIC "-//W3C//DTD SVG 1.1//EN" "http://www.w3.org/Graphics/SVG/1.1/DTD/svg11.dtd">
<svg version="1.1" id="Capa_1" xmlns="http://www.w3.org/2000/svg" xmlns:xlink="http://www.w3.org/1999/xlink" x="0px" y="0px"
	 viewBox="0 0 60 60" style="enable-background:new 0 0 60 60;" xml:space="preserve">
<g>
	<polygon points="24,15 19,24 29,24 	"/>
	<polygon points="41,24 36,15 31,24 	"/>
	<polygon points="30,5 25,14 35,14 	"/>
	<path d="M35.238,37.322L30,25.538l-5.237,11.784L29,40.5V43h-1c-0.553,0-1,0.448-1,1v4c0,0.107,0.018,0.214,0.052,0.316l2,6
		C29.188,54.725,29.57,55,30,55s0.813-0.275,0.948-0.684l2-6C32.983,48.215,33,48.108,33,48v-4c0-0.552-0.447-1-1-1h-1v-2.5
		L35.238,37.322z M31,47.838l-1,3l-1-3V45h2V47.838z M30,30.463l2.763,6.216L30,38.75l-2.763-2.072L30,30.463z"/>
	<path d="M18.937,39.351l2.305-6.148c0.107-0.075,0.217-0.146,0.315-0.235c1.022-0.934,1.178-2.275,0.426-3.68
		c-0.439-0.821-1.153-1.528-2.063-2.044c-1.31-0.742-5.251-4.081-1.008-15.906c0.163-0.456-0.023-0.963-0.442-1.205
		c-0.419-0.24-0.952-0.147-1.264,0.223c-0.151,0.179-2.486,3.005-3.931,6.898L1.4,12.083c-0.376-0.162-0.813-0.082-1.104,0.208
		c-0.291,0.289-0.376,0.726-0.214,1.103l3,7c0.144,0.335,0.458,0.565,0.821,0.601l8.301,0.815c-0.013,0.148-0.014,0.299-0.023,0.449
		L0.848,24.012c-0.302,0.046-0.565,0.228-0.716,0.493c-0.151,0.265-0.174,0.584-0.061,0.867l2,5C2.228,30.761,2.603,31,3,31
		c0.114,0,0.229-0.02,0.343-0.061l9.609-3.506c0.074,0.193,0.143,0.389,0.228,0.578l-7.734,5.156
		c-0.249,0.166-0.411,0.436-0.44,0.733c-0.029,0.298,0.076,0.594,0.288,0.806l3,3C8.489,37.903,8.744,38,9,38
		s0.512-0.098,0.707-0.293l6.023-6.023c0.176,0.181,0.352,0.362,0.542,0.537l-3.167,6.332c-0.155,0.31-0.139,0.678,0.044,0.973
		C13.331,39.821,13.654,40,14,40h4C18.417,40,18.79,39.741,18.937,39.351z M18.933,28.984c0.581,0.329,1.025,0.761,1.286,1.248
		c0.449,0.839,0.149,1.113-0.012,1.26c-0.088,0.08-0.196,0.13-0.305,0.177c-0.071,0.031-0.146,0.053-0.222,0.07
		c-0.065,0.014-0.131,0.024-0.199,0.028c-0.074,0.005-0.149,0.008-0.225,0.001c-0.081-0.008-0.162-0.026-0.242-0.047
		c-0.064-0.016-0.129-0.028-0.191-0.052c-0.136-0.054-0.269-0.125-0.389-0.219c-0.005-0.004-0.012-0.006-0.017-0.01
		c-0.001,0-0.001,0-0.002-0.001l-0.258-0.225c0,0-0.001,0-0.001,0c-0.629-0.529-1.183-1.086-1.665-1.671
		c-0.208-0.251-0.402-0.507-0.581-0.766c-0.028-0.041-0.053-0.083-0.08-0.123c-0.167-0.25-0.324-0.501-0.463-0.755
		c-0.389-0.708-0.681-1.45-0.883-2.223c-0.085-0.326-0.156-0.66-0.207-1.003c-0.011-0.075-0.024-0.15-0.034-0.226
		c-0.055-0.433-0.089-0.876-0.092-1.33c0-0.003-0.002-0.005-0.002-0.007c-0.003-0.717,0.059-1.428,0.176-2.124
		c0.05-0.3,0.111-0.607,0.184-0.919c0.017-0.072,0.037-0.142,0.054-0.213c0.067-0.268,0.141-0.539,0.224-0.814
		c0.119-0.392,0.247-0.778,0.387-1.151C14.196,25.268,17.273,28.043,18.933,28.984z M12.509,19.831l-7.822-0.768l-1.774-4.139
		l9.75,4.246c-0.027,0.106-0.046,0.217-0.072,0.324C12.563,19.606,12.533,19.719,12.509,19.831z M3.569,28.728l-1.173-2.932
		l9.806-1.516c0.001,0.016,0.001,0.031,0.002,0.047c0.04,0.402,0.101,0.797,0.178,1.186L3.569,28.728z M9,35.586L7.57,34.156
		l6.59-4.393c0.011,0.016,0.023,0.032,0.034,0.049c0.078,0.116,0.15,0.235,0.233,0.349L9,35.586z M15.618,38l2.275-4.55
		c0.049,0.023,0.1,0.036,0.15,0.056c0.099,0.041,0.198,0.081,0.3,0.112c0.057,0.018,0.116,0.03,0.174,0.045
		c0.127,0.033,0.253,0.064,0.382,0.082c0.001,0,0.002,0.001,0.003,0.001L17.307,38H15.618z"/>
	<path d="M59.868,24.505c-0.15-0.265-0.414-0.446-0.716-0.493L47.82,22.259c-0.009-0.15-0.01-0.301-0.023-0.449l8.301-0.815
		c0.363-0.036,0.678-0.266,0.821-0.601l3-7c0.162-0.377,0.077-0.814-0.214-1.103c-0.291-0.29-0.727-0.37-1.104-0.208l-11.875,5.171
		c-1.445-3.893-3.78-6.719-3.931-6.898c-0.311-0.37-0.844-0.464-1.264-0.223c-0.419,0.241-0.605,0.749-0.442,1.205
		c4.243,11.825,0.302,15.164-1.008,15.906c-0.91,0.516-1.624,1.223-2.063,2.044c-0.752,1.405-0.597,2.746,0.426,3.68
		c0.098,0.09,0.208,0.16,0.315,0.235l2.305,6.148C41.21,39.741,41.583,40,42,40h4c0.347,0,0.668-0.18,0.851-0.474
		c0.183-0.295,0.199-0.663,0.044-0.973l-3.166-6.332c0.189-0.175,0.365-0.356,0.541-0.537l6.023,6.023
		C50.489,37.903,50.744,38,51,38s0.512-0.098,0.707-0.293l3-3c0.212-0.212,0.317-0.507,0.288-0.806
		c-0.029-0.298-0.191-0.567-0.44-0.733l-7.734-5.156c0.085-0.189,0.154-0.385,0.228-0.578l9.609,3.506
		C56.771,30.981,56.886,31,57,31c0.397,0,0.772-0.239,0.929-0.628l2-5C60.042,25.089,60.02,24.769,59.868,24.505z M57.088,14.924
		l-1.774,4.139l-7.822,0.768c-0.024-0.111-0.054-0.225-0.081-0.337c-0.026-0.107-0.045-0.218-0.072-0.324L57.088,14.924z
		 M39.781,30.232c0.261-0.487,0.705-0.918,1.286-1.248c1.66-0.94,4.737-3.716,3.758-11.096c0.141,0.373,0.269,0.759,0.387,1.151
		c0.083,0.274,0.157,0.546,0.224,0.814c0.018,0.071,0.038,0.141,0.054,0.213c0.073,0.313,0.134,0.619,0.184,0.919
		c0.117,0.696,0.178,1.407,0.176,2.124c0,0.003-0.002,0.005-0.002,0.007c-0.002,0.454-0.036,0.897-0.092,1.33
		c-0.01,0.076-0.023,0.151-0.034,0.226c-0.052,0.343-0.123,0.677-0.207,1.003c-0.202,0.772-0.494,1.515-0.883,2.223
		c-0.139,0.254-0.296,0.506-0.463,0.755c-0.027,0.041-0.052,0.083-0.08,0.123c-0.179,0.259-0.374,0.515-0.581,0.766
		c-0.482,0.585-1.037,1.143-1.666,1.672c0,0-0.001,0-0.001,0l-0.256,0.224c-0.001,0-0.001,0-0.002,0.001
		c-0.006,0.005-0.013,0.006-0.018,0.011c-0.119,0.093-0.25,0.163-0.385,0.217c-0.068,0.027-0.139,0.04-0.209,0.057
		c-0.074,0.018-0.147,0.036-0.221,0.043c-0.081,0.007-0.161,0.005-0.24-0.001c-0.063-0.005-0.125-0.013-0.186-0.027
		c-0.078-0.017-0.154-0.04-0.227-0.071c-0.109-0.048-0.217-0.097-0.304-0.177C39.632,31.344,39.332,31.071,39.781,30.232z
		 M42.694,38l-1.596-4.254c0.001,0,0.002-0.001,0.003-0.001c0.131-0.019,0.259-0.05,0.388-0.084c0.055-0.014,0.11-0.026,0.164-0.042
		c0.103-0.032,0.204-0.072,0.304-0.114c0.049-0.02,0.1-0.033,0.148-0.056L44.382,38H42.694z M45.841,29.762l6.59,4.393L51,35.586
		l-5.426-5.426c0.083-0.114,0.154-0.233,0.233-0.349C45.818,29.795,45.83,29.779,45.841,29.762z M56.432,28.728l-8.814-3.216
		c0.077-0.389,0.138-0.784,0.178-1.186c0.001-0.016,0.001-0.031,0.002-0.047l9.806,1.516L56.432,28.728z"/>
	<path d="M19.045,46.001c-0.776-0.036-3.131-0.141-3.935,1.487c-0.833,1.685,0.79,3.756,1.123,4.155
		C16.432,51.879,16.715,52,17.001,52c0.227,0,0.454-0.077,0.642-0.233c0.423-0.355,0.479-0.986,0.124-1.409
		c-0.525-0.626-1.027-1.651-0.863-1.983c0.078-0.158,0.606-0.441,2.085-0.374c0.971,0.011,2.856,0.377,3.033,1.208
		c0.115,0.541,0.646,0.883,1.187,0.77c0.54-0.115,0.885-0.646,0.771-1.186C23.411,46.128,19.46,46.006,19.045,46.001z"/>
	<path d="M22.293,40.293l-3,3c-0.391,0.391-0.391,1.023,0,1.414C19.489,44.903,19.744,45,20,45s0.512-0.098,0.707-0.293l3-3
		c0.391-0.391,0.391-1.023,0-1.414S22.684,39.903,22.293,40.293z"/>
	<path d="M40.854,46.001c-0.441,0.01-4.323,0.178-4.835,2.809c-0.105,0.542,0.248,1.067,0.79,1.172
		c0.539,0.104,1.067-0.249,1.173-0.791c0.153-0.789,1.979-1.166,2.94-1.192c1.466-0.067,2.006,0.22,2.096,0.399
		c0.172,0.338-0.287,1.339-0.796,1.975c-0.347,0.429-0.279,1.058,0.149,1.405C42.556,51.927,42.779,52,42.999,52
		c0.292,0,0.581-0.127,0.778-0.371c0.32-0.396,1.874-2.454,1.026-4.132C43.977,45.859,41.606,45.964,40.854,46.001z"/>
	<path d="M39.293,44.707C39.489,44.903,39.744,45,40,45s0.512-0.098,0.707-0.293c0.391-0.391,0.391-1.023,0-1.414l-3-3
		c-0.391-0.391-1.023-0.391-1.414,0s-0.391,1.023,0,1.414L39.293,44.707z"/>
</g>
<g>
</g>
<g>
</g>
<g>
</g>
<g>
</g>
<g>
</g>
<g>
</g>
<g>
</g>
<g>
</g>
<g>
</g>
<g>
</g>
<g>
</g>
<g>
</g>
<g>
</g>
<g>
</g>
<g>
</g>
</svg>
