<?xml version="1.0" encoding="iso-8859-1"?>
<!-- Generator: Adobe Illustrator 18.0.0, SVG Export Plug-In . SVG Version: 6.00 Build 0)  -->
<!DOCTYPE svg PUBLIC "-//W3C//DTD SVG 1.1//EN" "http://www.w3.org/Graphics/SVG/1.1/DTD/svg11.dtd">
<svg version="1.1" id="Capa_1" xmlns="http://www.w3.org/2000/svg" xmlns:xlink="http://www.w3.org/1999/xlink" x="0px" y="0px"
	 viewBox="0 0 59.001 59.001" style="enable-background:new 0 0 59.001 59.001;" xml:space="preserve">
<g>
	<path d="M55.09,25.192c-0.441-0.323-1.058-0.23-1.386,0.203c-0.534,0.703-4.532,2.198-8.333,3.316
		c-0.005-2.123,1.191-4.125,3.168-5.114l5.319-2.899c0.246-0.134,0.425-0.366,0.492-0.638c0.067-0.273,0.017-0.561-0.139-0.794
		l-0.143-0.213c-1.178-1.769-2.787-3.202-5.218-4.646l-0.408-0.239c-0.67-0.389-1.249-0.725-1.679-1.223
		c-2.466-2.854-1.307-7.652-1.295-7.7c0.092-0.369-0.032-0.758-0.322-1.004c-0.29-0.247-0.693-0.308-1.041-0.158l-6.422,2.752
		l-7.526-6.585c-0.377-0.33-0.939-0.33-1.316,0l-7.526,6.585l-6.422-2.752c-0.348-0.151-0.753-0.088-1.043,0.158
		c-0.289,0.247-0.413,0.637-0.32,1.006c0.013,0.048,1.184,4.83-1.295,7.699c-0.43,0.498-1.009,0.834-1.679,1.223l-0.408,0.239
		c-2.431,1.445-4.04,2.877-5.218,4.646l-0.143,0.214c-0.155,0.233-0.206,0.521-0.139,0.794c0.067,0.272,0.246,0.504,0.492,0.638
		l5.351,2.916c1.95,0.975,3.143,2.975,3.137,5.097c-3.801-1.118-7.799-2.614-8.333-3.316c-0.328-0.433-0.943-0.525-1.386-0.203
		c-0.439,0.321-0.542,0.935-0.229,1.381l7,10c0.303,0.432,0.891,0.556,1.341,0.28c0.022-0.015,2.283-1.369,4.447-0.381
		c1.96,0.897,3.359,3.556,4.061,7.767c0.002,0.01,0.221,0.999-0.257,1.499c-0.397,0.418-1.318,0.518-2.588,0.279
		c-0.396-0.076-0.791,0.093-1.013,0.423c-0.224,0.33-0.229,0.761-0.016,1.097l7,11c0.189,0.298,0.497,0.482,0.878,0.462
		c0.354-0.012,0.675-0.21,0.844-0.521c0.021-0.039,0.521-0.959,1.121-2.474c2.619-6.61,2.089-14.135-1.457-20.647
		c-2.115-3.888-5.141-11.517-1.626-18.957C23.427,16.377,24.604,14,29.5,14c4.872,0,6.044,2.318,6.096,2.427
		c3.503,7.414,0.478,15.043-1.638,18.931c-3.546,6.512-4.076,14.037-1.457,20.647c0.601,1.514,1.1,2.435,1.121,2.474
		c0.169,0.311,0.49,0.509,0.844,0.521c0.012,0,0.023,0,0.034,0c0.341,0,0.66-0.174,0.844-0.463l7-11
		c0.214-0.336,0.208-0.768-0.016-1.097c-0.223-0.33-0.619-0.498-1.013-0.423c-1.27,0.239-2.189,0.14-2.588-0.279
		c-0.478-0.5-0.259-1.489-0.241-1.575c0.685-4.124,2.078-6.781,4.03-7.684c2.146-0.992,4.441,0.362,4.462,0.374
		c0.452,0.276,1.04,0.152,1.341-0.28l7-10C55.632,26.127,55.53,25.513,55.09,25.192z M47.17,34.728
		c-1.149-0.477-3.299-1.067-5.471-0.074c-2.63,1.203-4.375,4.292-5.168,9.1c-0.053,0.207-0.479,2.057,0.733,3.348
		c0.56,0.596,1.341,0.937,2.336,1.021l-4.969,7.807c-0.087-0.204-0.178-0.425-0.271-0.662c-2.4-6.056-1.907-12.964,1.354-18.954
		c2.297-4.221,5.571-12.529,1.702-20.715C37.352,15.452,35.77,12,29.5,12s-7.852,3.452-7.904,3.573
		c-3.881,8.212-0.606,16.52,1.69,20.741c3.261,5.989,3.754,12.897,1.354,18.954c-0.094,0.237-0.185,0.458-0.271,0.662L19.4,48.123
		c0.995-0.084,1.776-0.425,2.336-1.021c1.212-1.291,0.786-3.142,0.751-3.266c-0.811-4.89-2.556-7.979-5.186-9.183
		c-2.17-0.991-4.319-0.403-5.471,0.074l-4.117-5.881c2.452,0.958,5.295,1.778,6.521,2.117c0.27,0.074,0.555,0.033,0.791-0.112
		s0.401-0.383,0.456-0.656c0.677-3.385-1.007-6.827-4.063-8.354l-4.329-2.36c0.962-1.212,2.254-2.271,4.081-3.356l0.391-0.229
		c0.757-0.439,1.539-0.894,2.188-1.645c2.061-2.385,2.188-5.61,2.012-7.623l5.346,2.291c0.352,0.152,0.762,0.087,1.052-0.167
		L29.5,2.329l7.342,6.424c0.289,0.253,0.7,0.319,1.052,0.167l5.346-2.291c-0.176,2.013-0.049,5.238,2.012,7.623
		c0.649,0.751,1.432,1.206,2.188,1.645l0.391,0.229c1.827,1.086,3.118,2.144,4.081,3.357l-4.298,2.343
		c-3.087,1.543-4.771,4.986-4.094,8.371c0.055,0.272,0.22,0.51,0.456,0.656c0.236,0.146,0.523,0.188,0.791,0.112
		c1.226-0.339,4.068-1.159,6.521-2.117L47.17,34.728z"/>
	<path d="M35.314,23.419l-5-7c-0.375-0.526-1.252-0.526-1.627,0l-5,7c-0.249,0.348-0.249,0.814,0,1.162l5,7
		C28.874,31.844,29.177,32,29.5,32s0.626-0.156,0.813-0.419l5-7C35.563,24.233,35.563,23.767,35.314,23.419z M29.5,29.279L25.729,24
		l3.771-5.279L33.272,24L29.5,29.279z"/>
</g>
<g>
</g>
<g>
</g>
<g>
</g>
<g>
</g>
<g>
</g>
<g>
</g>
<g>
</g>
<g>
</g>
<g>
</g>
<g>
</g>
<g>
</g>
<g>
</g>
<g>
</g>
<g>
</g>
<g>
</g>
</svg>
