<?xml version="1.0" encoding="iso-8859-1"?>
<!-- Generator: Adobe Illustrator 18.0.0, SVG Export Plug-In . SVG Version: 6.00 Build 0)  -->
<!DOCTYPE svg PUBLIC "-//W3C//DTD SVG 1.1//EN" "http://www.w3.org/Graphics/SVG/1.1/DTD/svg11.dtd">
<svg version="1.1" id="Capa_1" xmlns="http://www.w3.org/2000/svg" xmlns:xlink="http://www.w3.org/1999/xlink" x="0px" y="0px"
	 viewBox="0 0 56 56" style="enable-background:new 0 0 56 56;" xml:space="preserve">
<g>
	<path d="M26,18H6v10h20V18z M24,20.586L18.586,26h-2.172l6-6H24V20.586z M13.586,26h-2.172l6-6h2.172L13.586,26z M9.586,20
		L8,21.586V20H9.586z M8,24.414L12.414,20h2.172l-6,6H8V24.414z M21.414,26L24,23.414V26H21.414z"/>
	<path d="M18,44h20v-6H18V44z M20,40h16v2H20V40z"/>
	<path d="M30,28h20V18H30V28z M32,24.414L36.414,20h2.172l-6,6H32V24.414z M41.414,20h2.172l-6,6h-2.172L41.414,20z M45.414,26
		L48,23.414V26H45.414z M48,20.586L42.586,26h-2.172l6-6H48V20.586z M33.586,20L32,21.586V20H33.586z"/>
	<path d="M0,0v16v26v14h56V42V12V0H0z M2,2h52v8H42V5H23v3H6v6H2V2z M54,54H2V44h9v4h40v-4h3V54z M54,42h-5v4H13v-4H2V16h6v-6h17V7
		h15v5h14V42z"/>
</g>
<g>
</g>
<g>
</g>
<g>
</g>
<g>
</g>
<g>
</g>
<g>
</g>
<g>
</g>
<g>
</g>
<g>
</g>
<g>
</g>
<g>
</g>
<g>
</g>
<g>
</g>
<g>
</g>
<g>
</g>
</svg>
